%TF.GenerationSoftware,KiCad,Pcbnew,8.0.2*%
%TF.CreationDate,2024-05-28T22:04:01+02:00*%
%TF.ProjectId,template,74656d70-6c61-4746-952e-6b696361645f,0.1.0*%
%TF.SameCoordinates,Original*%
%TF.FileFunction,Legend,Bot*%
%TF.FilePolarity,Positive*%
%FSLAX46Y46*%
G04 Gerber Fmt 4.6, Leading zero omitted, Abs format (unit mm)*
G04 Created by KiCad (PCBNEW 8.0.2) date 2024-05-28 22:04:01*
%MOMM*%
%LPD*%
G01*
G04 APERTURE LIST*
%ADD10C,3.000000*%
G04 APERTURE END LIST*
D10*
X208928571Y-76008285D02*
X200357143Y-76008285D01*
X204642857Y-91008285D02*
X204642857Y-76008285D01*
X189642857Y-90294000D02*
X191071429Y-91008285D01*
X191071429Y-91008285D02*
X193928572Y-91008285D01*
X193928572Y-91008285D02*
X195357143Y-90294000D01*
X195357143Y-90294000D02*
X196071429Y-88865428D01*
X196071429Y-88865428D02*
X196071429Y-83151142D01*
X196071429Y-83151142D02*
X195357143Y-81722571D01*
X195357143Y-81722571D02*
X193928572Y-81008285D01*
X193928572Y-81008285D02*
X191071429Y-81008285D01*
X191071429Y-81008285D02*
X189642857Y-81722571D01*
X189642857Y-81722571D02*
X188928572Y-83151142D01*
X188928572Y-83151142D02*
X188928572Y-84579714D01*
X188928572Y-84579714D02*
X196071429Y-86008285D01*
X182500000Y-91008285D02*
X182500000Y-81008285D01*
X182500000Y-82436857D02*
X181785714Y-81722571D01*
X181785714Y-81722571D02*
X180357143Y-81008285D01*
X180357143Y-81008285D02*
X178214286Y-81008285D01*
X178214286Y-81008285D02*
X176785714Y-81722571D01*
X176785714Y-81722571D02*
X176071429Y-83151142D01*
X176071429Y-83151142D02*
X176071429Y-91008285D01*
X176071429Y-83151142D02*
X175357143Y-81722571D01*
X175357143Y-81722571D02*
X173928571Y-81008285D01*
X173928571Y-81008285D02*
X171785714Y-81008285D01*
X171785714Y-81008285D02*
X170357143Y-81722571D01*
X170357143Y-81722571D02*
X169642857Y-83151142D01*
X169642857Y-83151142D02*
X169642857Y-91008285D01*
X162500000Y-81008285D02*
X162500000Y-96008285D01*
X162500000Y-81722571D02*
X161071429Y-81008285D01*
X161071429Y-81008285D02*
X158214286Y-81008285D01*
X158214286Y-81008285D02*
X156785714Y-81722571D01*
X156785714Y-81722571D02*
X156071429Y-82436857D01*
X156071429Y-82436857D02*
X155357143Y-83865428D01*
X155357143Y-83865428D02*
X155357143Y-88151142D01*
X155357143Y-88151142D02*
X156071429Y-89579714D01*
X156071429Y-89579714D02*
X156785714Y-90294000D01*
X156785714Y-90294000D02*
X158214286Y-91008285D01*
X158214286Y-91008285D02*
X161071429Y-91008285D01*
X161071429Y-91008285D02*
X162500000Y-90294000D01*
X146785714Y-91008285D02*
X148214285Y-90294000D01*
X148214285Y-90294000D02*
X148928571Y-88865428D01*
X148928571Y-88865428D02*
X148928571Y-76008285D01*
X134642857Y-91008285D02*
X134642857Y-83151142D01*
X134642857Y-83151142D02*
X135357142Y-81722571D01*
X135357142Y-81722571D02*
X136785714Y-81008285D01*
X136785714Y-81008285D02*
X139642857Y-81008285D01*
X139642857Y-81008285D02*
X141071428Y-81722571D01*
X134642857Y-90294000D02*
X136071428Y-91008285D01*
X136071428Y-91008285D02*
X139642857Y-91008285D01*
X139642857Y-91008285D02*
X141071428Y-90294000D01*
X141071428Y-90294000D02*
X141785714Y-88865428D01*
X141785714Y-88865428D02*
X141785714Y-87436857D01*
X141785714Y-87436857D02*
X141071428Y-86008285D01*
X141071428Y-86008285D02*
X139642857Y-85294000D01*
X139642857Y-85294000D02*
X136071428Y-85294000D01*
X136071428Y-85294000D02*
X134642857Y-84579714D01*
X129642856Y-81008285D02*
X123928570Y-81008285D01*
X127499999Y-76008285D02*
X127499999Y-88865428D01*
X127499999Y-88865428D02*
X126785713Y-90294000D01*
X126785713Y-90294000D02*
X125357142Y-91008285D01*
X125357142Y-91008285D02*
X123928570Y-91008285D01*
X113214284Y-90294000D02*
X114642856Y-91008285D01*
X114642856Y-91008285D02*
X117499999Y-91008285D01*
X117499999Y-91008285D02*
X118928570Y-90294000D01*
X118928570Y-90294000D02*
X119642856Y-88865428D01*
X119642856Y-88865428D02*
X119642856Y-83151142D01*
X119642856Y-83151142D02*
X118928570Y-81722571D01*
X118928570Y-81722571D02*
X117499999Y-81008285D01*
X117499999Y-81008285D02*
X114642856Y-81008285D01*
X114642856Y-81008285D02*
X113214284Y-81722571D01*
X113214284Y-81722571D02*
X112499999Y-83151142D01*
X112499999Y-83151142D02*
X112499999Y-84579714D01*
X112499999Y-84579714D02*
X119642856Y-86008285D01*
%LPC*%
%LPD*%
M02*
