%TF.GenerationSoftware,KiCad,Pcbnew,8.0.2*%
%TF.CreationDate,2024-05-28T22:04:00+02:00*%
%TF.ProjectId,template,74656d70-6c61-4746-952e-6b696361645f,0.1.0*%
%TF.SameCoordinates,Original*%
%TF.FileFunction,Soldermask,Top*%
%TF.FilePolarity,Negative*%
%FSLAX46Y46*%
G04 Gerber Fmt 4.6, Leading zero omitted, Abs format (unit mm)*
G04 Created by KiCad (PCBNEW 8.0.2) date 2024-05-28 22:04:00*
%MOMM*%
%LPD*%
G01*
G04 APERTURE LIST*
G04 APERTURE END LIST*
G36*
X161785909Y-79503289D02*
G01*
X161786415Y-79503308D01*
X161786421Y-79503309D01*
X161882925Y-79507100D01*
X161884088Y-79507118D01*
X161892009Y-79507059D01*
X161892791Y-79507115D01*
X161894758Y-79507410D01*
X161894789Y-79507413D01*
X161894793Y-79507414D01*
X161897548Y-79507674D01*
X161902097Y-79507853D01*
X161902110Y-79507854D01*
X161903599Y-79507913D01*
X161904184Y-79507971D01*
X161905642Y-79508201D01*
X161905653Y-79508203D01*
X162014770Y-79525485D01*
X162123564Y-79541870D01*
X162123585Y-79541875D01*
X162125544Y-79542170D01*
X162126307Y-79542347D01*
X162128211Y-79542949D01*
X162128218Y-79542951D01*
X162129586Y-79543383D01*
X162133256Y-79544250D01*
X162134681Y-79544476D01*
X162134699Y-79544480D01*
X162136664Y-79544792D01*
X162137426Y-79544975D01*
X162139321Y-79545590D01*
X162139322Y-79545591D01*
X162243960Y-79579589D01*
X162348838Y-79612788D01*
X162348842Y-79612789D01*
X162350710Y-79613381D01*
X162351425Y-79613670D01*
X162353179Y-79614541D01*
X162353182Y-79614542D01*
X162354630Y-79615261D01*
X162358074Y-79616667D01*
X162359383Y-79617092D01*
X162359396Y-79617097D01*
X162361283Y-79617711D01*
X162362008Y-79618011D01*
X162432979Y-79654172D01*
X163190891Y-80030577D01*
X163884566Y-80375080D01*
X163887329Y-80376452D01*
X163887515Y-80376549D01*
X163887980Y-80376805D01*
X163887988Y-80376809D01*
X163989392Y-80432590D01*
X163989403Y-80432596D01*
X163990712Y-80433317D01*
X163991210Y-80433631D01*
X163992415Y-80434493D01*
X163992436Y-80434506D01*
X163994006Y-80435629D01*
X163997242Y-80437595D01*
X163998519Y-80438246D01*
X163998529Y-80438252D01*
X164000303Y-80439156D01*
X164000972Y-80439566D01*
X164002577Y-80440732D01*
X164002585Y-80440737D01*
X164091508Y-80505344D01*
X164181046Y-80569364D01*
X164181062Y-80569377D01*
X164182678Y-80570533D01*
X164183279Y-80571038D01*
X164185724Y-80573446D01*
X164188610Y-80575893D01*
X164191396Y-80577917D01*
X164191978Y-80578412D01*
X164193349Y-80579772D01*
X164193355Y-80579777D01*
X164562738Y-80946144D01*
X164992752Y-81372647D01*
X164992903Y-81372803D01*
X165072852Y-81459291D01*
X165073225Y-81459746D01*
X165075239Y-81462519D01*
X165077690Y-81465412D01*
X165080105Y-81467863D01*
X165080610Y-81468464D01*
X165145748Y-81559566D01*
X165211576Y-81650170D01*
X165211986Y-81650839D01*
X165212888Y-81652610D01*
X165213539Y-81653888D01*
X165215518Y-81657146D01*
X165217511Y-81659933D01*
X165217910Y-81660593D01*
X165296013Y-81815752D01*
X165318845Y-81860562D01*
X165319146Y-81861289D01*
X165319517Y-81862433D01*
X165319582Y-81862575D01*
X165988726Y-83191888D01*
X165988736Y-83191910D01*
X165988963Y-83192360D01*
X165989053Y-83192549D01*
X165989261Y-83193011D01*
X165989277Y-83193043D01*
X166029027Y-83281020D01*
X166029544Y-83282096D01*
X166032223Y-83287353D01*
X166033130Y-83289133D01*
X166033430Y-83289858D01*
X166034043Y-83291746D01*
X166034052Y-83291768D01*
X166035051Y-83294352D01*
X166036935Y-83298520D01*
X166036941Y-83298535D01*
X166037549Y-83299881D01*
X166037760Y-83300431D01*
X166038210Y-83301853D01*
X166071571Y-83407243D01*
X166085300Y-83449499D01*
X166106166Y-83513715D01*
X166106350Y-83514478D01*
X166106887Y-83517878D01*
X166107759Y-83521569D01*
X166108794Y-83524834D01*
X166108971Y-83525598D01*
X166125640Y-83636277D01*
X166143170Y-83746957D01*
X166143232Y-83747734D01*
X166143235Y-83751226D01*
X166143517Y-83754979D01*
X166144026Y-83758350D01*
X166144082Y-83759133D01*
X166143345Y-83856105D01*
X166147856Y-88151137D01*
X166147852Y-88151338D01*
X166146383Y-88188691D01*
X166144040Y-88248352D01*
X166144021Y-88249545D01*
X166144082Y-88257436D01*
X166144026Y-88258220D01*
X166143726Y-88260206D01*
X166143724Y-88260239D01*
X166143465Y-88262976D01*
X166143228Y-88269027D01*
X166143170Y-88269613D01*
X166142935Y-88271090D01*
X166142936Y-88271090D01*
X166125657Y-88380181D01*
X166125654Y-88380196D01*
X166125655Y-88380197D01*
X166108972Y-88490972D01*
X166108795Y-88491737D01*
X166107757Y-88495011D01*
X166106886Y-88498701D01*
X166106350Y-88502092D01*
X166106166Y-88502855D01*
X166099685Y-88522801D01*
X166071592Y-88609258D01*
X166071593Y-88609259D01*
X166037761Y-88716138D01*
X166037472Y-88716853D01*
X166035877Y-88720062D01*
X166034468Y-88723515D01*
X166033430Y-88726712D01*
X166033130Y-88727437D01*
X165996982Y-88798380D01*
X165274690Y-90252758D01*
X165274593Y-90252944D01*
X165217825Y-90356140D01*
X165217511Y-90356638D01*
X165215517Y-90359424D01*
X165213543Y-90362673D01*
X165211986Y-90365732D01*
X165211576Y-90366401D01*
X165145748Y-90457004D01*
X165080610Y-90548107D01*
X165080105Y-90548708D01*
X165077697Y-90551150D01*
X165075236Y-90554054D01*
X165073226Y-90556824D01*
X165072730Y-90557407D01*
X164278495Y-91358181D01*
X164278339Y-91358332D01*
X164191851Y-91438281D01*
X164191395Y-91438655D01*
X164188625Y-91440665D01*
X164185721Y-91443126D01*
X164183279Y-91445534D01*
X164182678Y-91446039D01*
X164132440Y-91481957D01*
X164091574Y-91511176D01*
X164091575Y-91511177D01*
X164000972Y-91577005D01*
X164000303Y-91577415D01*
X163997244Y-91578972D01*
X163993995Y-91580946D01*
X163991209Y-91582940D01*
X163990549Y-91583339D01*
X163917159Y-91620280D01*
X163835398Y-91661437D01*
X163835396Y-91661437D01*
X163835397Y-91661438D01*
X163790580Y-91684274D01*
X163789852Y-91684575D01*
X163788717Y-91684942D01*
X163788563Y-91685013D01*
X162505327Y-92330962D01*
X162458781Y-92354392D01*
X162458592Y-92354483D01*
X162370116Y-92394457D01*
X162369039Y-92394975D01*
X162362008Y-92398559D01*
X162361283Y-92398859D01*
X162359387Y-92399473D01*
X162359378Y-92399478D01*
X162356784Y-92400481D01*
X162354953Y-92401308D01*
X162351259Y-92402978D01*
X162350709Y-92403189D01*
X162244007Y-92436964D01*
X162164252Y-92462878D01*
X162137426Y-92471595D01*
X162136663Y-92471779D01*
X162133265Y-92472316D01*
X162129580Y-92473185D01*
X162126307Y-92474223D01*
X162125543Y-92474400D01*
X162014826Y-92491075D01*
X162014825Y-92491074D01*
X162014810Y-92491077D01*
X161961755Y-92499479D01*
X161904184Y-92508599D01*
X161903409Y-92508661D01*
X161899890Y-92508665D01*
X161896134Y-92508950D01*
X161892792Y-92509455D01*
X161892008Y-92509511D01*
X161801025Y-92508820D01*
X159033642Y-92513121D01*
X159003939Y-92542879D01*
X159004484Y-94326434D01*
X159004999Y-96008283D01*
X159004995Y-96008481D01*
X159000371Y-96126170D01*
X159000313Y-96126756D01*
X158963492Y-96359235D01*
X158963309Y-96359998D01*
X158890573Y-96583855D01*
X158890273Y-96584580D01*
X158783414Y-96794303D01*
X158783004Y-96794972D01*
X158644653Y-96985396D01*
X158644144Y-96985993D01*
X158477707Y-97152430D01*
X158477110Y-97152939D01*
X158286686Y-97291290D01*
X158286017Y-97291700D01*
X158076294Y-97398559D01*
X158075569Y-97398859D01*
X157851712Y-97471595D01*
X157850949Y-97471778D01*
X157618470Y-97508599D01*
X157617688Y-97508661D01*
X157615697Y-97508661D01*
X157384301Y-97508661D01*
X157382310Y-97508661D01*
X157381528Y-97508599D01*
X157149049Y-97471778D01*
X157148286Y-97471595D01*
X156924429Y-97398859D01*
X156923704Y-97398559D01*
X156713981Y-97291700D01*
X156713312Y-97291290D01*
X156711693Y-97290114D01*
X156711690Y-97290112D01*
X156608254Y-97214961D01*
X156522888Y-97152939D01*
X156522291Y-97152430D01*
X156355854Y-96985993D01*
X156355345Y-96985396D01*
X156338904Y-96962767D01*
X156218171Y-96796593D01*
X156218167Y-96796586D01*
X156216994Y-96794972D01*
X156216584Y-96794303D01*
X156109725Y-96584580D01*
X156109425Y-96583855D01*
X156036689Y-96359998D01*
X156036506Y-96359235D01*
X155999685Y-96126756D01*
X155999623Y-96125976D01*
X155999586Y-96007800D01*
X155995507Y-82668874D01*
X159000918Y-82668874D01*
X159001922Y-85953161D01*
X159002960Y-89347842D01*
X159018205Y-89372425D01*
X159132116Y-89428997D01*
X159284081Y-89504467D01*
X159295571Y-89507154D01*
X160415711Y-89505413D01*
X161430709Y-89503835D01*
X161442243Y-89501087D01*
X162326434Y-89056007D01*
X162333091Y-89051175D01*
X162367396Y-89016588D01*
X162435832Y-88947588D01*
X162695516Y-88685766D01*
X162700262Y-88679135D01*
X162734922Y-88609345D01*
X163139285Y-87795134D01*
X163141970Y-87783662D01*
X163141605Y-87436872D01*
X163140042Y-85948397D01*
X163138227Y-84220091D01*
X163135478Y-84208542D01*
X162690577Y-83324705D01*
X162685745Y-83318048D01*
X162669416Y-83301853D01*
X162588916Y-83222010D01*
X162320337Y-82955625D01*
X162313708Y-82950880D01*
X161696504Y-82644356D01*
X161430201Y-82512101D01*
X161418711Y-82509414D01*
X160298570Y-82511154D01*
X159283574Y-82512732D01*
X159272041Y-82515481D01*
X159016020Y-82644356D01*
X159000918Y-82668874D01*
X155995507Y-82668874D01*
X155994999Y-81008769D01*
X155994999Y-81008761D01*
X155994999Y-81008287D01*
X155995003Y-81008089D01*
X155995020Y-81007648D01*
X155995021Y-81007612D01*
X155999568Y-80891887D01*
X155999568Y-80891877D01*
X155999627Y-80890400D01*
X155999685Y-80889814D01*
X156020911Y-80755796D01*
X156036195Y-80659295D01*
X156036196Y-80659288D01*
X156036506Y-80657335D01*
X156036689Y-80656572D01*
X156059658Y-80585881D01*
X156108810Y-80434606D01*
X156108812Y-80434599D01*
X156109425Y-80432715D01*
X156109725Y-80431990D01*
X156110625Y-80430221D01*
X156110630Y-80430212D01*
X156215673Y-80224053D01*
X156215678Y-80224043D01*
X156216584Y-80222267D01*
X156216994Y-80221598D01*
X156218163Y-80219988D01*
X156218171Y-80219976D01*
X156354171Y-80032789D01*
X156354175Y-80032784D01*
X156355345Y-80031174D01*
X156355854Y-80030577D01*
X156357264Y-80029166D01*
X156357270Y-80029160D01*
X156520874Y-79865556D01*
X156520880Y-79865550D01*
X156522291Y-79864140D01*
X156522888Y-79863631D01*
X156524498Y-79862461D01*
X156524503Y-79862457D01*
X156711690Y-79726457D01*
X156711702Y-79726449D01*
X156713312Y-79725280D01*
X156713981Y-79724870D01*
X156715757Y-79723964D01*
X156715767Y-79723959D01*
X156921926Y-79618916D01*
X156921935Y-79618911D01*
X156923704Y-79618011D01*
X156924429Y-79617711D01*
X156926313Y-79617098D01*
X156926320Y-79617096D01*
X157146396Y-79545589D01*
X157146397Y-79545588D01*
X157148286Y-79544975D01*
X157149049Y-79544792D01*
X157151002Y-79544482D01*
X157151009Y-79544481D01*
X157379566Y-79508281D01*
X157379575Y-79508280D01*
X157381528Y-79507971D01*
X157382310Y-79507909D01*
X157617688Y-79507909D01*
X157618470Y-79507971D01*
X157620423Y-79508280D01*
X157620431Y-79508281D01*
X157848988Y-79544481D01*
X157848992Y-79544482D01*
X157850949Y-79544792D01*
X157851712Y-79544975D01*
X157957743Y-79579426D01*
X158073677Y-79617096D01*
X158073679Y-79617097D01*
X158075569Y-79617711D01*
X158076294Y-79618011D01*
X158078066Y-79618914D01*
X158078071Y-79618916D01*
X158142864Y-79651929D01*
X158196842Y-79679433D01*
X158221101Y-79679493D01*
X158255037Y-79662412D01*
X158255058Y-79662401D01*
X158255503Y-79662178D01*
X158255692Y-79662088D01*
X158256155Y-79661879D01*
X158344138Y-79622124D01*
X158345207Y-79621611D01*
X158350492Y-79618918D01*
X158350509Y-79618910D01*
X158352276Y-79618011D01*
X158353000Y-79617711D01*
X158354895Y-79617094D01*
X158354927Y-79617081D01*
X158354951Y-79617074D01*
X158357511Y-79616081D01*
X158359325Y-79615262D01*
X158363025Y-79613591D01*
X158363574Y-79613381D01*
X158365447Y-79612788D01*
X158470322Y-79579589D01*
X158574964Y-79545590D01*
X158574968Y-79545588D01*
X158576858Y-79544975D01*
X158577620Y-79544792D01*
X158579571Y-79544482D01*
X158579598Y-79544476D01*
X158581025Y-79544250D01*
X158584691Y-79543385D01*
X158586074Y-79542948D01*
X158586083Y-79542945D01*
X158587977Y-79542347D01*
X158588740Y-79542170D01*
X158590690Y-79541876D01*
X158590713Y-79541871D01*
X158699532Y-79525482D01*
X158808155Y-79508278D01*
X158808168Y-79508276D01*
X158810100Y-79507971D01*
X158810874Y-79507909D01*
X158812849Y-79507905D01*
X158812858Y-79507905D01*
X158814394Y-79507902D01*
X158818125Y-79507620D01*
X158819512Y-79507411D01*
X158819536Y-79507409D01*
X158821492Y-79507115D01*
X158822275Y-79507059D01*
X158913255Y-79507747D01*
X161785186Y-79503285D01*
X161785224Y-79503285D01*
X161785705Y-79503285D01*
X161785909Y-79503289D01*
G37*
G36*
X128928766Y-79503289D02*
G01*
X128929272Y-79503308D01*
X128929278Y-79503309D01*
X129025782Y-79507100D01*
X129026945Y-79507118D01*
X129034866Y-79507059D01*
X129035648Y-79507115D01*
X129037615Y-79507410D01*
X129037646Y-79507413D01*
X129037650Y-79507414D01*
X129040405Y-79507674D01*
X129044954Y-79507853D01*
X129044967Y-79507854D01*
X129046456Y-79507913D01*
X129047041Y-79507971D01*
X129048499Y-79508201D01*
X129048510Y-79508203D01*
X129157627Y-79525485D01*
X129266421Y-79541870D01*
X129266442Y-79541875D01*
X129268401Y-79542170D01*
X129269164Y-79542347D01*
X129271068Y-79542949D01*
X129271075Y-79542951D01*
X129272443Y-79543383D01*
X129276113Y-79544250D01*
X129277538Y-79544476D01*
X129277556Y-79544480D01*
X129279521Y-79544792D01*
X129280283Y-79544975D01*
X129282178Y-79545590D01*
X129282179Y-79545591D01*
X129386817Y-79579589D01*
X129491695Y-79612788D01*
X129491699Y-79612789D01*
X129493567Y-79613381D01*
X129494282Y-79613670D01*
X129496036Y-79614541D01*
X129496039Y-79614542D01*
X129497487Y-79615261D01*
X129500931Y-79616667D01*
X129502240Y-79617092D01*
X129502253Y-79617097D01*
X129504140Y-79617711D01*
X129504865Y-79618011D01*
X129575836Y-79654172D01*
X130333748Y-80030577D01*
X131027423Y-80375080D01*
X131030186Y-80376452D01*
X131030372Y-80376549D01*
X131030837Y-80376805D01*
X131030845Y-80376809D01*
X131132257Y-80432595D01*
X131132260Y-80432597D01*
X131133569Y-80433317D01*
X131134067Y-80433631D01*
X131135274Y-80434494D01*
X131135282Y-80434499D01*
X131141600Y-80439015D01*
X131144670Y-80440896D01*
X131148751Y-80443016D01*
X131152879Y-80445159D01*
X131153545Y-80445574D01*
X131239015Y-80508669D01*
X131239064Y-80508705D01*
X131323915Y-80569374D01*
X131323920Y-80569378D01*
X131325535Y-80570533D01*
X131326135Y-80571038D01*
X131327551Y-80572433D01*
X131327557Y-80572438D01*
X131332725Y-80577528D01*
X131335460Y-80579864D01*
X131342914Y-80585367D01*
X131343506Y-80585881D01*
X131418112Y-80661628D01*
X131493832Y-80736207D01*
X131494346Y-80736799D01*
X131499845Y-80744249D01*
X131502175Y-80746976D01*
X131508675Y-80753576D01*
X131509180Y-80754177D01*
X131570997Y-80840633D01*
X131634139Y-80926167D01*
X131634554Y-80926834D01*
X131635472Y-80928603D01*
X131638813Y-80935041D01*
X131640700Y-80938119D01*
X131644942Y-80944051D01*
X131644945Y-80944056D01*
X131646082Y-80945646D01*
X131646481Y-80946306D01*
X131704591Y-81061747D01*
X131743002Y-81135738D01*
X131743307Y-81136461D01*
X131743936Y-81138350D01*
X131744891Y-81141215D01*
X131746303Y-81144610D01*
X132417298Y-82477601D01*
X132417308Y-82477623D01*
X132417535Y-82478073D01*
X132417625Y-82478262D01*
X132417833Y-82478724D01*
X132417849Y-82478756D01*
X132457603Y-82566742D01*
X132458120Y-82567818D01*
X132460268Y-82572033D01*
X132461702Y-82574847D01*
X132462003Y-82575573D01*
X132462621Y-82577477D01*
X132462629Y-82577496D01*
X132463628Y-82580076D01*
X132465023Y-82583164D01*
X132466121Y-82585594D01*
X132466332Y-82586144D01*
X132498997Y-82689337D01*
X132500117Y-82692876D01*
X132510318Y-82724272D01*
X132534738Y-82799429D01*
X132534921Y-82800192D01*
X132535417Y-82803329D01*
X132535456Y-82803573D01*
X132536326Y-82807262D01*
X132537366Y-82810547D01*
X132537543Y-82811311D01*
X132554215Y-82922011D01*
X132571742Y-83032671D01*
X132571804Y-83033438D01*
X132571809Y-83035393D01*
X132571815Y-83037032D01*
X132572099Y-83040749D01*
X132572261Y-83041833D01*
X132572598Y-83044063D01*
X132572654Y-83044846D01*
X132572068Y-83121957D01*
X132576428Y-84579699D01*
X132576424Y-84579910D01*
X132575221Y-84610503D01*
X132574789Y-84621498D01*
X132574791Y-84623521D01*
X132575128Y-84631892D01*
X132575328Y-84636834D01*
X132575298Y-84637619D01*
X132575065Y-84639604D01*
X132575065Y-84639605D01*
X132573696Y-84651267D01*
X132573542Y-84653222D01*
X132571800Y-84697599D01*
X132571742Y-84698185D01*
X132571508Y-84699657D01*
X132571508Y-84699665D01*
X132566499Y-84731288D01*
X132558063Y-84784543D01*
X132547877Y-84871393D01*
X132547725Y-84872163D01*
X132540015Y-84899608D01*
X132539380Y-84902504D01*
X132534921Y-84930664D01*
X132534738Y-84931427D01*
X132507721Y-85014574D01*
X132484071Y-85098770D01*
X132483800Y-85099507D01*
X132471885Y-85125420D01*
X132470813Y-85128163D01*
X132462002Y-85155284D01*
X132461702Y-85156009D01*
X132442452Y-85193787D01*
X132422006Y-85233915D01*
X132385481Y-85313366D01*
X132385098Y-85314051D01*
X132383990Y-85315712D01*
X132383990Y-85315713D01*
X132369282Y-85337773D01*
X132367783Y-85340335D01*
X132363026Y-85349669D01*
X132354843Y-85365732D01*
X132354433Y-85366401D01*
X132312595Y-85423983D01*
X132303047Y-85437126D01*
X132268735Y-85488591D01*
X132254534Y-85509895D01*
X132254049Y-85510512D01*
X132238390Y-85527484D01*
X132234720Y-85531464D01*
X132232838Y-85533760D01*
X132216082Y-85556825D01*
X132215573Y-85557422D01*
X132153719Y-85619274D01*
X132094455Y-85683522D01*
X132093879Y-85684055D01*
X132092314Y-85685291D01*
X132071516Y-85701721D01*
X132069298Y-85703695D01*
X132050550Y-85722444D01*
X132049136Y-85723858D01*
X132048539Y-85724368D01*
X132023968Y-85742218D01*
X131977782Y-85775775D01*
X131962416Y-85787914D01*
X131909187Y-85829969D01*
X131908535Y-85830406D01*
X131883672Y-85844362D01*
X131881181Y-85845959D01*
X131858115Y-85862719D01*
X131857446Y-85863129D01*
X131818523Y-85882960D01*
X131779531Y-85902828D01*
X131756822Y-85915576D01*
X131703290Y-85945631D01*
X131702577Y-85945960D01*
X131688514Y-85951164D01*
X131675849Y-85955851D01*
X131673129Y-85957042D01*
X131649501Y-85969082D01*
X131647723Y-85969988D01*
X131646998Y-85970288D01*
X131605933Y-85983630D01*
X131563837Y-85997308D01*
X131481834Y-86027659D01*
X131481082Y-86027872D01*
X131471432Y-86029807D01*
X131452967Y-86033513D01*
X131450110Y-86034261D01*
X131430897Y-86040503D01*
X131423141Y-86043024D01*
X131422378Y-86043207D01*
X131338247Y-86056531D01*
X125455312Y-87236941D01*
X125432301Y-87265051D01*
X125432721Y-87795139D01*
X125433279Y-88500122D01*
X125433288Y-88510938D01*
X125436037Y-88522494D01*
X125760904Y-89167872D01*
X125772593Y-89179498D01*
X126426938Y-89504467D01*
X126438428Y-89507154D01*
X127556994Y-89505415D01*
X128573567Y-89503835D01*
X128585099Y-89501087D01*
X128996836Y-89293830D01*
X129683603Y-88948130D01*
X129683625Y-88948119D01*
X129684075Y-88947893D01*
X129684264Y-88947803D01*
X129684724Y-88947595D01*
X129684739Y-88947588D01*
X129790235Y-88899920D01*
X129790248Y-88899914D01*
X129791596Y-88899306D01*
X129792146Y-88899095D01*
X129793561Y-88898646D01*
X129793577Y-88898641D01*
X130014647Y-88828662D01*
X130014655Y-88828659D01*
X130016548Y-88828061D01*
X130017312Y-88827884D01*
X130019273Y-88827588D01*
X130019276Y-88827588D01*
X130248101Y-88793125D01*
X130248110Y-88793124D01*
X130250065Y-88792830D01*
X130250848Y-88792774D01*
X130486218Y-88794561D01*
X130487000Y-88794629D01*
X130488965Y-88794955D01*
X130488970Y-88794956D01*
X130717224Y-88832885D01*
X130717233Y-88832887D01*
X130719193Y-88833213D01*
X130719954Y-88833402D01*
X130721841Y-88834031D01*
X130721853Y-88834034D01*
X130941352Y-88907200D01*
X130941366Y-88907206D01*
X130943253Y-88907835D01*
X130943976Y-88908140D01*
X130945752Y-88909062D01*
X131151104Y-89015665D01*
X131151108Y-89015668D01*
X131152881Y-89016588D01*
X131153547Y-89017003D01*
X131342915Y-89156797D01*
X131343507Y-89157311D01*
X131508676Y-89325006D01*
X131509181Y-89325607D01*
X131646083Y-89517076D01*
X131646488Y-89517748D01*
X131751752Y-89728276D01*
X131752047Y-89729003D01*
X131823081Y-89953406D01*
X131823258Y-89954170D01*
X131823554Y-89956140D01*
X131823557Y-89956150D01*
X131858015Y-90184946D01*
X131858015Y-90184953D01*
X131858312Y-90186922D01*
X131858368Y-90187705D01*
X131856582Y-90423076D01*
X131856514Y-90423858D01*
X131817929Y-90656051D01*
X131817740Y-90656812D01*
X131817107Y-90658710D01*
X131817107Y-90658711D01*
X131744895Y-90875348D01*
X131743307Y-90880110D01*
X131743002Y-90880833D01*
X131634554Y-91089738D01*
X131634139Y-91090404D01*
X131494345Y-91279773D01*
X131493831Y-91280365D01*
X131326136Y-91445534D01*
X131325535Y-91446039D01*
X131134066Y-91582940D01*
X131133406Y-91583339D01*
X131131654Y-91584220D01*
X131131654Y-91584221D01*
X129726182Y-92291700D01*
X129601638Y-92354392D01*
X129601449Y-92354483D01*
X129512973Y-92394457D01*
X129511896Y-92394975D01*
X129504865Y-92398559D01*
X129504140Y-92398859D01*
X129502244Y-92399473D01*
X129502235Y-92399478D01*
X129499641Y-92400481D01*
X129497810Y-92401308D01*
X129494116Y-92402978D01*
X129493566Y-92403189D01*
X129386864Y-92436964D01*
X129307109Y-92462878D01*
X129280283Y-92471595D01*
X129279520Y-92471779D01*
X129276122Y-92472316D01*
X129272437Y-92473185D01*
X129269164Y-92474223D01*
X129268400Y-92474400D01*
X129157683Y-92491075D01*
X129157682Y-92491074D01*
X129157667Y-92491077D01*
X129104612Y-92499479D01*
X129047041Y-92508599D01*
X129046266Y-92508661D01*
X129042747Y-92508665D01*
X129038991Y-92508950D01*
X129035649Y-92509455D01*
X129034865Y-92509511D01*
X128943882Y-92508820D01*
X127963080Y-92510344D01*
X126071436Y-92513285D01*
X126071232Y-92513281D01*
X126029279Y-92511632D01*
X125974216Y-92509469D01*
X125973023Y-92509450D01*
X125972197Y-92509456D01*
X125965134Y-92509511D01*
X125964351Y-92509455D01*
X125962367Y-92509155D01*
X125962327Y-92509153D01*
X125959596Y-92508894D01*
X125953543Y-92508657D01*
X125952957Y-92508599D01*
X125951480Y-92508365D01*
X125951479Y-92508365D01*
X125842387Y-92491086D01*
X125842372Y-92491083D01*
X125842372Y-92491084D01*
X125731598Y-92474401D01*
X125730834Y-92474224D01*
X125727559Y-92473186D01*
X125723871Y-92472315D01*
X125720478Y-92471779D01*
X125719715Y-92471595D01*
X125682484Y-92459497D01*
X125613280Y-92437012D01*
X125506432Y-92403190D01*
X125505717Y-92402901D01*
X125502506Y-92401306D01*
X125499049Y-92399896D01*
X125498417Y-92399690D01*
X125495858Y-92398859D01*
X125495133Y-92398559D01*
X125424189Y-92362411D01*
X123969812Y-91640119D01*
X123969626Y-91640022D01*
X123866430Y-91583254D01*
X123865932Y-91582940D01*
X123864715Y-91582070D01*
X123864701Y-91582061D01*
X123858401Y-91577557D01*
X123855328Y-91575674D01*
X123850721Y-91573282D01*
X123847118Y-91571412D01*
X123846452Y-91570997D01*
X123760911Y-91507850D01*
X123760911Y-91507849D01*
X123676082Y-91447197D01*
X123676078Y-91447194D01*
X123674463Y-91446039D01*
X123673862Y-91445534D01*
X123667262Y-91439034D01*
X123664534Y-91436703D01*
X123657084Y-91431204D01*
X123656492Y-91430690D01*
X123581914Y-91354971D01*
X123506167Y-91280365D01*
X123505653Y-91279773D01*
X123500150Y-91272319D01*
X123497814Y-91269584D01*
X123492723Y-91264415D01*
X123492720Y-91264411D01*
X123491323Y-91262993D01*
X123490818Y-91262393D01*
X123489663Y-91260778D01*
X123489659Y-91260773D01*
X123428994Y-91175928D01*
X123367046Y-91092012D01*
X123367044Y-91092009D01*
X123365860Y-91090405D01*
X123365445Y-91089739D01*
X123363306Y-91085620D01*
X123361181Y-91081528D01*
X123359301Y-91078458D01*
X123355050Y-91072513D01*
X123355042Y-91072500D01*
X123353916Y-91070925D01*
X123353517Y-91070265D01*
X123352643Y-91068529D01*
X123352637Y-91068519D01*
X123295377Y-90954766D01*
X123257919Y-90882610D01*
X123256997Y-90880834D01*
X123256692Y-90880111D01*
X123256064Y-90878227D01*
X123256058Y-90878213D01*
X123255103Y-90875348D01*
X123253693Y-90871957D01*
X122582702Y-89538972D01*
X122582691Y-89538949D01*
X122582463Y-89538496D01*
X122582373Y-89538307D01*
X122542402Y-89449842D01*
X122541887Y-89448769D01*
X122539205Y-89443506D01*
X122538296Y-89441723D01*
X122537996Y-89440999D01*
X122537379Y-89439102D01*
X122537365Y-89439068D01*
X122537363Y-89439060D01*
X122536365Y-89436484D01*
X122534492Y-89432339D01*
X122534488Y-89432330D01*
X122533876Y-89430974D01*
X122533666Y-89430425D01*
X122531340Y-89423079D01*
X122499874Y-89323675D01*
X122465876Y-89219037D01*
X122465875Y-89219036D01*
X122465260Y-89217141D01*
X122465077Y-89216379D01*
X122464765Y-89214414D01*
X122464761Y-89214396D01*
X122464535Y-89212971D01*
X122463668Y-89209301D01*
X122463236Y-89207933D01*
X122463234Y-89207926D01*
X122462632Y-89206022D01*
X122462455Y-89205259D01*
X122462160Y-89203300D01*
X122462155Y-89203279D01*
X122445770Y-89094485D01*
X122428566Y-88985860D01*
X122428565Y-88985852D01*
X122428256Y-88983899D01*
X122428194Y-88983121D01*
X122428192Y-88981133D01*
X122428191Y-88981125D01*
X122428190Y-88979632D01*
X122427908Y-88975887D01*
X122427696Y-88974480D01*
X122427695Y-88974466D01*
X122427400Y-88972506D01*
X122427344Y-88971724D01*
X122427820Y-88909062D01*
X122428104Y-88871496D01*
X122425811Y-85979496D01*
X122424750Y-85953161D01*
X122424750Y-85953154D01*
X122424670Y-85951164D01*
X122424700Y-85950381D01*
X122425607Y-85942637D01*
X122425780Y-85939662D01*
X122425476Y-85556825D01*
X122424935Y-84874086D01*
X122423861Y-83518866D01*
X125429330Y-83518866D01*
X125429822Y-84138782D01*
X125467026Y-84169238D01*
X129456116Y-83368828D01*
X129478145Y-83323598D01*
X129239092Y-82848696D01*
X129227403Y-82837070D01*
X128573058Y-82512101D01*
X128561568Y-82509414D01*
X127441427Y-82511154D01*
X126426431Y-82512732D01*
X126414898Y-82515481D01*
X125768982Y-82840619D01*
X125757356Y-82852308D01*
X125432017Y-83507396D01*
X125429330Y-83518866D01*
X122423861Y-83518866D01*
X122423570Y-83151674D01*
X122423570Y-83151653D01*
X122423570Y-83151146D01*
X122423574Y-83150946D01*
X122423593Y-83150449D01*
X122423594Y-83150424D01*
X122427385Y-83053928D01*
X122427403Y-83052764D01*
X122427344Y-83044846D01*
X122427400Y-83044064D01*
X122427695Y-83042095D01*
X122427699Y-83042050D01*
X122427702Y-83042034D01*
X122427959Y-83039294D01*
X122428137Y-83034760D01*
X122428139Y-83034731D01*
X122428198Y-83033256D01*
X122428256Y-83032671D01*
X122428486Y-83031216D01*
X122428488Y-83031200D01*
X122445767Y-82922103D01*
X122462156Y-82813284D01*
X122462161Y-82813261D01*
X122462455Y-82811311D01*
X122462632Y-82810548D01*
X122463230Y-82808654D01*
X122463233Y-82808645D01*
X122463670Y-82807262D01*
X122464535Y-82803596D01*
X122464761Y-82802169D01*
X122464767Y-82802142D01*
X122465077Y-82800191D01*
X122465260Y-82799429D01*
X122465872Y-82797542D01*
X122465875Y-82797534D01*
X122499867Y-82692913D01*
X122533073Y-82588016D01*
X122533074Y-82588011D01*
X122533666Y-82586144D01*
X122533955Y-82585430D01*
X122534822Y-82583681D01*
X122534828Y-82583669D01*
X122535550Y-82582214D01*
X122536951Y-82578782D01*
X122537375Y-82577477D01*
X122537381Y-82577461D01*
X122537996Y-82575571D01*
X122538296Y-82574847D01*
X122539195Y-82573081D01*
X122539202Y-82573066D01*
X122574455Y-82503877D01*
X123296498Y-81050006D01*
X123296510Y-81049982D01*
X123296737Y-81049526D01*
X123296834Y-81049340D01*
X123319787Y-81007614D01*
X123352877Y-80947460D01*
X123352885Y-80947446D01*
X123353602Y-80946144D01*
X123353916Y-80945646D01*
X123354779Y-80944437D01*
X123354791Y-80944420D01*
X123359299Y-80938115D01*
X123361180Y-80935046D01*
X123361183Y-80935041D01*
X123362073Y-80933324D01*
X123364523Y-80928606D01*
X123364525Y-80928601D01*
X123365444Y-80926833D01*
X123365859Y-80926167D01*
X123428947Y-80840704D01*
X123489657Y-80755798D01*
X123489670Y-80755782D01*
X123490818Y-80754177D01*
X123491322Y-80753577D01*
X123492710Y-80752166D01*
X123492723Y-80752152D01*
X123497821Y-80746976D01*
X123500157Y-80744241D01*
X123504465Y-80738405D01*
X123504479Y-80738388D01*
X123505653Y-80736799D01*
X123506166Y-80736207D01*
X123507587Y-80734807D01*
X123507591Y-80734802D01*
X123581883Y-80661627D01*
X123655087Y-80587306D01*
X123655096Y-80587297D01*
X123656492Y-80585881D01*
X123657084Y-80585368D01*
X123658677Y-80584191D01*
X123658686Y-80584184D01*
X123664530Y-80579869D01*
X123667265Y-80577533D01*
X123672443Y-80572434D01*
X123672451Y-80572426D01*
X123673863Y-80571037D01*
X123674463Y-80570533D01*
X123676068Y-80569384D01*
X123676084Y-80569372D01*
X123760977Y-80508671D01*
X123765484Y-80505344D01*
X123846452Y-80445574D01*
X123847118Y-80445159D01*
X123848886Y-80444240D01*
X123848891Y-80444238D01*
X123855331Y-80440895D01*
X123858400Y-80439014D01*
X123864334Y-80434771D01*
X123864349Y-80434761D01*
X123865931Y-80433631D01*
X123866591Y-80433232D01*
X123868328Y-80432357D01*
X123868344Y-80432348D01*
X123982111Y-80375080D01*
X124054252Y-80337630D01*
X124054261Y-80337626D01*
X124056024Y-80336711D01*
X124056747Y-80336406D01*
X124058622Y-80335780D01*
X124058643Y-80335772D01*
X124061518Y-80334813D01*
X124064901Y-80333405D01*
X125397883Y-79662417D01*
X125397925Y-79662396D01*
X125398360Y-79662178D01*
X125398549Y-79662088D01*
X125398980Y-79661892D01*
X125399012Y-79661878D01*
X125486995Y-79622124D01*
X125488064Y-79621611D01*
X125493349Y-79618918D01*
X125493366Y-79618910D01*
X125495133Y-79618011D01*
X125495857Y-79617711D01*
X125497752Y-79617094D01*
X125497784Y-79617081D01*
X125497808Y-79617074D01*
X125500368Y-79616081D01*
X125502182Y-79615262D01*
X125505882Y-79613591D01*
X125506431Y-79613381D01*
X125508304Y-79612788D01*
X125613179Y-79579589D01*
X125717821Y-79545590D01*
X125717825Y-79545588D01*
X125719715Y-79544975D01*
X125720477Y-79544792D01*
X125722428Y-79544482D01*
X125722455Y-79544476D01*
X125723882Y-79544250D01*
X125727548Y-79543385D01*
X125728931Y-79542948D01*
X125728940Y-79542945D01*
X125730834Y-79542347D01*
X125731597Y-79542170D01*
X125733547Y-79541876D01*
X125733570Y-79541871D01*
X125842389Y-79525482D01*
X125951012Y-79508278D01*
X125951025Y-79508276D01*
X125952957Y-79507971D01*
X125953731Y-79507909D01*
X125955706Y-79507905D01*
X125955715Y-79507905D01*
X125957251Y-79507902D01*
X125960982Y-79507620D01*
X125962369Y-79507411D01*
X125962393Y-79507409D01*
X125964349Y-79507115D01*
X125965132Y-79507059D01*
X126056112Y-79507747D01*
X128928043Y-79503285D01*
X128928081Y-79503285D01*
X128928562Y-79503285D01*
X128928766Y-79503289D01*
G37*
G36*
X183214481Y-79503289D02*
G01*
X183214987Y-79503308D01*
X183214993Y-79503309D01*
X183311497Y-79507100D01*
X183312660Y-79507118D01*
X183320581Y-79507059D01*
X183321363Y-79507115D01*
X183323330Y-79507410D01*
X183323361Y-79507413D01*
X183323365Y-79507414D01*
X183326120Y-79507674D01*
X183330669Y-79507853D01*
X183330682Y-79507854D01*
X183332171Y-79507913D01*
X183332756Y-79507971D01*
X183334214Y-79508201D01*
X183334225Y-79508203D01*
X183443342Y-79525485D01*
X183552136Y-79541870D01*
X183552157Y-79541875D01*
X183554116Y-79542170D01*
X183554879Y-79542347D01*
X183556783Y-79542949D01*
X183556790Y-79542951D01*
X183558158Y-79543383D01*
X183561828Y-79544250D01*
X183563253Y-79544476D01*
X183563271Y-79544480D01*
X183565236Y-79544792D01*
X183565998Y-79544975D01*
X183567893Y-79545590D01*
X183567894Y-79545591D01*
X183672532Y-79579589D01*
X183777410Y-79612788D01*
X183777414Y-79612789D01*
X183779282Y-79613381D01*
X183779997Y-79613670D01*
X183781751Y-79614541D01*
X183781754Y-79614542D01*
X183783202Y-79615261D01*
X183786646Y-79616667D01*
X183787955Y-79617092D01*
X183787968Y-79617097D01*
X183789855Y-79617711D01*
X183790580Y-79618011D01*
X183861551Y-79654172D01*
X184619463Y-80030577D01*
X185313138Y-80375080D01*
X185315901Y-80376452D01*
X185316087Y-80376549D01*
X185316552Y-80376805D01*
X185316560Y-80376809D01*
X185417972Y-80432595D01*
X185417975Y-80432597D01*
X185419284Y-80433317D01*
X185419782Y-80433631D01*
X185420989Y-80434494D01*
X185420997Y-80434499D01*
X185427315Y-80439015D01*
X185430385Y-80440896D01*
X185434466Y-80443016D01*
X185438594Y-80445159D01*
X185439260Y-80445574D01*
X185524730Y-80508669D01*
X185524779Y-80508705D01*
X185609630Y-80569374D01*
X185609635Y-80569378D01*
X185611250Y-80570533D01*
X185611850Y-80571038D01*
X185613266Y-80572433D01*
X185613272Y-80572438D01*
X185618440Y-80577528D01*
X185621175Y-80579864D01*
X185628629Y-80585367D01*
X185629221Y-80585881D01*
X185703827Y-80661628D01*
X185779547Y-80736207D01*
X185780061Y-80736799D01*
X185785560Y-80744249D01*
X185787890Y-80746976D01*
X185794390Y-80753576D01*
X185794895Y-80754177D01*
X185856712Y-80840633D01*
X185919854Y-80926167D01*
X185920269Y-80926834D01*
X185921187Y-80928603D01*
X185924528Y-80935041D01*
X185926415Y-80938119D01*
X185930657Y-80944051D01*
X185930660Y-80944056D01*
X185931797Y-80945646D01*
X185932196Y-80946306D01*
X185990306Y-81061747D01*
X186028717Y-81135738D01*
X186029022Y-81136461D01*
X186029651Y-81138350D01*
X186030606Y-81141215D01*
X186032018Y-81144610D01*
X186703013Y-82477601D01*
X186703023Y-82477623D01*
X186703250Y-82478073D01*
X186703340Y-82478262D01*
X186703548Y-82478724D01*
X186703564Y-82478756D01*
X186743318Y-82566742D01*
X186743835Y-82567818D01*
X186745983Y-82572033D01*
X186747417Y-82574847D01*
X186747718Y-82575573D01*
X186748336Y-82577477D01*
X186748344Y-82577496D01*
X186749343Y-82580076D01*
X186750738Y-82583164D01*
X186751836Y-82585594D01*
X186752047Y-82586144D01*
X186784712Y-82689337D01*
X186785832Y-82692876D01*
X186796033Y-82724272D01*
X186820453Y-82799429D01*
X186820636Y-82800192D01*
X186821132Y-82803329D01*
X186821171Y-82803573D01*
X186822041Y-82807262D01*
X186823081Y-82810547D01*
X186823258Y-82811311D01*
X186839930Y-82922011D01*
X186857457Y-83032671D01*
X186857519Y-83033450D01*
X186857520Y-83036916D01*
X186857804Y-83040688D01*
X186858313Y-83044063D01*
X186858369Y-83044846D01*
X186857585Y-83148047D01*
X186858341Y-84453291D01*
X186858340Y-84453291D01*
X186858352Y-84473208D01*
X186858369Y-84473421D01*
X186858354Y-84475268D01*
X186862143Y-91008282D01*
X186862139Y-91008481D01*
X186857515Y-91126170D01*
X186857457Y-91126756D01*
X186820636Y-91359235D01*
X186820453Y-91359998D01*
X186747717Y-91583855D01*
X186747417Y-91584580D01*
X186640558Y-91794303D01*
X186640148Y-91794972D01*
X186501797Y-91985396D01*
X186501288Y-91985993D01*
X186334851Y-92152430D01*
X186334254Y-92152939D01*
X186143830Y-92291290D01*
X186143161Y-92291700D01*
X185933438Y-92398559D01*
X185932713Y-92398859D01*
X185708856Y-92471595D01*
X185708093Y-92471778D01*
X185475614Y-92508599D01*
X185474832Y-92508661D01*
X185472841Y-92508661D01*
X185241445Y-92508661D01*
X185239454Y-92508661D01*
X185238672Y-92508599D01*
X185006193Y-92471778D01*
X185005430Y-92471595D01*
X184781573Y-92398859D01*
X184780848Y-92398559D01*
X184660297Y-92337135D01*
X184636036Y-92337076D01*
X184601639Y-92354392D01*
X184601450Y-92354483D01*
X184512974Y-92394457D01*
X184511897Y-92394975D01*
X184504866Y-92398559D01*
X184504141Y-92398859D01*
X184502245Y-92399473D01*
X184502236Y-92399478D01*
X184499642Y-92400481D01*
X184497811Y-92401308D01*
X184494117Y-92402978D01*
X184493567Y-92403189D01*
X184386865Y-92436964D01*
X184307110Y-92462878D01*
X184280284Y-92471595D01*
X184279521Y-92471779D01*
X184276123Y-92472316D01*
X184272438Y-92473185D01*
X184269165Y-92474223D01*
X184268401Y-92474400D01*
X184157684Y-92491075D01*
X184157683Y-92491074D01*
X184157668Y-92491077D01*
X184115149Y-92497811D01*
X184047042Y-92508599D01*
X184046266Y-92508661D01*
X184042752Y-92508664D01*
X184039009Y-92508948D01*
X184035649Y-92509455D01*
X184034866Y-92509511D01*
X183940398Y-92508793D01*
X183265438Y-92509639D01*
X180357149Y-92513285D01*
X180356947Y-92513281D01*
X180318369Y-92511764D01*
X180259931Y-92509469D01*
X180258738Y-92509450D01*
X180257912Y-92509456D01*
X180250849Y-92509511D01*
X180250066Y-92509455D01*
X180248082Y-92509155D01*
X180248042Y-92509153D01*
X180245311Y-92508894D01*
X180239258Y-92508657D01*
X180238672Y-92508599D01*
X180237195Y-92508365D01*
X180237194Y-92508365D01*
X180128102Y-92491086D01*
X180128087Y-92491083D01*
X180128087Y-92491084D01*
X180017313Y-92474401D01*
X180016549Y-92474224D01*
X180013274Y-92473186D01*
X180009586Y-92472315D01*
X180006193Y-92471779D01*
X180005430Y-92471595D01*
X179968199Y-92459497D01*
X179898995Y-92437012D01*
X179792147Y-92403190D01*
X179791432Y-92402901D01*
X179788221Y-92401306D01*
X179784764Y-92399896D01*
X179784132Y-92399690D01*
X179781573Y-92398859D01*
X179780848Y-92398559D01*
X179709904Y-92362411D01*
X178255527Y-91640119D01*
X178255341Y-91640022D01*
X178152145Y-91583254D01*
X178151647Y-91582940D01*
X178150430Y-91582070D01*
X178150416Y-91582061D01*
X178144116Y-91577557D01*
X178141043Y-91575674D01*
X178136436Y-91573282D01*
X178132833Y-91571412D01*
X178132167Y-91570997D01*
X178046626Y-91507850D01*
X178046626Y-91507849D01*
X177961797Y-91447197D01*
X177961793Y-91447194D01*
X177960178Y-91446039D01*
X177959577Y-91445534D01*
X177952977Y-91439034D01*
X177950249Y-91436703D01*
X177942799Y-91431204D01*
X177942207Y-91430690D01*
X177867629Y-91354971D01*
X177791882Y-91280365D01*
X177791368Y-91279773D01*
X177785865Y-91272319D01*
X177783529Y-91269584D01*
X177778438Y-91264415D01*
X177778435Y-91264411D01*
X177777038Y-91262993D01*
X177776533Y-91262393D01*
X177775378Y-91260778D01*
X177775374Y-91260773D01*
X177714709Y-91175928D01*
X177652761Y-91092012D01*
X177652759Y-91092009D01*
X177651575Y-91090405D01*
X177651160Y-91089739D01*
X177649021Y-91085620D01*
X177646896Y-91081528D01*
X177645016Y-91078458D01*
X177640765Y-91072513D01*
X177640757Y-91072500D01*
X177639631Y-91070925D01*
X177639232Y-91070265D01*
X177638358Y-91068529D01*
X177638352Y-91068519D01*
X177581092Y-90954766D01*
X177543634Y-90882610D01*
X177542712Y-90880834D01*
X177542407Y-90880111D01*
X177541779Y-90878227D01*
X177541773Y-90878213D01*
X177540818Y-90875348D01*
X177539408Y-90871957D01*
X176868417Y-89538972D01*
X176868406Y-89538949D01*
X176868178Y-89538496D01*
X176868088Y-89538307D01*
X176828117Y-89449842D01*
X176827602Y-89448769D01*
X176824920Y-89443506D01*
X176824011Y-89441723D01*
X176823711Y-89440999D01*
X176823094Y-89439102D01*
X176823080Y-89439068D01*
X176823078Y-89439060D01*
X176822080Y-89436484D01*
X176820207Y-89432339D01*
X176820203Y-89432330D01*
X176819591Y-89430974D01*
X176819381Y-89430425D01*
X176817055Y-89423079D01*
X176785589Y-89323675D01*
X176751591Y-89219037D01*
X176751590Y-89219036D01*
X176750975Y-89217141D01*
X176750792Y-89216379D01*
X176750480Y-89214414D01*
X176750476Y-89214396D01*
X176750250Y-89212971D01*
X176749383Y-89209301D01*
X176748951Y-89207933D01*
X176748949Y-89207926D01*
X176748347Y-89206022D01*
X176748170Y-89205259D01*
X176747875Y-89203300D01*
X176747870Y-89203279D01*
X176731485Y-89094485D01*
X176714276Y-88985826D01*
X176714275Y-88985823D01*
X176713971Y-88983899D01*
X176713909Y-88983132D01*
X176713902Y-88981190D01*
X176713901Y-88981166D01*
X176713896Y-88979521D01*
X176713614Y-88975830D01*
X176713412Y-88974486D01*
X176713411Y-88974472D01*
X176713115Y-88972506D01*
X176713059Y-88971724D01*
X176713644Y-88894665D01*
X176713345Y-88794561D01*
X176710378Y-87802501D01*
X179716106Y-87802501D01*
X179718220Y-88509439D01*
X179720969Y-88520937D01*
X180046619Y-89167872D01*
X180058308Y-89179498D01*
X180248831Y-89274118D01*
X180712947Y-89504614D01*
X180724428Y-89507300D01*
X182245035Y-89505394D01*
X183573771Y-89503728D01*
X183585314Y-89500979D01*
X183840632Y-89372458D01*
X183855735Y-89347931D01*
X183855256Y-88522494D01*
X183854271Y-86824396D01*
X183824473Y-86794653D01*
X180711939Y-86798554D01*
X180700397Y-86801304D01*
X180054696Y-87126333D01*
X180043070Y-87138022D01*
X180008407Y-87207818D01*
X179718791Y-87790975D01*
X179716106Y-87802501D01*
X176710378Y-87802501D01*
X176709286Y-87437422D01*
X176709286Y-87437391D01*
X176709285Y-87436872D01*
X176709289Y-87436661D01*
X176709309Y-87436139D01*
X176709310Y-87436112D01*
X176713100Y-87339643D01*
X176713118Y-87338479D01*
X176713059Y-87330561D01*
X176713115Y-87329779D01*
X176713410Y-87327810D01*
X176713414Y-87327765D01*
X176713417Y-87327749D01*
X176713674Y-87325009D01*
X176713852Y-87320475D01*
X176713854Y-87320446D01*
X176713913Y-87318971D01*
X176713971Y-87318386D01*
X176714201Y-87316931D01*
X176714203Y-87316915D01*
X176731482Y-87207818D01*
X176747871Y-87098999D01*
X176747876Y-87098976D01*
X176748170Y-87097026D01*
X176748347Y-87096263D01*
X176748945Y-87094369D01*
X176748948Y-87094360D01*
X176749385Y-87092977D01*
X176750250Y-87089311D01*
X176750476Y-87087884D01*
X176750482Y-87087857D01*
X176750792Y-87085906D01*
X176750975Y-87085144D01*
X176751590Y-87083250D01*
X176785589Y-86978608D01*
X176818788Y-86873732D01*
X176818789Y-86873727D01*
X176819381Y-86871860D01*
X176819670Y-86871146D01*
X176820537Y-86869397D01*
X176820543Y-86869385D01*
X176821264Y-86867932D01*
X176822665Y-86864500D01*
X176823090Y-86863190D01*
X176823099Y-86863167D01*
X176823711Y-86861286D01*
X176824011Y-86860562D01*
X176855605Y-86798554D01*
X176860170Y-86789594D01*
X177582213Y-85335721D01*
X177582225Y-85335697D01*
X177582452Y-85335241D01*
X177582549Y-85335055D01*
X177582794Y-85334608D01*
X177582809Y-85334581D01*
X177638593Y-85233173D01*
X177638597Y-85233165D01*
X177639317Y-85231858D01*
X177639630Y-85231360D01*
X177645021Y-85223817D01*
X177646895Y-85220759D01*
X177650239Y-85214320D01*
X177650243Y-85214313D01*
X177651161Y-85212546D01*
X177651575Y-85211880D01*
X177714666Y-85126413D01*
X177775372Y-85041513D01*
X177775384Y-85041497D01*
X177776533Y-85039892D01*
X177777037Y-85039292D01*
X177778426Y-85037880D01*
X177778434Y-85037872D01*
X177783534Y-85032693D01*
X177785870Y-85029958D01*
X177790185Y-85024114D01*
X177790192Y-85024105D01*
X177791369Y-85022512D01*
X177791882Y-85021920D01*
X177793298Y-85020524D01*
X177793307Y-85020515D01*
X177867628Y-84947311D01*
X177940802Y-84873020D01*
X177940811Y-84873011D01*
X177942207Y-84871595D01*
X177942799Y-84871082D01*
X177944388Y-84869908D01*
X177944405Y-84869894D01*
X177950241Y-84865586D01*
X177952976Y-84863250D01*
X177958148Y-84858156D01*
X177958162Y-84858143D01*
X177959578Y-84856750D01*
X177960178Y-84856246D01*
X177961795Y-84855089D01*
X177961808Y-84855079D01*
X178046671Y-84794401D01*
X178060025Y-84784543D01*
X178132167Y-84731288D01*
X178132833Y-84730873D01*
X178134597Y-84729956D01*
X178134602Y-84729954D01*
X178141052Y-84726605D01*
X178144119Y-84724726D01*
X178150057Y-84720481D01*
X178150062Y-84720477D01*
X178151647Y-84719345D01*
X178152307Y-84718946D01*
X178154048Y-84718069D01*
X178154054Y-84718066D01*
X178267705Y-84660856D01*
X178339966Y-84623344D01*
X178339974Y-84623340D01*
X178341738Y-84622425D01*
X178342461Y-84622120D01*
X178344336Y-84621494D01*
X178344357Y-84621486D01*
X178347238Y-84620525D01*
X178350621Y-84619117D01*
X179683610Y-83948126D01*
X179683669Y-83948097D01*
X179684076Y-83947893D01*
X179684265Y-83947803D01*
X179684680Y-83947615D01*
X179684746Y-83947584D01*
X179772736Y-83907826D01*
X179773804Y-83907313D01*
X179779071Y-83904631D01*
X179779075Y-83904629D01*
X179780849Y-83903726D01*
X179781573Y-83903426D01*
X179783467Y-83902809D01*
X179783496Y-83902798D01*
X179783509Y-83902794D01*
X179786073Y-83901799D01*
X179791597Y-83899305D01*
X179792147Y-83899095D01*
X179793567Y-83898645D01*
X179793584Y-83898639D01*
X179899014Y-83865265D01*
X180003532Y-83831306D01*
X180003540Y-83831304D01*
X180005430Y-83830690D01*
X180006192Y-83830507D01*
X180008157Y-83830195D01*
X180008179Y-83830190D01*
X180009586Y-83829967D01*
X180013256Y-83829101D01*
X180014640Y-83828663D01*
X180014660Y-83828658D01*
X180016549Y-83828061D01*
X180017313Y-83827884D01*
X180019263Y-83827590D01*
X180019286Y-83827585D01*
X180128123Y-83811194D01*
X180236717Y-83793995D01*
X180236724Y-83793994D01*
X180238672Y-83793686D01*
X180239447Y-83793624D01*
X180241431Y-83793621D01*
X180241445Y-83793620D01*
X180242964Y-83793617D01*
X180246689Y-83793336D01*
X180248074Y-83793128D01*
X180248094Y-83793126D01*
X180250067Y-83792830D01*
X180250849Y-83792774D01*
X180345314Y-83793489D01*
X180952472Y-83792729D01*
X183573770Y-83789443D01*
X183585313Y-83786694D01*
X183837320Y-83659840D01*
X183852423Y-83635313D01*
X183852404Y-83602860D01*
X183852347Y-83505483D01*
X183849598Y-83493924D01*
X183524807Y-82848696D01*
X183513118Y-82837070D01*
X182858773Y-82512101D01*
X182847283Y-82509414D01*
X181727142Y-82511154D01*
X180712146Y-82512732D01*
X180700613Y-82515481D01*
X180564025Y-82584236D01*
X179601639Y-83068678D01*
X179601450Y-83068768D01*
X179494118Y-83117264D01*
X179493568Y-83117475D01*
X179269166Y-83188509D01*
X179268402Y-83188686D01*
X179266430Y-83188982D01*
X179266426Y-83188984D01*
X179037623Y-83223444D01*
X179037621Y-83223444D01*
X179035650Y-83223741D01*
X179034867Y-83223797D01*
X178799496Y-83222010D01*
X178798714Y-83221942D01*
X178566521Y-83183358D01*
X178565760Y-83183169D01*
X178563863Y-83182536D01*
X178563860Y-83182536D01*
X178344361Y-83109370D01*
X178344353Y-83109366D01*
X178342461Y-83108736D01*
X178341738Y-83108431D01*
X178132833Y-82999983D01*
X178132167Y-82999568D01*
X177942799Y-82859775D01*
X177942207Y-82859261D01*
X177777038Y-82691565D01*
X177776533Y-82690964D01*
X177775373Y-82689342D01*
X177775369Y-82689337D01*
X177670415Y-82542550D01*
X177639631Y-82499496D01*
X177639226Y-82498824D01*
X177638332Y-82497037D01*
X177638330Y-82497033D01*
X177534852Y-82290075D01*
X177533962Y-82288295D01*
X177533667Y-82287568D01*
X177462633Y-82063166D01*
X177462456Y-82062402D01*
X177462160Y-82060443D01*
X177462157Y-82060426D01*
X177427697Y-81831623D01*
X177427695Y-81831608D01*
X177427401Y-81829650D01*
X177427345Y-81828867D01*
X177429132Y-81593496D01*
X177429200Y-81592714D01*
X177429526Y-81590749D01*
X177429527Y-81590743D01*
X177467456Y-81362489D01*
X177467458Y-81362477D01*
X177467784Y-81360521D01*
X177467973Y-81359760D01*
X177468601Y-81357875D01*
X177468605Y-81357860D01*
X177541771Y-81138361D01*
X177541778Y-81138342D01*
X177542406Y-81136461D01*
X177542711Y-81135738D01*
X177543633Y-81133961D01*
X177650236Y-80928609D01*
X177650242Y-80928599D01*
X177651159Y-80926833D01*
X177651574Y-80926167D01*
X177652760Y-80924560D01*
X177652764Y-80924554D01*
X177790179Y-80738407D01*
X177790185Y-80738399D01*
X177791367Y-80736799D01*
X177791881Y-80736207D01*
X177793309Y-80734801D01*
X177943061Y-80587305D01*
X177959577Y-80571038D01*
X177960178Y-80570533D01*
X177961792Y-80569378D01*
X177961804Y-80569369D01*
X178150053Y-80434769D01*
X178150062Y-80434763D01*
X178151646Y-80433631D01*
X178152306Y-80433232D01*
X178154041Y-80432358D01*
X178154057Y-80432349D01*
X179683598Y-79662417D01*
X179683640Y-79662396D01*
X179684075Y-79662178D01*
X179684264Y-79662088D01*
X179684695Y-79661892D01*
X179684727Y-79661878D01*
X179772710Y-79622124D01*
X179773779Y-79621611D01*
X179779064Y-79618918D01*
X179779081Y-79618910D01*
X179780848Y-79618011D01*
X179781572Y-79617711D01*
X179783467Y-79617094D01*
X179783499Y-79617081D01*
X179783523Y-79617074D01*
X179786083Y-79616081D01*
X179787897Y-79615262D01*
X179791597Y-79613591D01*
X179792146Y-79613381D01*
X179794019Y-79612788D01*
X179898894Y-79579589D01*
X180003536Y-79545590D01*
X180003540Y-79545588D01*
X180005430Y-79544975D01*
X180006192Y-79544792D01*
X180008143Y-79544482D01*
X180008170Y-79544476D01*
X180009597Y-79544250D01*
X180013263Y-79543385D01*
X180014646Y-79542948D01*
X180014655Y-79542945D01*
X180016549Y-79542347D01*
X180017312Y-79542170D01*
X180019262Y-79541876D01*
X180019285Y-79541871D01*
X180128104Y-79525482D01*
X180236727Y-79508278D01*
X180236740Y-79508276D01*
X180238672Y-79507971D01*
X180239446Y-79507909D01*
X180241421Y-79507905D01*
X180241430Y-79507905D01*
X180242966Y-79507902D01*
X180246697Y-79507620D01*
X180248084Y-79507411D01*
X180248108Y-79507409D01*
X180250064Y-79507115D01*
X180250847Y-79507059D01*
X180341827Y-79507747D01*
X183213758Y-79503285D01*
X183213796Y-79503285D01*
X183214277Y-79503285D01*
X183214481Y-79503289D01*
G37*
G36*
X192618471Y-74507971D02*
G01*
X192620424Y-74508280D01*
X192620432Y-74508281D01*
X192848989Y-74544481D01*
X192848993Y-74544482D01*
X192850950Y-74544792D01*
X192851713Y-74544975D01*
X192957744Y-74579426D01*
X193073678Y-74617096D01*
X193073680Y-74617097D01*
X193075570Y-74617711D01*
X193076295Y-74618011D01*
X193078067Y-74618914D01*
X193078072Y-74618916D01*
X193284231Y-74723959D01*
X193284235Y-74723961D01*
X193286018Y-74724870D01*
X193286687Y-74725280D01*
X193288301Y-74726453D01*
X193288308Y-74726457D01*
X193454482Y-74847190D01*
X193477111Y-74863631D01*
X193477708Y-74864140D01*
X193644145Y-75030577D01*
X193644654Y-75031174D01*
X193783005Y-75221598D01*
X193783415Y-75222267D01*
X193890274Y-75431990D01*
X193890574Y-75432715D01*
X193963310Y-75656572D01*
X193963493Y-75657335D01*
X194000314Y-75889814D01*
X194000376Y-75890594D01*
X194001652Y-79475152D01*
X194031436Y-79504902D01*
X196070897Y-79503285D01*
X196070917Y-79503285D01*
X196071425Y-79503285D01*
X196071625Y-79503289D01*
X196072122Y-79503308D01*
X196072146Y-79503309D01*
X196187826Y-79507854D01*
X196187835Y-79507854D01*
X196189314Y-79507913D01*
X196189900Y-79507971D01*
X196191364Y-79508202D01*
X196191365Y-79508203D01*
X196420418Y-79544481D01*
X196420422Y-79544482D01*
X196422379Y-79544792D01*
X196423142Y-79544975D01*
X196529173Y-79579426D01*
X196645107Y-79617096D01*
X196645109Y-79617097D01*
X196646999Y-79617711D01*
X196647724Y-79618011D01*
X196649496Y-79618914D01*
X196649501Y-79618916D01*
X196855660Y-79723959D01*
X196855664Y-79723961D01*
X196857447Y-79724870D01*
X196858116Y-79725280D01*
X196859730Y-79726453D01*
X196859737Y-79726457D01*
X197025911Y-79847190D01*
X197048540Y-79863631D01*
X197049137Y-79864140D01*
X197215574Y-80030577D01*
X197216083Y-80031174D01*
X197354434Y-80221598D01*
X197354844Y-80222267D01*
X197461703Y-80431990D01*
X197462003Y-80432715D01*
X197534739Y-80656572D01*
X197534922Y-80657335D01*
X197571743Y-80889814D01*
X197571805Y-80890596D01*
X197571805Y-81125974D01*
X197571743Y-81126756D01*
X197534922Y-81359235D01*
X197534739Y-81359998D01*
X197462003Y-81583855D01*
X197461703Y-81584580D01*
X197354844Y-81794303D01*
X197354434Y-81794972D01*
X197216083Y-81985396D01*
X197215574Y-81985993D01*
X197049137Y-82152430D01*
X197048540Y-82152939D01*
X196858116Y-82291290D01*
X196857447Y-82291700D01*
X196647724Y-82398559D01*
X196646999Y-82398859D01*
X196423142Y-82471595D01*
X196422379Y-82471778D01*
X196189900Y-82508599D01*
X196189122Y-82508661D01*
X194032475Y-82510370D01*
X194002745Y-82540135D01*
X194004873Y-88511234D01*
X194007622Y-88522801D01*
X194332334Y-89167872D01*
X194344023Y-89179498D01*
X194548268Y-89280933D01*
X194996975Y-89503776D01*
X195008501Y-89506462D01*
X196070864Y-89503286D01*
X196070894Y-89503286D01*
X196071414Y-89503285D01*
X196071625Y-89503289D01*
X196072147Y-89503309D01*
X196072173Y-89503310D01*
X196187826Y-89507854D01*
X196187835Y-89507854D01*
X196189314Y-89507913D01*
X196189900Y-89507971D01*
X196191364Y-89508202D01*
X196191365Y-89508203D01*
X196420418Y-89544481D01*
X196420422Y-89544482D01*
X196422379Y-89544792D01*
X196423142Y-89544975D01*
X196529173Y-89579426D01*
X196645107Y-89617096D01*
X196645109Y-89617097D01*
X196646999Y-89617711D01*
X196647724Y-89618011D01*
X196649496Y-89618914D01*
X196649501Y-89618916D01*
X196855660Y-89723959D01*
X196855664Y-89723961D01*
X196857447Y-89724870D01*
X196858116Y-89725280D01*
X196859730Y-89726453D01*
X196859737Y-89726457D01*
X197025911Y-89847190D01*
X197048540Y-89863631D01*
X197049137Y-89864140D01*
X197215574Y-90030577D01*
X197216083Y-90031174D01*
X197217256Y-90032789D01*
X197349148Y-90214323D01*
X197354434Y-90221598D01*
X197354844Y-90222267D01*
X197461703Y-90431990D01*
X197462003Y-90432715D01*
X197534739Y-90656572D01*
X197534922Y-90657335D01*
X197571743Y-90889814D01*
X197571805Y-90890596D01*
X197571805Y-91125974D01*
X197571743Y-91126756D01*
X197534922Y-91359235D01*
X197534739Y-91359998D01*
X197462003Y-91583855D01*
X197461703Y-91584580D01*
X197354844Y-91794303D01*
X197354434Y-91794972D01*
X197216083Y-91985396D01*
X197215574Y-91985993D01*
X197049137Y-92152430D01*
X197048540Y-92152939D01*
X196858116Y-92291290D01*
X196857447Y-92291700D01*
X196647724Y-92398559D01*
X196646999Y-92398859D01*
X196423142Y-92471595D01*
X196422379Y-92471778D01*
X196189900Y-92508599D01*
X196189133Y-92508661D01*
X194642872Y-92513285D01*
X194642661Y-92513281D01*
X194613110Y-92512119D01*
X194545645Y-92509469D01*
X194544452Y-92509450D01*
X194543625Y-92509456D01*
X194536562Y-92509511D01*
X194535779Y-92509455D01*
X194533795Y-92509155D01*
X194533755Y-92509153D01*
X194531024Y-92508894D01*
X194524972Y-92508657D01*
X194524386Y-92508599D01*
X194522909Y-92508365D01*
X194522908Y-92508365D01*
X194413758Y-92491077D01*
X194413743Y-92491074D01*
X194413743Y-92491075D01*
X194303027Y-92474400D01*
X194302263Y-92474223D01*
X194298998Y-92473188D01*
X194295307Y-92472316D01*
X194291907Y-92471779D01*
X194291144Y-92471595D01*
X194252429Y-92459015D01*
X194184672Y-92437000D01*
X194125019Y-92418116D01*
X194077860Y-92403189D01*
X194077145Y-92402900D01*
X194073938Y-92401307D01*
X194070482Y-92399897D01*
X194069185Y-92399476D01*
X194069181Y-92399474D01*
X194067287Y-92398859D01*
X194066562Y-92398559D01*
X193995579Y-92362391D01*
X192541242Y-91640119D01*
X192541056Y-91640022D01*
X192437860Y-91583254D01*
X192437362Y-91582940D01*
X192436145Y-91582070D01*
X192436131Y-91582061D01*
X192429831Y-91577557D01*
X192426758Y-91575674D01*
X192422151Y-91573282D01*
X192418548Y-91571412D01*
X192417882Y-91570997D01*
X192332341Y-91507850D01*
X192332341Y-91507849D01*
X192247512Y-91447197D01*
X192247508Y-91447194D01*
X192245893Y-91446039D01*
X192245292Y-91445534D01*
X192238692Y-91439034D01*
X192235964Y-91436703D01*
X192228514Y-91431204D01*
X192227922Y-91430690D01*
X192153344Y-91354971D01*
X192077597Y-91280365D01*
X192077083Y-91279773D01*
X192071580Y-91272319D01*
X192069244Y-91269584D01*
X192064153Y-91264415D01*
X192064150Y-91264411D01*
X192062753Y-91262993D01*
X192062248Y-91262393D01*
X192061093Y-91260778D01*
X192061089Y-91260773D01*
X192000429Y-91175935D01*
X192000423Y-91175928D01*
X191965572Y-91128717D01*
X191938474Y-91092010D01*
X191938470Y-91092005D01*
X191937289Y-91090404D01*
X191936874Y-91089738D01*
X191932610Y-91081524D01*
X191930728Y-91078453D01*
X191926488Y-91072523D01*
X191926482Y-91072513D01*
X191925346Y-91070925D01*
X191924947Y-91070265D01*
X191924066Y-91068515D01*
X191924060Y-91068505D01*
X191866822Y-90954797D01*
X191829348Y-90882610D01*
X191828426Y-90880833D01*
X191828121Y-90880110D01*
X191827493Y-90878226D01*
X191827487Y-90878212D01*
X191826531Y-90875344D01*
X191825121Y-90871953D01*
X191154132Y-89538972D01*
X191154121Y-89538949D01*
X191153893Y-89538496D01*
X191153803Y-89538307D01*
X191113832Y-89449842D01*
X191113317Y-89448769D01*
X191110635Y-89443506D01*
X191109726Y-89441723D01*
X191109426Y-89440999D01*
X191108809Y-89439102D01*
X191108795Y-89439068D01*
X191108793Y-89439060D01*
X191107795Y-89436484D01*
X191105922Y-89432339D01*
X191105918Y-89432330D01*
X191105306Y-89430974D01*
X191105096Y-89430425D01*
X191102770Y-89423079D01*
X191071304Y-89323675D01*
X191037306Y-89219037D01*
X191037305Y-89219036D01*
X191036690Y-89217141D01*
X191036507Y-89216379D01*
X191036195Y-89214414D01*
X191036191Y-89214396D01*
X191035965Y-89212971D01*
X191035098Y-89209301D01*
X191034666Y-89207933D01*
X191034664Y-89207926D01*
X191034062Y-89206022D01*
X191033885Y-89205259D01*
X191033590Y-89203300D01*
X191033585Y-89203279D01*
X191017200Y-89094485D01*
X190999995Y-88985855D01*
X190999994Y-88985845D01*
X190999686Y-88983899D01*
X190999624Y-88983120D01*
X190999622Y-88981144D01*
X190999622Y-88981133D01*
X190999622Y-88979658D01*
X190999339Y-88975892D01*
X190999127Y-88974484D01*
X190999126Y-88974477D01*
X190998830Y-88972506D01*
X190998774Y-88971724D01*
X190999324Y-88899306D01*
X190999581Y-88865365D01*
X190997327Y-82542550D01*
X190967544Y-82512800D01*
X190747712Y-82512974D01*
X190357147Y-82513285D01*
X190356947Y-82513281D01*
X190239258Y-82508657D01*
X190238672Y-82508599D01*
X190006193Y-82471778D01*
X190005430Y-82471595D01*
X189781573Y-82398859D01*
X189780848Y-82398559D01*
X189571125Y-82291700D01*
X189570456Y-82291290D01*
X189568837Y-82290114D01*
X189568834Y-82290112D01*
X189465398Y-82214961D01*
X189380032Y-82152939D01*
X189379435Y-82152430D01*
X189212998Y-81985993D01*
X189212489Y-81985396D01*
X189122320Y-81861289D01*
X189075315Y-81796593D01*
X189075311Y-81796586D01*
X189074138Y-81794972D01*
X189073728Y-81794303D01*
X189006490Y-81662342D01*
X188967774Y-81586357D01*
X188967772Y-81586352D01*
X188966869Y-81584580D01*
X188966569Y-81583855D01*
X188893833Y-81359998D01*
X188893650Y-81359235D01*
X188893339Y-81357274D01*
X188857139Y-81128717D01*
X188857138Y-81128709D01*
X188856829Y-81126756D01*
X188856767Y-81125974D01*
X188856767Y-80890596D01*
X188856829Y-80889814D01*
X188857138Y-80887861D01*
X188857139Y-80887852D01*
X188893339Y-80659295D01*
X188893340Y-80659288D01*
X188893650Y-80657335D01*
X188893833Y-80656572D01*
X188916802Y-80585881D01*
X188965954Y-80434606D01*
X188965956Y-80434599D01*
X188966569Y-80432715D01*
X188966869Y-80431990D01*
X188967769Y-80430221D01*
X188967774Y-80430212D01*
X189072817Y-80224053D01*
X189072822Y-80224043D01*
X189073728Y-80222267D01*
X189074138Y-80221598D01*
X189075307Y-80219988D01*
X189075315Y-80219976D01*
X189211315Y-80032789D01*
X189211319Y-80032784D01*
X189212489Y-80031174D01*
X189212998Y-80030577D01*
X189214408Y-80029166D01*
X189214414Y-80029160D01*
X189378018Y-79865556D01*
X189378024Y-79865550D01*
X189379435Y-79864140D01*
X189380032Y-79863631D01*
X189381642Y-79862461D01*
X189381647Y-79862457D01*
X189568834Y-79726457D01*
X189568846Y-79726449D01*
X189570456Y-79725280D01*
X189571125Y-79724870D01*
X189572901Y-79723964D01*
X189572911Y-79723959D01*
X189779070Y-79618916D01*
X189779079Y-79618911D01*
X189780848Y-79618011D01*
X189781573Y-79617711D01*
X189783457Y-79617098D01*
X189783464Y-79617096D01*
X190003540Y-79545589D01*
X190003541Y-79545588D01*
X190005430Y-79544975D01*
X190006193Y-79544792D01*
X190008146Y-79544482D01*
X190008153Y-79544481D01*
X190236713Y-79508281D01*
X190236716Y-79508280D01*
X190238672Y-79507971D01*
X190239450Y-79507909D01*
X190241432Y-79507907D01*
X190241438Y-79507907D01*
X190640774Y-79507589D01*
X190966504Y-79507330D01*
X190996235Y-79477566D01*
X190995000Y-76008769D01*
X190995000Y-76008760D01*
X190995000Y-76008287D01*
X190995004Y-76008089D01*
X190995021Y-76007648D01*
X190995022Y-76007612D01*
X190999569Y-75891887D01*
X190999569Y-75891877D01*
X190999628Y-75890400D01*
X190999686Y-75889814D01*
X190999997Y-75887848D01*
X191036196Y-75659295D01*
X191036197Y-75659288D01*
X191036507Y-75657335D01*
X191036690Y-75656572D01*
X191037304Y-75654682D01*
X191108811Y-75434606D01*
X191108813Y-75434599D01*
X191109426Y-75432715D01*
X191109726Y-75431990D01*
X191110626Y-75430221D01*
X191110631Y-75430212D01*
X191215674Y-75224053D01*
X191215679Y-75224043D01*
X191216585Y-75222267D01*
X191216995Y-75221598D01*
X191218164Y-75219988D01*
X191218172Y-75219976D01*
X191354172Y-75032789D01*
X191354176Y-75032784D01*
X191355346Y-75031174D01*
X191355855Y-75030577D01*
X191357265Y-75029166D01*
X191357271Y-75029160D01*
X191520875Y-74865556D01*
X191520881Y-74865550D01*
X191522292Y-74864140D01*
X191522889Y-74863631D01*
X191524499Y-74862461D01*
X191524504Y-74862457D01*
X191711691Y-74726457D01*
X191711703Y-74726449D01*
X191713313Y-74725280D01*
X191713982Y-74724870D01*
X191715758Y-74723964D01*
X191715768Y-74723959D01*
X191921927Y-74618916D01*
X191921936Y-74618911D01*
X191923705Y-74618011D01*
X191924430Y-74617711D01*
X191926314Y-74617098D01*
X191926321Y-74617096D01*
X192146397Y-74545589D01*
X192146398Y-74545588D01*
X192148287Y-74544975D01*
X192149050Y-74544792D01*
X192151003Y-74544482D01*
X192151010Y-74544481D01*
X192379567Y-74508281D01*
X192379576Y-74508280D01*
X192381529Y-74507971D01*
X192382311Y-74507909D01*
X192617689Y-74507909D01*
X192618471Y-74507971D01*
G37*
G36*
X205357339Y-79503289D02*
G01*
X205357845Y-79503308D01*
X205357851Y-79503309D01*
X205454355Y-79507100D01*
X205455518Y-79507118D01*
X205463439Y-79507059D01*
X205464221Y-79507115D01*
X205466188Y-79507410D01*
X205466219Y-79507413D01*
X205466223Y-79507414D01*
X205468978Y-79507674D01*
X205473527Y-79507853D01*
X205473540Y-79507854D01*
X205475029Y-79507913D01*
X205475614Y-79507971D01*
X205477072Y-79508201D01*
X205477083Y-79508203D01*
X205586200Y-79525485D01*
X205694994Y-79541870D01*
X205695015Y-79541875D01*
X205696974Y-79542170D01*
X205697737Y-79542347D01*
X205699641Y-79542949D01*
X205699648Y-79542951D01*
X205701016Y-79543383D01*
X205704686Y-79544250D01*
X205706111Y-79544476D01*
X205706129Y-79544480D01*
X205708094Y-79544792D01*
X205708856Y-79544975D01*
X205710751Y-79545590D01*
X205710752Y-79545591D01*
X205815390Y-79579589D01*
X205920268Y-79612788D01*
X205920272Y-79612789D01*
X205922140Y-79613381D01*
X205922855Y-79613670D01*
X205924609Y-79614541D01*
X205924612Y-79614542D01*
X205926060Y-79615261D01*
X205929504Y-79616667D01*
X205930813Y-79617092D01*
X205930826Y-79617097D01*
X205932713Y-79617711D01*
X205933438Y-79618011D01*
X206004409Y-79654172D01*
X206762321Y-80030577D01*
X207455996Y-80375080D01*
X207458759Y-80376452D01*
X207458945Y-80376549D01*
X207459410Y-80376805D01*
X207459418Y-80376809D01*
X207560830Y-80432595D01*
X207560833Y-80432597D01*
X207562142Y-80433317D01*
X207562640Y-80433631D01*
X207563847Y-80434494D01*
X207563855Y-80434499D01*
X207570173Y-80439015D01*
X207573243Y-80440896D01*
X207577324Y-80443016D01*
X207581452Y-80445159D01*
X207582118Y-80445574D01*
X207667588Y-80508669D01*
X207667637Y-80508705D01*
X207752488Y-80569374D01*
X207752493Y-80569378D01*
X207754108Y-80570533D01*
X207754708Y-80571038D01*
X207756124Y-80572433D01*
X207756130Y-80572438D01*
X207761298Y-80577528D01*
X207764033Y-80579864D01*
X207771487Y-80585367D01*
X207772079Y-80585881D01*
X207846685Y-80661628D01*
X207922405Y-80736207D01*
X207922919Y-80736799D01*
X207928418Y-80744249D01*
X207930748Y-80746976D01*
X207937248Y-80753576D01*
X207937753Y-80754177D01*
X207999570Y-80840633D01*
X208062712Y-80926167D01*
X208063127Y-80926834D01*
X208064045Y-80928603D01*
X208067386Y-80935041D01*
X208069273Y-80938119D01*
X208073515Y-80944051D01*
X208073518Y-80944056D01*
X208074655Y-80945646D01*
X208075054Y-80946306D01*
X208133164Y-81061747D01*
X208171575Y-81135738D01*
X208171880Y-81136461D01*
X208172509Y-81138350D01*
X208173464Y-81141215D01*
X208174876Y-81144610D01*
X208845871Y-82477601D01*
X208845881Y-82477623D01*
X208846108Y-82478073D01*
X208846198Y-82478262D01*
X208846406Y-82478724D01*
X208846422Y-82478756D01*
X208886176Y-82566742D01*
X208886693Y-82567818D01*
X208888841Y-82572033D01*
X208890275Y-82574847D01*
X208890576Y-82575573D01*
X208891194Y-82577477D01*
X208891202Y-82577496D01*
X208892201Y-82580076D01*
X208893596Y-82583164D01*
X208894694Y-82585594D01*
X208894905Y-82586144D01*
X208927570Y-82689337D01*
X208928690Y-82692876D01*
X208938891Y-82724272D01*
X208963311Y-82799429D01*
X208963494Y-82800192D01*
X208963990Y-82803329D01*
X208964029Y-82803573D01*
X208964899Y-82807262D01*
X208965939Y-82810547D01*
X208966116Y-82811311D01*
X208982788Y-82922011D01*
X209000315Y-83032671D01*
X209000377Y-83033438D01*
X209000382Y-83035393D01*
X209000388Y-83037032D01*
X209000672Y-83040749D01*
X209000834Y-83041833D01*
X209001171Y-83044063D01*
X209001227Y-83044846D01*
X209000641Y-83121957D01*
X209005001Y-84579699D01*
X209004997Y-84579910D01*
X209003794Y-84610503D01*
X209003362Y-84621498D01*
X209003364Y-84623521D01*
X209003701Y-84631892D01*
X209003901Y-84636834D01*
X209003871Y-84637619D01*
X209003638Y-84639604D01*
X209003638Y-84639605D01*
X209002269Y-84651267D01*
X209002115Y-84653222D01*
X209000373Y-84697599D01*
X209000315Y-84698185D01*
X209000081Y-84699657D01*
X209000081Y-84699665D01*
X208995072Y-84731288D01*
X208986636Y-84784543D01*
X208976450Y-84871393D01*
X208976298Y-84872163D01*
X208968588Y-84899608D01*
X208967953Y-84902504D01*
X208963494Y-84930664D01*
X208963311Y-84931427D01*
X208936294Y-85014574D01*
X208912644Y-85098770D01*
X208912373Y-85099507D01*
X208900458Y-85125420D01*
X208899386Y-85128163D01*
X208890575Y-85155284D01*
X208890275Y-85156009D01*
X208871025Y-85193787D01*
X208850579Y-85233915D01*
X208814054Y-85313366D01*
X208813671Y-85314051D01*
X208812563Y-85315712D01*
X208812563Y-85315713D01*
X208797855Y-85337773D01*
X208796356Y-85340335D01*
X208791599Y-85349669D01*
X208783416Y-85365732D01*
X208783006Y-85366401D01*
X208741168Y-85423983D01*
X208731620Y-85437126D01*
X208697308Y-85488591D01*
X208683107Y-85509895D01*
X208682622Y-85510512D01*
X208666963Y-85527484D01*
X208663293Y-85531464D01*
X208661411Y-85533760D01*
X208644655Y-85556825D01*
X208644146Y-85557422D01*
X208582292Y-85619274D01*
X208523028Y-85683522D01*
X208522452Y-85684055D01*
X208520887Y-85685291D01*
X208500089Y-85701721D01*
X208497871Y-85703695D01*
X208479123Y-85722444D01*
X208477709Y-85723858D01*
X208477112Y-85724368D01*
X208452541Y-85742218D01*
X208406355Y-85775775D01*
X208390989Y-85787914D01*
X208337760Y-85829969D01*
X208337108Y-85830406D01*
X208312245Y-85844362D01*
X208309754Y-85845959D01*
X208286688Y-85862719D01*
X208286019Y-85863129D01*
X208247096Y-85882960D01*
X208208104Y-85902828D01*
X208185395Y-85915576D01*
X208131863Y-85945631D01*
X208131150Y-85945960D01*
X208117087Y-85951164D01*
X208104422Y-85955851D01*
X208101702Y-85957042D01*
X208078074Y-85969082D01*
X208076296Y-85969988D01*
X208075571Y-85970288D01*
X208034506Y-85983630D01*
X207992410Y-85997308D01*
X207910407Y-86027659D01*
X207909655Y-86027872D01*
X207900005Y-86029807D01*
X207881540Y-86033513D01*
X207878683Y-86034261D01*
X207859470Y-86040503D01*
X207851714Y-86043024D01*
X207850951Y-86043207D01*
X207766820Y-86056531D01*
X201883885Y-87236941D01*
X201860874Y-87265051D01*
X201861294Y-87795139D01*
X201861852Y-88500122D01*
X201861861Y-88510938D01*
X201864610Y-88522494D01*
X202189477Y-89167872D01*
X202201166Y-89179498D01*
X202855511Y-89504467D01*
X202867001Y-89507154D01*
X203985567Y-89505415D01*
X205002140Y-89503835D01*
X205013672Y-89501087D01*
X205425409Y-89293830D01*
X206112176Y-88948130D01*
X206112198Y-88948119D01*
X206112648Y-88947893D01*
X206112837Y-88947803D01*
X206113297Y-88947595D01*
X206113312Y-88947588D01*
X206218808Y-88899920D01*
X206218821Y-88899914D01*
X206220169Y-88899306D01*
X206220719Y-88899095D01*
X206222134Y-88898646D01*
X206222150Y-88898641D01*
X206443220Y-88828662D01*
X206443228Y-88828659D01*
X206445121Y-88828061D01*
X206445885Y-88827884D01*
X206447846Y-88827588D01*
X206447849Y-88827588D01*
X206676674Y-88793125D01*
X206676683Y-88793124D01*
X206678638Y-88792830D01*
X206679421Y-88792774D01*
X206914791Y-88794561D01*
X206915573Y-88794629D01*
X206917538Y-88794955D01*
X206917543Y-88794956D01*
X207145797Y-88832885D01*
X207145806Y-88832887D01*
X207147766Y-88833213D01*
X207148527Y-88833402D01*
X207150414Y-88834031D01*
X207150426Y-88834034D01*
X207369925Y-88907200D01*
X207369939Y-88907206D01*
X207371826Y-88907835D01*
X207372549Y-88908140D01*
X207374325Y-88909062D01*
X207579677Y-89015665D01*
X207579681Y-89015668D01*
X207581454Y-89016588D01*
X207582120Y-89017003D01*
X207771488Y-89156797D01*
X207772080Y-89157311D01*
X207937249Y-89325006D01*
X207937754Y-89325607D01*
X208074656Y-89517076D01*
X208075061Y-89517748D01*
X208180325Y-89728276D01*
X208180620Y-89729003D01*
X208251654Y-89953406D01*
X208251831Y-89954170D01*
X208252127Y-89956140D01*
X208252130Y-89956150D01*
X208286588Y-90184946D01*
X208286588Y-90184953D01*
X208286885Y-90186922D01*
X208286941Y-90187705D01*
X208285155Y-90423076D01*
X208285087Y-90423858D01*
X208246502Y-90656051D01*
X208246313Y-90656812D01*
X208245680Y-90658710D01*
X208245680Y-90658711D01*
X208173468Y-90875348D01*
X208171880Y-90880110D01*
X208171575Y-90880833D01*
X208063127Y-91089738D01*
X208062712Y-91090404D01*
X207922918Y-91279773D01*
X207922404Y-91280365D01*
X207754709Y-91445534D01*
X207754108Y-91446039D01*
X207562639Y-91582940D01*
X207561979Y-91583339D01*
X207560227Y-91584220D01*
X207560227Y-91584221D01*
X206154755Y-92291700D01*
X206030211Y-92354392D01*
X206030022Y-92354483D01*
X205941546Y-92394457D01*
X205940469Y-92394975D01*
X205933438Y-92398559D01*
X205932713Y-92398859D01*
X205930817Y-92399473D01*
X205930808Y-92399478D01*
X205928214Y-92400481D01*
X205926383Y-92401308D01*
X205922689Y-92402978D01*
X205922139Y-92403189D01*
X205815437Y-92436964D01*
X205735682Y-92462878D01*
X205708856Y-92471595D01*
X205708093Y-92471779D01*
X205704695Y-92472316D01*
X205701010Y-92473185D01*
X205697737Y-92474223D01*
X205696973Y-92474400D01*
X205586256Y-92491075D01*
X205586255Y-92491074D01*
X205586240Y-92491077D01*
X205533185Y-92499479D01*
X205475614Y-92508599D01*
X205474839Y-92508661D01*
X205471320Y-92508665D01*
X205467564Y-92508950D01*
X205464222Y-92509455D01*
X205463438Y-92509511D01*
X205372455Y-92508820D01*
X204391653Y-92510344D01*
X202500009Y-92513285D01*
X202499805Y-92513281D01*
X202457852Y-92511632D01*
X202402789Y-92509469D01*
X202401596Y-92509450D01*
X202400770Y-92509456D01*
X202393707Y-92509511D01*
X202392924Y-92509455D01*
X202390940Y-92509155D01*
X202390900Y-92509153D01*
X202388169Y-92508894D01*
X202382116Y-92508657D01*
X202381530Y-92508599D01*
X202380053Y-92508365D01*
X202380052Y-92508365D01*
X202270960Y-92491086D01*
X202270945Y-92491083D01*
X202270945Y-92491084D01*
X202160171Y-92474401D01*
X202159407Y-92474224D01*
X202156132Y-92473186D01*
X202152444Y-92472315D01*
X202149051Y-92471779D01*
X202148288Y-92471595D01*
X202111057Y-92459497D01*
X202041853Y-92437012D01*
X201935005Y-92403190D01*
X201934290Y-92402901D01*
X201931079Y-92401306D01*
X201927622Y-92399896D01*
X201926990Y-92399690D01*
X201924431Y-92398859D01*
X201923706Y-92398559D01*
X201852762Y-92362411D01*
X200398385Y-91640119D01*
X200398199Y-91640022D01*
X200295003Y-91583254D01*
X200294505Y-91582940D01*
X200293288Y-91582070D01*
X200293274Y-91582061D01*
X200286974Y-91577557D01*
X200283901Y-91575674D01*
X200279294Y-91573282D01*
X200275691Y-91571412D01*
X200275025Y-91570997D01*
X200189484Y-91507850D01*
X200189484Y-91507849D01*
X200104655Y-91447197D01*
X200104651Y-91447194D01*
X200103036Y-91446039D01*
X200102435Y-91445534D01*
X200095835Y-91439034D01*
X200093107Y-91436703D01*
X200085657Y-91431204D01*
X200085065Y-91430690D01*
X200010487Y-91354971D01*
X199934740Y-91280365D01*
X199934226Y-91279773D01*
X199928723Y-91272319D01*
X199926387Y-91269584D01*
X199921296Y-91264415D01*
X199921293Y-91264411D01*
X199919896Y-91262993D01*
X199919391Y-91262393D01*
X199918236Y-91260778D01*
X199918232Y-91260773D01*
X199857567Y-91175928D01*
X199795619Y-91092012D01*
X199795617Y-91092009D01*
X199794433Y-91090405D01*
X199794018Y-91089739D01*
X199791879Y-91085620D01*
X199789754Y-91081528D01*
X199787874Y-91078458D01*
X199783623Y-91072513D01*
X199783615Y-91072500D01*
X199782489Y-91070925D01*
X199782090Y-91070265D01*
X199781216Y-91068529D01*
X199781210Y-91068519D01*
X199723950Y-90954766D01*
X199686492Y-90882610D01*
X199685570Y-90880834D01*
X199685265Y-90880111D01*
X199684637Y-90878227D01*
X199684631Y-90878213D01*
X199683676Y-90875348D01*
X199682266Y-90871957D01*
X199011275Y-89538972D01*
X199011264Y-89538949D01*
X199011036Y-89538496D01*
X199010946Y-89538307D01*
X198970975Y-89449842D01*
X198970460Y-89448769D01*
X198967778Y-89443506D01*
X198966869Y-89441723D01*
X198966569Y-89440999D01*
X198965952Y-89439102D01*
X198965938Y-89439068D01*
X198965936Y-89439060D01*
X198964938Y-89436484D01*
X198963065Y-89432339D01*
X198963061Y-89432330D01*
X198962449Y-89430974D01*
X198962239Y-89430425D01*
X198959913Y-89423079D01*
X198928447Y-89323675D01*
X198894449Y-89219037D01*
X198894448Y-89219036D01*
X198893833Y-89217141D01*
X198893650Y-89216379D01*
X198893338Y-89214414D01*
X198893334Y-89214396D01*
X198893108Y-89212971D01*
X198892241Y-89209301D01*
X198891809Y-89207933D01*
X198891807Y-89207926D01*
X198891205Y-89206022D01*
X198891028Y-89205259D01*
X198890733Y-89203300D01*
X198890728Y-89203279D01*
X198874343Y-89094485D01*
X198857139Y-88985860D01*
X198857138Y-88985852D01*
X198856829Y-88983899D01*
X198856767Y-88983121D01*
X198856765Y-88981133D01*
X198856764Y-88981125D01*
X198856763Y-88979632D01*
X198856481Y-88975887D01*
X198856269Y-88974480D01*
X198856268Y-88974466D01*
X198855973Y-88972506D01*
X198855917Y-88971724D01*
X198856393Y-88909062D01*
X198856677Y-88871496D01*
X198854384Y-85979496D01*
X198853323Y-85953161D01*
X198853323Y-85953154D01*
X198853243Y-85951164D01*
X198853273Y-85950381D01*
X198854180Y-85942637D01*
X198854353Y-85939662D01*
X198854049Y-85556825D01*
X198853508Y-84874086D01*
X198852434Y-83518866D01*
X201857903Y-83518866D01*
X201858395Y-84138782D01*
X201895599Y-84169238D01*
X205884689Y-83368828D01*
X205906718Y-83323598D01*
X205667665Y-82848696D01*
X205655976Y-82837070D01*
X205001631Y-82512101D01*
X204990141Y-82509414D01*
X203870000Y-82511154D01*
X202855004Y-82512732D01*
X202843471Y-82515481D01*
X202197555Y-82840619D01*
X202185929Y-82852308D01*
X201860590Y-83507396D01*
X201857903Y-83518866D01*
X198852434Y-83518866D01*
X198852143Y-83151674D01*
X198852143Y-83151653D01*
X198852143Y-83151146D01*
X198852147Y-83150946D01*
X198852166Y-83150449D01*
X198852167Y-83150424D01*
X198855958Y-83053928D01*
X198855976Y-83052764D01*
X198855917Y-83044846D01*
X198855973Y-83044064D01*
X198856268Y-83042095D01*
X198856272Y-83042050D01*
X198856275Y-83042034D01*
X198856532Y-83039294D01*
X198856710Y-83034760D01*
X198856712Y-83034731D01*
X198856771Y-83033256D01*
X198856829Y-83032671D01*
X198857059Y-83031216D01*
X198857061Y-83031200D01*
X198874340Y-82922103D01*
X198890729Y-82813284D01*
X198890734Y-82813261D01*
X198891028Y-82811311D01*
X198891205Y-82810548D01*
X198891803Y-82808654D01*
X198891806Y-82808645D01*
X198892243Y-82807262D01*
X198893108Y-82803596D01*
X198893334Y-82802169D01*
X198893340Y-82802142D01*
X198893650Y-82800191D01*
X198893833Y-82799429D01*
X198894445Y-82797542D01*
X198894448Y-82797534D01*
X198928440Y-82692913D01*
X198961646Y-82588016D01*
X198961647Y-82588011D01*
X198962239Y-82586144D01*
X198962528Y-82585430D01*
X198963395Y-82583681D01*
X198963401Y-82583669D01*
X198964123Y-82582214D01*
X198965524Y-82578782D01*
X198965948Y-82577477D01*
X198965954Y-82577461D01*
X198966569Y-82575571D01*
X198966869Y-82574847D01*
X198967768Y-82573081D01*
X198967775Y-82573066D01*
X199003028Y-82503877D01*
X199725071Y-81050006D01*
X199725083Y-81049982D01*
X199725310Y-81049526D01*
X199725407Y-81049340D01*
X199748360Y-81007614D01*
X199781450Y-80947460D01*
X199781458Y-80947446D01*
X199782175Y-80946144D01*
X199782489Y-80945646D01*
X199783352Y-80944437D01*
X199783364Y-80944420D01*
X199787872Y-80938115D01*
X199789753Y-80935046D01*
X199789756Y-80935041D01*
X199790646Y-80933324D01*
X199793096Y-80928606D01*
X199793098Y-80928601D01*
X199794017Y-80926833D01*
X199794432Y-80926167D01*
X199857520Y-80840704D01*
X199918230Y-80755798D01*
X199918243Y-80755782D01*
X199919391Y-80754177D01*
X199919895Y-80753577D01*
X199921283Y-80752166D01*
X199921296Y-80752152D01*
X199926394Y-80746976D01*
X199928730Y-80744241D01*
X199933038Y-80738405D01*
X199933052Y-80738388D01*
X199934226Y-80736799D01*
X199934739Y-80736207D01*
X199936160Y-80734807D01*
X199936164Y-80734802D01*
X200010456Y-80661627D01*
X200083660Y-80587306D01*
X200083669Y-80587297D01*
X200085065Y-80585881D01*
X200085657Y-80585368D01*
X200087250Y-80584191D01*
X200087259Y-80584184D01*
X200093103Y-80579869D01*
X200095838Y-80577533D01*
X200101016Y-80572434D01*
X200101024Y-80572426D01*
X200102436Y-80571037D01*
X200103036Y-80570533D01*
X200104641Y-80569384D01*
X200104657Y-80569372D01*
X200189550Y-80508671D01*
X200194057Y-80505344D01*
X200275025Y-80445574D01*
X200275691Y-80445159D01*
X200277459Y-80444240D01*
X200277464Y-80444238D01*
X200283904Y-80440895D01*
X200286973Y-80439014D01*
X200292907Y-80434771D01*
X200292922Y-80434761D01*
X200294504Y-80433631D01*
X200295164Y-80433232D01*
X200296901Y-80432357D01*
X200296917Y-80432348D01*
X200410684Y-80375080D01*
X200482825Y-80337630D01*
X200482834Y-80337626D01*
X200484597Y-80336711D01*
X200485320Y-80336406D01*
X200487195Y-80335780D01*
X200487216Y-80335772D01*
X200490091Y-80334813D01*
X200493474Y-80333405D01*
X201826456Y-79662417D01*
X201826498Y-79662396D01*
X201826933Y-79662178D01*
X201827122Y-79662088D01*
X201827553Y-79661892D01*
X201827585Y-79661878D01*
X201915568Y-79622124D01*
X201916637Y-79621611D01*
X201921922Y-79618918D01*
X201921939Y-79618910D01*
X201923706Y-79618011D01*
X201924430Y-79617711D01*
X201926325Y-79617094D01*
X201926357Y-79617081D01*
X201926381Y-79617074D01*
X201928941Y-79616081D01*
X201930755Y-79615262D01*
X201934455Y-79613591D01*
X201935004Y-79613381D01*
X201936877Y-79612788D01*
X202041752Y-79579589D01*
X202146394Y-79545590D01*
X202146398Y-79545588D01*
X202148288Y-79544975D01*
X202149050Y-79544792D01*
X202151001Y-79544482D01*
X202151028Y-79544476D01*
X202152455Y-79544250D01*
X202156121Y-79543385D01*
X202157504Y-79542948D01*
X202157513Y-79542945D01*
X202159407Y-79542347D01*
X202160170Y-79542170D01*
X202162120Y-79541876D01*
X202162143Y-79541871D01*
X202270962Y-79525482D01*
X202379585Y-79508278D01*
X202379598Y-79508276D01*
X202381530Y-79507971D01*
X202382304Y-79507909D01*
X202384279Y-79507905D01*
X202384288Y-79507905D01*
X202385824Y-79507902D01*
X202389555Y-79507620D01*
X202390942Y-79507411D01*
X202390966Y-79507409D01*
X202392922Y-79507115D01*
X202393705Y-79507059D01*
X202484685Y-79507747D01*
X205356616Y-79503285D01*
X205356654Y-79503285D01*
X205357135Y-79503285D01*
X205357339Y-79503289D01*
G37*
G36*
X171189899Y-74507971D02*
G01*
X171191852Y-74508280D01*
X171191860Y-74508281D01*
X171420417Y-74544481D01*
X171420421Y-74544482D01*
X171422378Y-74544792D01*
X171423141Y-74544975D01*
X171529172Y-74579426D01*
X171645106Y-74617096D01*
X171645108Y-74617097D01*
X171646998Y-74617711D01*
X171647723Y-74618011D01*
X171649495Y-74618914D01*
X171649500Y-74618916D01*
X171855659Y-74723959D01*
X171855663Y-74723961D01*
X171857446Y-74724870D01*
X171858115Y-74725280D01*
X171859729Y-74726453D01*
X171859736Y-74726457D01*
X172025910Y-74847190D01*
X172048539Y-74863631D01*
X172049136Y-74864140D01*
X172215573Y-75030577D01*
X172216082Y-75031174D01*
X172354433Y-75221598D01*
X172354843Y-75222267D01*
X172461702Y-75431990D01*
X172462002Y-75432715D01*
X172534738Y-75656572D01*
X172534921Y-75657335D01*
X172571742Y-75889814D01*
X172571804Y-75890594D01*
X172575231Y-85508232D01*
X172576301Y-88511234D01*
X172579050Y-88522801D01*
X172903762Y-89167872D01*
X172915451Y-89179498D01*
X173800243Y-89618916D01*
X173887329Y-89662166D01*
X173887515Y-89662263D01*
X173887980Y-89662519D01*
X173887988Y-89662523D01*
X173989404Y-89718311D01*
X173989409Y-89718314D01*
X173990712Y-89719031D01*
X173991210Y-89719345D01*
X174046028Y-89758540D01*
X174181051Y-89855082D01*
X174181056Y-89855086D01*
X174182678Y-89856246D01*
X174183279Y-89856751D01*
X174350975Y-90021920D01*
X174351489Y-90022512D01*
X174491282Y-90211881D01*
X174491697Y-90212547D01*
X174600145Y-90421452D01*
X174600450Y-90422175D01*
X174601080Y-90424067D01*
X174601084Y-90424075D01*
X174645988Y-90558788D01*
X174674883Y-90645474D01*
X174675072Y-90646235D01*
X174713657Y-90878427D01*
X174713725Y-90879209D01*
X174715511Y-91114580D01*
X174715455Y-91115363D01*
X174715158Y-91117334D01*
X174715158Y-91117336D01*
X174690936Y-91278164D01*
X174680400Y-91348116D01*
X174680223Y-91348880D01*
X174609189Y-91573282D01*
X174608894Y-91574009D01*
X174503630Y-91784537D01*
X174503225Y-91785209D01*
X174366324Y-91976678D01*
X174365819Y-91977279D01*
X174200650Y-92144975D01*
X174200058Y-92145489D01*
X174010689Y-92285282D01*
X174010023Y-92285697D01*
X173801118Y-92394145D01*
X173800395Y-92394450D01*
X173798497Y-92395082D01*
X173798494Y-92395084D01*
X173672893Y-92436951D01*
X173577097Y-92468883D01*
X173576336Y-92469072D01*
X173344143Y-92507656D01*
X173343361Y-92507724D01*
X173107990Y-92509511D01*
X173107207Y-92509455D01*
X173105236Y-92509158D01*
X173105233Y-92509158D01*
X172876433Y-92474698D01*
X172876431Y-92474697D01*
X172874455Y-92474400D01*
X172873691Y-92474223D01*
X172649288Y-92403189D01*
X172648573Y-92402900D01*
X171112670Y-91640119D01*
X171112484Y-91640022D01*
X171009288Y-91583254D01*
X171008790Y-91582940D01*
X171007573Y-91582070D01*
X171007559Y-91582061D01*
X171001259Y-91577557D01*
X170998186Y-91575674D01*
X170993579Y-91573282D01*
X170989976Y-91571412D01*
X170989310Y-91570997D01*
X170903769Y-91507850D01*
X170903769Y-91507849D01*
X170818940Y-91447197D01*
X170818936Y-91447194D01*
X170817321Y-91446039D01*
X170816720Y-91445534D01*
X170810120Y-91439034D01*
X170807392Y-91436703D01*
X170799942Y-91431204D01*
X170799350Y-91430690D01*
X170724772Y-91354971D01*
X170649025Y-91280365D01*
X170648511Y-91279773D01*
X170643008Y-91272319D01*
X170640672Y-91269584D01*
X170635581Y-91264415D01*
X170635578Y-91264411D01*
X170634181Y-91262993D01*
X170633676Y-91262393D01*
X170632521Y-91260778D01*
X170632517Y-91260773D01*
X170571857Y-91175935D01*
X170571851Y-91175928D01*
X170537000Y-91128717D01*
X170509902Y-91092010D01*
X170509898Y-91092005D01*
X170508717Y-91090404D01*
X170508302Y-91089738D01*
X170504038Y-91081524D01*
X170502156Y-91078453D01*
X170497916Y-91072523D01*
X170497910Y-91072513D01*
X170496774Y-91070925D01*
X170496375Y-91070265D01*
X170495494Y-91068515D01*
X170495488Y-91068505D01*
X170438250Y-90954797D01*
X170400776Y-90882610D01*
X170399854Y-90880833D01*
X170399549Y-90880110D01*
X170398921Y-90878226D01*
X170398915Y-90878212D01*
X170397959Y-90875344D01*
X170396549Y-90871953D01*
X169725560Y-89538972D01*
X169725549Y-89538949D01*
X169725321Y-89538496D01*
X169725231Y-89538307D01*
X169685260Y-89449842D01*
X169684745Y-89448769D01*
X169682063Y-89443506D01*
X169681154Y-89441723D01*
X169680854Y-89440999D01*
X169680237Y-89439102D01*
X169680223Y-89439068D01*
X169680221Y-89439060D01*
X169679223Y-89436484D01*
X169677350Y-89432339D01*
X169677346Y-89432330D01*
X169676734Y-89430974D01*
X169676524Y-89430425D01*
X169674198Y-89423079D01*
X169642732Y-89323675D01*
X169608734Y-89219037D01*
X169608733Y-89219036D01*
X169608118Y-89217141D01*
X169607935Y-89216379D01*
X169607623Y-89214414D01*
X169607619Y-89214396D01*
X169607393Y-89212971D01*
X169606526Y-89209301D01*
X169606094Y-89207933D01*
X169606092Y-89207926D01*
X169605490Y-89206022D01*
X169605313Y-89205259D01*
X169605018Y-89203300D01*
X169605013Y-89203279D01*
X169588628Y-89094485D01*
X169571423Y-88985855D01*
X169571422Y-88985845D01*
X169571114Y-88983899D01*
X169571052Y-88983120D01*
X169571050Y-88981144D01*
X169571050Y-88981133D01*
X169571050Y-88979658D01*
X169570767Y-88975892D01*
X169570555Y-88974484D01*
X169570554Y-88974477D01*
X169570258Y-88972506D01*
X169570202Y-88971724D01*
X169570752Y-88899306D01*
X169571009Y-88865365D01*
X169566428Y-76008769D01*
X169566428Y-76008760D01*
X169566428Y-76008287D01*
X169566432Y-76008089D01*
X169566449Y-76007648D01*
X169566450Y-76007612D01*
X169570997Y-75891887D01*
X169570997Y-75891877D01*
X169571056Y-75890400D01*
X169571114Y-75889814D01*
X169571425Y-75887848D01*
X169607624Y-75659295D01*
X169607625Y-75659288D01*
X169607935Y-75657335D01*
X169608118Y-75656572D01*
X169608732Y-75654682D01*
X169680239Y-75434606D01*
X169680241Y-75434599D01*
X169680854Y-75432715D01*
X169681154Y-75431990D01*
X169682054Y-75430221D01*
X169682059Y-75430212D01*
X169787102Y-75224053D01*
X169787107Y-75224043D01*
X169788013Y-75222267D01*
X169788423Y-75221598D01*
X169789592Y-75219988D01*
X169789600Y-75219976D01*
X169925600Y-75032789D01*
X169925604Y-75032784D01*
X169926774Y-75031174D01*
X169927283Y-75030577D01*
X169928693Y-75029166D01*
X169928699Y-75029160D01*
X170092303Y-74865556D01*
X170092309Y-74865550D01*
X170093720Y-74864140D01*
X170094317Y-74863631D01*
X170095927Y-74862461D01*
X170095932Y-74862457D01*
X170283119Y-74726457D01*
X170283131Y-74726449D01*
X170284741Y-74725280D01*
X170285410Y-74724870D01*
X170287186Y-74723964D01*
X170287196Y-74723959D01*
X170493355Y-74618916D01*
X170493364Y-74618911D01*
X170495133Y-74618011D01*
X170495858Y-74617711D01*
X170497742Y-74617098D01*
X170497749Y-74617096D01*
X170717825Y-74545589D01*
X170717826Y-74545588D01*
X170719715Y-74544975D01*
X170720478Y-74544792D01*
X170722431Y-74544482D01*
X170722438Y-74544481D01*
X170950995Y-74508281D01*
X170951004Y-74508280D01*
X170952957Y-74507971D01*
X170953739Y-74507909D01*
X171189117Y-74507909D01*
X171189899Y-74507971D01*
G37*
G36*
X119643053Y-74503289D02*
G01*
X119643497Y-74503306D01*
X119643526Y-74503307D01*
X119759254Y-74507854D01*
X119759263Y-74507854D01*
X119760742Y-74507913D01*
X119761328Y-74507971D01*
X119762792Y-74508202D01*
X119762793Y-74508203D01*
X119991846Y-74544481D01*
X119991850Y-74544482D01*
X119993807Y-74544792D01*
X119994570Y-74544975D01*
X120100601Y-74579426D01*
X120216535Y-74617096D01*
X120216537Y-74617097D01*
X120218427Y-74617711D01*
X120219152Y-74618011D01*
X120220924Y-74618914D01*
X120220929Y-74618916D01*
X120427088Y-74723959D01*
X120427092Y-74723961D01*
X120428875Y-74724870D01*
X120429544Y-74725280D01*
X120431158Y-74726453D01*
X120431165Y-74726457D01*
X120597339Y-74847190D01*
X120619968Y-74863631D01*
X120620565Y-74864140D01*
X120787002Y-75030577D01*
X120787511Y-75031174D01*
X120925862Y-75221598D01*
X120926272Y-75222267D01*
X121033131Y-75431990D01*
X121033431Y-75432715D01*
X121106167Y-75656572D01*
X121106350Y-75657335D01*
X121143171Y-75889814D01*
X121143233Y-75890596D01*
X121143233Y-76125974D01*
X121143171Y-76126756D01*
X121106350Y-76359235D01*
X121106167Y-76359998D01*
X121033431Y-76583855D01*
X121033131Y-76584580D01*
X120926272Y-76794303D01*
X120925862Y-76794972D01*
X120787511Y-76985396D01*
X120787002Y-76985993D01*
X120620565Y-77152430D01*
X120619968Y-77152939D01*
X120429544Y-77291290D01*
X120428875Y-77291700D01*
X120219152Y-77398559D01*
X120218427Y-77398859D01*
X119994570Y-77471595D01*
X119993807Y-77471778D01*
X119761328Y-77508599D01*
X119760549Y-77508661D01*
X116887761Y-77510189D01*
X116858022Y-77539954D01*
X116860063Y-84213989D01*
X116862142Y-91008283D01*
X116862138Y-91008481D01*
X116857514Y-91126170D01*
X116857456Y-91126756D01*
X116820635Y-91359235D01*
X116820452Y-91359998D01*
X116747716Y-91583855D01*
X116747416Y-91584580D01*
X116640557Y-91794303D01*
X116640147Y-91794972D01*
X116501796Y-91985396D01*
X116501287Y-91985993D01*
X116334850Y-92152430D01*
X116334253Y-92152939D01*
X116143829Y-92291290D01*
X116143160Y-92291700D01*
X115933437Y-92398559D01*
X115932712Y-92398859D01*
X115708855Y-92471595D01*
X115708092Y-92471778D01*
X115475613Y-92508599D01*
X115474831Y-92508661D01*
X115472840Y-92508661D01*
X115241444Y-92508661D01*
X115239453Y-92508661D01*
X115238671Y-92508599D01*
X115006192Y-92471778D01*
X115005429Y-92471595D01*
X114781572Y-92398859D01*
X114780847Y-92398559D01*
X114571124Y-92291700D01*
X114570455Y-92291290D01*
X114568836Y-92290114D01*
X114568833Y-92290112D01*
X114465397Y-92214961D01*
X114380031Y-92152939D01*
X114379434Y-92152430D01*
X114212997Y-91985993D01*
X114212488Y-91985396D01*
X114196047Y-91962767D01*
X114075314Y-91796593D01*
X114075310Y-91796586D01*
X114074137Y-91794972D01*
X114073727Y-91794303D01*
X114069921Y-91786835D01*
X113967773Y-91586357D01*
X113967771Y-91586352D01*
X113966868Y-91584580D01*
X113966568Y-91583855D01*
X113965900Y-91581801D01*
X113894446Y-91361887D01*
X113893832Y-91359998D01*
X113893649Y-91359235D01*
X113892973Y-91354971D01*
X113857139Y-91128720D01*
X113857138Y-91128711D01*
X113856828Y-91126756D01*
X113856766Y-91125976D01*
X113856762Y-91115363D01*
X113855208Y-86033513D01*
X113852610Y-77541568D01*
X113822836Y-77511820D01*
X113361862Y-77512065D01*
X111071431Y-77513285D01*
X111071232Y-77513281D01*
X110953543Y-77508657D01*
X110952957Y-77508599D01*
X110720478Y-77471778D01*
X110719715Y-77471595D01*
X110495858Y-77398859D01*
X110495133Y-77398559D01*
X110285410Y-77291700D01*
X110284741Y-77291290D01*
X110283122Y-77290114D01*
X110283119Y-77290112D01*
X110179683Y-77214961D01*
X110094317Y-77152939D01*
X110093720Y-77152430D01*
X109927283Y-76985993D01*
X109926774Y-76985396D01*
X109910333Y-76962767D01*
X109789600Y-76796593D01*
X109789596Y-76796586D01*
X109788423Y-76794972D01*
X109788013Y-76794303D01*
X109681154Y-76584580D01*
X109680854Y-76583855D01*
X109608118Y-76359998D01*
X109607935Y-76359235D01*
X109607624Y-76357274D01*
X109571424Y-76128717D01*
X109571423Y-76128709D01*
X109571114Y-76126756D01*
X109571052Y-76125974D01*
X109571052Y-75890596D01*
X109571114Y-75889814D01*
X109571423Y-75887861D01*
X109571424Y-75887852D01*
X109607624Y-75659295D01*
X109607625Y-75659288D01*
X109607935Y-75657335D01*
X109608118Y-75656572D01*
X109608732Y-75654682D01*
X109680239Y-75434606D01*
X109680241Y-75434599D01*
X109680854Y-75432715D01*
X109681154Y-75431990D01*
X109682054Y-75430221D01*
X109682059Y-75430212D01*
X109787102Y-75224053D01*
X109787107Y-75224043D01*
X109788013Y-75222267D01*
X109788423Y-75221598D01*
X109789592Y-75219988D01*
X109789600Y-75219976D01*
X109925600Y-75032789D01*
X109925604Y-75032784D01*
X109926774Y-75031174D01*
X109927283Y-75030577D01*
X109928693Y-75029166D01*
X109928699Y-75029160D01*
X110092303Y-74865556D01*
X110092309Y-74865550D01*
X110093720Y-74864140D01*
X110094317Y-74863631D01*
X110095927Y-74862461D01*
X110095932Y-74862457D01*
X110283119Y-74726457D01*
X110283131Y-74726449D01*
X110284741Y-74725280D01*
X110285410Y-74724870D01*
X110287186Y-74723964D01*
X110287196Y-74723959D01*
X110493355Y-74618916D01*
X110493364Y-74618911D01*
X110495133Y-74618011D01*
X110495858Y-74617711D01*
X110497742Y-74617098D01*
X110497749Y-74617096D01*
X110717825Y-74545589D01*
X110717826Y-74545588D01*
X110719715Y-74544975D01*
X110720478Y-74544792D01*
X110722431Y-74544482D01*
X110722438Y-74544481D01*
X110951002Y-74508280D01*
X110951010Y-74508279D01*
X110952957Y-74507971D01*
X110953736Y-74507909D01*
X110955707Y-74507907D01*
X110955720Y-74507907D01*
X119642373Y-74503285D01*
X119642386Y-74503285D01*
X119642854Y-74503285D01*
X119643053Y-74503289D01*
G37*
G36*
X148214481Y-79503289D02*
G01*
X148214944Y-79503307D01*
X148214989Y-79503308D01*
X148311497Y-79507100D01*
X148312660Y-79507118D01*
X148320581Y-79507059D01*
X148321363Y-79507115D01*
X148323330Y-79507410D01*
X148323361Y-79507413D01*
X148323365Y-79507414D01*
X148326120Y-79507674D01*
X148330669Y-79507853D01*
X148330682Y-79507854D01*
X148332171Y-79507913D01*
X148332756Y-79507971D01*
X148334214Y-79508201D01*
X148334225Y-79508203D01*
X148443342Y-79525485D01*
X148552136Y-79541870D01*
X148552157Y-79541875D01*
X148554116Y-79542170D01*
X148554879Y-79542347D01*
X148556783Y-79542949D01*
X148556790Y-79542951D01*
X148558158Y-79543383D01*
X148561828Y-79544250D01*
X148563253Y-79544476D01*
X148563271Y-79544480D01*
X148565236Y-79544792D01*
X148565998Y-79544975D01*
X148567893Y-79545591D01*
X148567898Y-79545592D01*
X148672512Y-79579582D01*
X148777411Y-79612788D01*
X148777415Y-79612789D01*
X148779283Y-79613381D01*
X148779998Y-79613670D01*
X148781750Y-79614540D01*
X148781753Y-79614541D01*
X148783205Y-79615262D01*
X148786649Y-79616668D01*
X148787957Y-79617093D01*
X148787966Y-79617096D01*
X148789855Y-79617711D01*
X148790580Y-79618011D01*
X148792351Y-79618913D01*
X148792355Y-79618915D01*
X148861588Y-79654189D01*
X150313205Y-80375113D01*
X150315901Y-80376452D01*
X150316087Y-80376549D01*
X150419283Y-80433317D01*
X150419781Y-80433631D01*
X150421372Y-80434769D01*
X150427308Y-80439013D01*
X150430378Y-80440894D01*
X150438593Y-80445159D01*
X150439259Y-80445574D01*
X150524770Y-80508698D01*
X150609630Y-80569374D01*
X150609635Y-80569378D01*
X150611250Y-80570533D01*
X150611851Y-80571038D01*
X150618447Y-80577534D01*
X150621179Y-80579867D01*
X150628628Y-80585367D01*
X150629220Y-80585881D01*
X150703811Y-80661614D01*
X150779546Y-80736207D01*
X150780060Y-80736799D01*
X150785559Y-80744249D01*
X150787889Y-80746976D01*
X150794389Y-80753576D01*
X150794894Y-80754177D01*
X150856711Y-80840633D01*
X150919853Y-80926167D01*
X150920268Y-80926834D01*
X150921186Y-80928603D01*
X150924527Y-80935041D01*
X150926414Y-80938119D01*
X150930655Y-80944050D01*
X150930656Y-80944053D01*
X150931796Y-80945646D01*
X150932195Y-80946306D01*
X150933073Y-80948051D01*
X150933077Y-80948057D01*
X150981885Y-81045019D01*
X150990316Y-81061768D01*
X151028716Y-81135739D01*
X151029021Y-81136462D01*
X151030465Y-81140798D01*
X151030604Y-81141213D01*
X151032016Y-81144608D01*
X151703012Y-82477601D01*
X151703022Y-82477623D01*
X151703249Y-82478073D01*
X151703339Y-82478262D01*
X151703547Y-82478724D01*
X151703563Y-82478756D01*
X151743317Y-82566742D01*
X151743834Y-82567818D01*
X151745982Y-82572033D01*
X151747416Y-82574847D01*
X151747717Y-82575573D01*
X151748335Y-82577477D01*
X151748343Y-82577496D01*
X151749342Y-82580076D01*
X151750737Y-82583164D01*
X151751835Y-82585594D01*
X151752046Y-82586144D01*
X151784711Y-82689337D01*
X151785831Y-82692876D01*
X151796032Y-82724272D01*
X151820452Y-82799429D01*
X151820635Y-82800192D01*
X151821131Y-82803329D01*
X151821170Y-82803573D01*
X151822040Y-82807262D01*
X151823080Y-82810547D01*
X151823257Y-82811311D01*
X151839929Y-82922011D01*
X151857456Y-83032671D01*
X151857518Y-83033450D01*
X151857519Y-83036916D01*
X151857803Y-83040688D01*
X151858312Y-83044063D01*
X151858368Y-83044846D01*
X151857584Y-83148047D01*
X151857795Y-83511825D01*
X151862142Y-91008282D01*
X151862138Y-91008481D01*
X151857514Y-91126170D01*
X151857456Y-91126756D01*
X151820635Y-91359235D01*
X151820452Y-91359998D01*
X151747716Y-91583855D01*
X151747416Y-91584580D01*
X151640557Y-91794303D01*
X151640147Y-91794972D01*
X151501796Y-91985396D01*
X151501287Y-91985993D01*
X151334850Y-92152430D01*
X151334253Y-92152939D01*
X151143829Y-92291290D01*
X151143160Y-92291700D01*
X150933437Y-92398559D01*
X150932712Y-92398859D01*
X150708855Y-92471595D01*
X150708092Y-92471778D01*
X150475613Y-92508599D01*
X150474831Y-92508661D01*
X150472840Y-92508661D01*
X150241444Y-92508661D01*
X150239453Y-92508661D01*
X150238671Y-92508599D01*
X150006192Y-92471778D01*
X150005429Y-92471595D01*
X149781572Y-92398859D01*
X149780847Y-92398559D01*
X149571124Y-92291700D01*
X149570455Y-92291290D01*
X149568836Y-92290114D01*
X149568833Y-92290112D01*
X149465397Y-92214961D01*
X149380031Y-92152939D01*
X149379434Y-92152430D01*
X149212997Y-91985993D01*
X149212488Y-91985396D01*
X149196047Y-91962767D01*
X149075314Y-91796593D01*
X149075310Y-91796586D01*
X149074137Y-91794972D01*
X149073727Y-91794303D01*
X149069921Y-91786835D01*
X148967773Y-91586357D01*
X148967771Y-91586352D01*
X148966868Y-91584580D01*
X148966568Y-91583855D01*
X148965900Y-91581801D01*
X148894446Y-91361887D01*
X148893832Y-91359998D01*
X148893649Y-91359235D01*
X148893338Y-91357274D01*
X148857137Y-91128711D01*
X148857136Y-91128702D01*
X148856828Y-91126756D01*
X148856766Y-91125977D01*
X148856764Y-91124001D01*
X148856764Y-91123991D01*
X148853609Y-85682055D01*
X148852346Y-83505484D01*
X148849597Y-83493924D01*
X148524806Y-82848697D01*
X148513117Y-82837071D01*
X148381702Y-82771805D01*
X147859245Y-82512335D01*
X147847747Y-82509650D01*
X147172443Y-82511031D01*
X146426769Y-82512558D01*
X146415246Y-82515307D01*
X145768982Y-82840619D01*
X145757356Y-82852308D01*
X145630005Y-83108736D01*
X145432966Y-83505486D01*
X145431914Y-83507603D01*
X145429228Y-83519067D01*
X145430692Y-86043518D01*
X145433571Y-91008282D01*
X145433567Y-91008481D01*
X145428943Y-91126170D01*
X145428885Y-91126756D01*
X145392064Y-91359235D01*
X145391881Y-91359998D01*
X145319145Y-91583855D01*
X145318845Y-91584580D01*
X145211986Y-91794303D01*
X145211576Y-91794972D01*
X145073225Y-91985396D01*
X145072716Y-91985993D01*
X144906279Y-92152430D01*
X144905682Y-92152939D01*
X144715258Y-92291290D01*
X144714589Y-92291700D01*
X144504866Y-92398559D01*
X144504141Y-92398859D01*
X144280284Y-92471595D01*
X144279521Y-92471778D01*
X144047042Y-92508599D01*
X144046260Y-92508661D01*
X144044269Y-92508661D01*
X143812873Y-92508661D01*
X143810882Y-92508661D01*
X143810100Y-92508599D01*
X143577621Y-92471778D01*
X143576858Y-92471595D01*
X143353001Y-92398859D01*
X143352276Y-92398559D01*
X143142553Y-92291700D01*
X143141884Y-92291290D01*
X143140265Y-92290114D01*
X143140262Y-92290112D01*
X143036826Y-92214961D01*
X142951460Y-92152939D01*
X142950863Y-92152430D01*
X142784426Y-91985993D01*
X142783917Y-91985396D01*
X142767476Y-91962767D01*
X142646743Y-91796593D01*
X142646739Y-91796586D01*
X142645566Y-91794972D01*
X142645156Y-91794303D01*
X142641350Y-91786835D01*
X142539202Y-91586357D01*
X142539200Y-91586352D01*
X142538297Y-91584580D01*
X142537997Y-91583855D01*
X142537329Y-91581801D01*
X142465875Y-91361887D01*
X142465261Y-91359998D01*
X142465078Y-91359235D01*
X142464767Y-91357274D01*
X142428566Y-91128711D01*
X142428565Y-91128702D01*
X142428257Y-91126756D01*
X142428195Y-91125977D01*
X142428193Y-91124001D01*
X142428193Y-91123991D01*
X142425038Y-85682055D01*
X142423775Y-83505484D01*
X142421026Y-83493924D01*
X142096235Y-82848696D01*
X142084546Y-82837070D01*
X141794425Y-82692986D01*
X141430674Y-82512335D01*
X141419176Y-82509650D01*
X140743872Y-82511031D01*
X139998197Y-82512558D01*
X139986674Y-82515307D01*
X139102133Y-82960563D01*
X139095476Y-82965395D01*
X139009025Y-83052558D01*
X139001370Y-83071158D01*
X139004999Y-91008283D01*
X139004995Y-91008481D01*
X139000371Y-91126170D01*
X139000313Y-91126756D01*
X138963492Y-91359235D01*
X138963309Y-91359998D01*
X138890573Y-91583855D01*
X138890273Y-91584580D01*
X138783414Y-91794303D01*
X138783004Y-91794972D01*
X138644653Y-91985396D01*
X138644144Y-91985993D01*
X138477707Y-92152430D01*
X138477110Y-92152939D01*
X138286686Y-92291290D01*
X138286017Y-92291700D01*
X138076294Y-92398559D01*
X138075569Y-92398859D01*
X137851712Y-92471595D01*
X137850949Y-92471778D01*
X137618470Y-92508599D01*
X137617688Y-92508661D01*
X137615697Y-92508661D01*
X137384301Y-92508661D01*
X137382310Y-92508661D01*
X137381528Y-92508599D01*
X137149049Y-92471778D01*
X137148286Y-92471595D01*
X136924429Y-92398859D01*
X136923704Y-92398559D01*
X136713981Y-92291700D01*
X136713312Y-92291290D01*
X136711693Y-92290114D01*
X136711690Y-92290112D01*
X136608254Y-92214961D01*
X136522888Y-92152939D01*
X136522291Y-92152430D01*
X136355854Y-91985993D01*
X136355345Y-91985396D01*
X136338904Y-91962767D01*
X136218171Y-91796593D01*
X136218167Y-91796586D01*
X136216994Y-91794972D01*
X136216584Y-91794303D01*
X136212778Y-91786835D01*
X136110630Y-91586357D01*
X136110628Y-91586352D01*
X136109725Y-91584580D01*
X136109425Y-91583855D01*
X136108757Y-91581801D01*
X136037303Y-91361887D01*
X136036689Y-91359998D01*
X136036506Y-91359235D01*
X136036195Y-91357274D01*
X135999994Y-91128710D01*
X135999993Y-91128703D01*
X135999685Y-91126756D01*
X135999623Y-91125976D01*
X135999601Y-91078453D01*
X135994999Y-81008769D01*
X135994999Y-81008757D01*
X135994999Y-81008287D01*
X135995003Y-81008089D01*
X135995020Y-81007646D01*
X135995021Y-81007614D01*
X135999568Y-80891887D01*
X135999568Y-80891877D01*
X135999627Y-80890400D01*
X135999685Y-80889814D01*
X136020911Y-80755796D01*
X136036195Y-80659295D01*
X136036196Y-80659288D01*
X136036506Y-80657335D01*
X136036689Y-80656572D01*
X136059658Y-80585881D01*
X136108810Y-80434606D01*
X136108812Y-80434599D01*
X136109425Y-80432715D01*
X136109725Y-80431990D01*
X136110625Y-80430221D01*
X136110630Y-80430212D01*
X136215673Y-80224053D01*
X136215678Y-80224043D01*
X136216584Y-80222267D01*
X136216994Y-80221598D01*
X136218163Y-80219988D01*
X136218171Y-80219976D01*
X136354171Y-80032789D01*
X136354175Y-80032784D01*
X136355345Y-80031174D01*
X136355854Y-80030577D01*
X136357264Y-80029166D01*
X136357270Y-80029160D01*
X136520874Y-79865556D01*
X136520880Y-79865550D01*
X136522291Y-79864140D01*
X136522888Y-79863631D01*
X136524498Y-79862461D01*
X136524503Y-79862457D01*
X136711690Y-79726457D01*
X136711702Y-79726449D01*
X136713312Y-79725280D01*
X136713981Y-79724870D01*
X136715757Y-79723964D01*
X136715767Y-79723959D01*
X136921926Y-79618916D01*
X136921935Y-79618911D01*
X136923704Y-79618011D01*
X136924429Y-79617711D01*
X136926313Y-79617098D01*
X136926320Y-79617096D01*
X137146396Y-79545589D01*
X137146397Y-79545588D01*
X137148286Y-79544975D01*
X137149049Y-79544792D01*
X137151002Y-79544482D01*
X137151009Y-79544481D01*
X137379566Y-79508281D01*
X137379575Y-79508280D01*
X137381528Y-79507971D01*
X137382310Y-79507909D01*
X137617688Y-79507909D01*
X137618470Y-79507971D01*
X137620423Y-79508280D01*
X137620431Y-79508281D01*
X137848988Y-79544481D01*
X137848992Y-79544482D01*
X137850949Y-79544792D01*
X137851712Y-79544975D01*
X137957743Y-79579426D01*
X138073677Y-79617096D01*
X138073679Y-79617097D01*
X138075569Y-79617711D01*
X138076294Y-79618011D01*
X138078066Y-79618914D01*
X138078071Y-79618916D01*
X138284230Y-79723959D01*
X138284234Y-79723961D01*
X138286017Y-79724870D01*
X138286686Y-79725280D01*
X138288300Y-79726453D01*
X138288307Y-79726457D01*
X138454481Y-79847190D01*
X138477110Y-79863631D01*
X138477707Y-79864140D01*
X138493789Y-79880222D01*
X138526245Y-79885444D01*
X138969310Y-79662417D01*
X138969351Y-79662397D01*
X138969787Y-79662178D01*
X138969976Y-79662088D01*
X139058449Y-79622111D01*
X139059519Y-79621598D01*
X139064782Y-79618917D01*
X139064783Y-79618916D01*
X139066561Y-79618011D01*
X139067286Y-79617711D01*
X139069170Y-79617097D01*
X139069219Y-79617078D01*
X139069231Y-79617075D01*
X139071795Y-79616080D01*
X139075939Y-79614208D01*
X139075958Y-79614200D01*
X139077308Y-79613591D01*
X139077858Y-79613381D01*
X139079278Y-79612931D01*
X139079282Y-79612930D01*
X139184627Y-79579582D01*
X139289248Y-79545590D01*
X139289256Y-79545587D01*
X139291143Y-79544975D01*
X139291905Y-79544792D01*
X139293856Y-79544482D01*
X139293883Y-79544476D01*
X139295310Y-79544250D01*
X139298976Y-79543385D01*
X139300359Y-79542948D01*
X139300368Y-79542945D01*
X139302262Y-79542347D01*
X139303025Y-79542170D01*
X139304975Y-79541876D01*
X139304998Y-79541871D01*
X139413817Y-79525482D01*
X139522445Y-79508278D01*
X139522448Y-79508277D01*
X139524385Y-79507971D01*
X139525157Y-79507909D01*
X139527126Y-79507904D01*
X139527135Y-79507904D01*
X139528708Y-79507900D01*
X139532423Y-79507619D01*
X139533801Y-79507411D01*
X139533817Y-79507409D01*
X139535778Y-79507115D01*
X139536560Y-79507059D01*
X139622318Y-79507708D01*
X141785189Y-79503286D01*
X141785191Y-79503286D01*
X141785703Y-79503285D01*
X141785909Y-79503289D01*
X141786372Y-79503307D01*
X141786417Y-79503308D01*
X141882925Y-79507100D01*
X141884088Y-79507118D01*
X141892009Y-79507059D01*
X141892791Y-79507115D01*
X141894758Y-79507410D01*
X141894789Y-79507413D01*
X141894793Y-79507414D01*
X141897548Y-79507674D01*
X141902097Y-79507853D01*
X141902110Y-79507854D01*
X141903599Y-79507913D01*
X141904184Y-79507971D01*
X141905642Y-79508201D01*
X141905653Y-79508203D01*
X142014770Y-79525485D01*
X142123564Y-79541870D01*
X142123585Y-79541875D01*
X142125544Y-79542170D01*
X142126307Y-79542347D01*
X142128211Y-79542949D01*
X142128218Y-79542951D01*
X142129586Y-79543383D01*
X142133256Y-79544250D01*
X142134681Y-79544476D01*
X142134699Y-79544480D01*
X142136664Y-79544792D01*
X142137426Y-79544975D01*
X142139321Y-79545590D01*
X142139322Y-79545591D01*
X142243960Y-79579589D01*
X142348838Y-79612788D01*
X142348842Y-79612789D01*
X142350710Y-79613381D01*
X142351425Y-79613670D01*
X142353179Y-79614541D01*
X142353182Y-79614542D01*
X142354630Y-79615261D01*
X142358074Y-79616667D01*
X142359383Y-79617092D01*
X142359396Y-79617097D01*
X142361283Y-79617711D01*
X142362008Y-79618011D01*
X142432979Y-79654172D01*
X143190891Y-80030577D01*
X143884566Y-80375080D01*
X143887329Y-80376452D01*
X143887515Y-80376549D01*
X143887980Y-80376805D01*
X143887988Y-80376809D01*
X143918890Y-80393808D01*
X143943996Y-80394266D01*
X143982027Y-80375123D01*
X143982110Y-80375080D01*
X144054251Y-80337630D01*
X144054259Y-80337626D01*
X144056023Y-80336711D01*
X144056746Y-80336406D01*
X144058621Y-80335780D01*
X144058642Y-80335772D01*
X144061520Y-80334812D01*
X144064903Y-80333404D01*
X145397883Y-79662417D01*
X145397925Y-79662396D01*
X145398360Y-79662178D01*
X145398549Y-79662088D01*
X145398980Y-79661892D01*
X145399012Y-79661878D01*
X145486995Y-79622124D01*
X145488064Y-79621611D01*
X145493349Y-79618918D01*
X145493366Y-79618910D01*
X145495133Y-79618011D01*
X145495857Y-79617711D01*
X145497752Y-79617094D01*
X145497784Y-79617081D01*
X145497808Y-79617074D01*
X145500368Y-79616081D01*
X145502182Y-79615262D01*
X145505882Y-79613591D01*
X145506431Y-79613381D01*
X145508304Y-79612788D01*
X145613179Y-79579589D01*
X145717821Y-79545590D01*
X145717825Y-79545588D01*
X145719715Y-79544975D01*
X145720477Y-79544792D01*
X145722428Y-79544482D01*
X145722455Y-79544476D01*
X145723882Y-79544250D01*
X145727548Y-79543385D01*
X145728931Y-79542948D01*
X145728940Y-79542945D01*
X145730834Y-79542347D01*
X145731597Y-79542170D01*
X145733547Y-79541876D01*
X145733570Y-79541871D01*
X145842389Y-79525482D01*
X145951017Y-79508278D01*
X145951020Y-79508277D01*
X145952957Y-79507971D01*
X145953729Y-79507909D01*
X145955698Y-79507904D01*
X145955707Y-79507904D01*
X145957280Y-79507900D01*
X145960995Y-79507619D01*
X145962373Y-79507411D01*
X145962389Y-79507409D01*
X145964350Y-79507115D01*
X145965132Y-79507059D01*
X146050890Y-79507708D01*
X148213761Y-79503286D01*
X148213763Y-79503286D01*
X148214275Y-79503285D01*
X148214481Y-79503289D01*
G37*
M02*
