%TF.GenerationSoftware,KiCad,Pcbnew,8.99.0-77eaa75db1*%
%TF.CreationDate,2024-04-05T00:54:03+02:00*%
%TF.ProjectId,template,74656d70-6c61-4746-952e-6b696361645f,0.1.0*%
%TF.SameCoordinates,Original*%
%TF.FileFunction,Copper,L2,Bot*%
%TF.FilePolarity,Positive*%
%FSLAX46Y46*%
G04 Gerber Fmt 4.6, Leading zero omitted, Abs format (unit mm)*
G04 Created by KiCad (PCBNEW 8.99.0-77eaa75db1) date 2024-04-05 00:54:03*
%MOMM*%
%LPD*%
G01*
G04 APERTURE LIST*
%TA.AperFunction,EtchedComponent*%
%ADD10C,0.010000*%
%TD*%
G04 APERTURE END LIST*
D10*
%TO.C,REF\u002A\u002A*%
X179501333Y-33283780D02*
X180201041Y-33455221D01*
X180864288Y-33762922D01*
X181470172Y-34206932D01*
X181997791Y-34787301D01*
X182426241Y-35504078D01*
X182541108Y-35756579D01*
X182634165Y-36012509D01*
X182686380Y-36268365D01*
X182709267Y-36584829D01*
X182714337Y-37022581D01*
X182711271Y-37386932D01*
X182692796Y-37721784D01*
X182647495Y-37983035D01*
X182564057Y-38230684D01*
X182431172Y-38524731D01*
X182392732Y-38603089D01*
X181938382Y-39320611D01*
X181366937Y-39910967D01*
X180694616Y-40360303D01*
X179937635Y-40654767D01*
X179549223Y-40736940D01*
X178761249Y-40775391D01*
X177998045Y-40650974D01*
X177281992Y-40376444D01*
X176635471Y-39964558D01*
X176080859Y-39428074D01*
X175640538Y-38779746D01*
X175336888Y-38032332D01*
X175225791Y-37420684D01*
X175215783Y-36745703D01*
X175306139Y-36089144D01*
X175492558Y-35520430D01*
X175707957Y-35113836D01*
X176187475Y-34468751D01*
X176755948Y-33959631D01*
X177392473Y-33586525D01*
X178076147Y-33349481D01*
X178786068Y-33248550D01*
X179501333Y-33283780D01*
%TA.AperFunction,EtchedComponent*%
G36*
X179501333Y-33283780D02*
G01*
X180201041Y-33455221D01*
X180864288Y-33762922D01*
X181470172Y-34206932D01*
X181997791Y-34787301D01*
X182426241Y-35504078D01*
X182541108Y-35756579D01*
X182634165Y-36012509D01*
X182686380Y-36268365D01*
X182709267Y-36584829D01*
X182714337Y-37022581D01*
X182711271Y-37386932D01*
X182692796Y-37721784D01*
X182647495Y-37983035D01*
X182564057Y-38230684D01*
X182431172Y-38524731D01*
X182392732Y-38603089D01*
X181938382Y-39320611D01*
X181366937Y-39910967D01*
X180694616Y-40360303D01*
X179937635Y-40654767D01*
X179549223Y-40736940D01*
X178761249Y-40775391D01*
X177998045Y-40650974D01*
X177281992Y-40376444D01*
X176635471Y-39964558D01*
X176080859Y-39428074D01*
X175640538Y-38779746D01*
X175336888Y-38032332D01*
X175225791Y-37420684D01*
X175215783Y-36745703D01*
X175306139Y-36089144D01*
X175492558Y-35520430D01*
X175707957Y-35113836D01*
X176187475Y-34468751D01*
X176755948Y-33959631D01*
X177392473Y-33586525D01*
X178076147Y-33349481D01*
X178786068Y-33248550D01*
X179501333Y-33283780D01*
G37*
%TD.AperFunction*%
X158865116Y-40786534D02*
X160088504Y-40898843D01*
X161225036Y-41125344D01*
X162316985Y-41475567D01*
X163406621Y-41959048D01*
X164485245Y-42576348D01*
X165642820Y-43417889D01*
X166716282Y-44390867D01*
X167681992Y-45471199D01*
X168516313Y-46634799D01*
X169195608Y-47857583D01*
X169257267Y-47988393D01*
X169773656Y-49251013D01*
X170166037Y-50563019D01*
X170439480Y-51949475D01*
X170599056Y-53435447D01*
X170649836Y-55045999D01*
X170588094Y-56710890D01*
X170392119Y-58350487D01*
X170058872Y-59885334D01*
X169585369Y-61326319D01*
X168968629Y-62684328D01*
X168205670Y-63970251D01*
X167488997Y-64952685D01*
X166499426Y-66058081D01*
X165420838Y-67004888D01*
X164253705Y-67792797D01*
X162998501Y-68421498D01*
X161655696Y-68890683D01*
X160225764Y-69200041D01*
X160209446Y-69202450D01*
X159934074Y-69226613D01*
X159518524Y-69244535D01*
X159001221Y-69255380D01*
X158420589Y-69258312D01*
X157815054Y-69252496D01*
X157390663Y-69243975D01*
X156760990Y-69224232D01*
X156256421Y-69195970D01*
X155840560Y-69156171D01*
X155477015Y-69101819D01*
X155129391Y-69029898D01*
X154738287Y-68936952D01*
X154330245Y-68831110D01*
X153961211Y-68720076D01*
X153597695Y-68590844D01*
X153206202Y-68430409D01*
X152753241Y-68225765D01*
X152205319Y-67963908D01*
X151528943Y-67631832D01*
X149658244Y-66707338D01*
X151156554Y-64246321D01*
X151352711Y-63924217D01*
X151705124Y-63346001D01*
X152020555Y-62829072D01*
X152287475Y-62392285D01*
X152494357Y-62054495D01*
X152629675Y-61834557D01*
X152681900Y-61751327D01*
X152696424Y-61753812D01*
X152813432Y-61835264D01*
X153018995Y-62004303D01*
X153280635Y-62234707D01*
X153746599Y-62632791D01*
X154578447Y-63221455D01*
X155385533Y-63631824D01*
X155968756Y-63836755D01*
X156955234Y-64046190D01*
X157924478Y-64083312D01*
X158862432Y-63950651D01*
X159755040Y-63650735D01*
X160588248Y-63186092D01*
X161348000Y-62559251D01*
X161770752Y-62097560D01*
X162366323Y-61243595D01*
X162855014Y-60252612D01*
X163239164Y-59119535D01*
X163521108Y-57839288D01*
X163533900Y-57759809D01*
X163592995Y-57244675D01*
X163636987Y-56604629D01*
X163665521Y-55883406D01*
X163678241Y-55124740D01*
X163674790Y-54372365D01*
X163654812Y-53670014D01*
X163617951Y-53061422D01*
X163563850Y-52590322D01*
X163356485Y-51523183D01*
X163007568Y-50276625D01*
X162568748Y-49185281D01*
X162040612Y-48249997D01*
X161423747Y-47471617D01*
X160718739Y-46850986D01*
X159926176Y-46388949D01*
X159046643Y-46086351D01*
X158851504Y-46048794D01*
X158362480Y-45999755D01*
X157790977Y-45983747D01*
X157201022Y-45999892D01*
X156656642Y-46047311D01*
X156221864Y-46125124D01*
X155497578Y-46372893D01*
X154657058Y-46825226D01*
X153908647Y-47420491D01*
X153776554Y-47545885D01*
X153537202Y-47767735D01*
X153368037Y-47917057D01*
X153299315Y-47966728D01*
X153282395Y-47942971D01*
X153178249Y-47792966D01*
X152990103Y-47520595D01*
X152730389Y-47143894D01*
X152411537Y-46680900D01*
X152045979Y-46149650D01*
X151646147Y-45568179D01*
X150010753Y-43189046D01*
X150376090Y-43079588D01*
X150414212Y-43067184D01*
X150662374Y-42968664D01*
X151020162Y-42809799D01*
X151445587Y-42609700D01*
X151896661Y-42387478D01*
X152093220Y-42289225D01*
X153184680Y-41781978D01*
X154190666Y-41389724D01*
X155149868Y-41102432D01*
X156100979Y-40910065D01*
X157082690Y-40802591D01*
X158133692Y-40769975D01*
X158865116Y-40786534D01*
%TA.AperFunction,EtchedComponent*%
G36*
X158865116Y-40786534D02*
G01*
X160088504Y-40898843D01*
X161225036Y-41125344D01*
X162316985Y-41475567D01*
X163406621Y-41959048D01*
X164485245Y-42576348D01*
X165642820Y-43417889D01*
X166716282Y-44390867D01*
X167681992Y-45471199D01*
X168516313Y-46634799D01*
X169195608Y-47857583D01*
X169257267Y-47988393D01*
X169773656Y-49251013D01*
X170166037Y-50563019D01*
X170439480Y-51949475D01*
X170599056Y-53435447D01*
X170649836Y-55045999D01*
X170588094Y-56710890D01*
X170392119Y-58350487D01*
X170058872Y-59885334D01*
X169585369Y-61326319D01*
X168968629Y-62684328D01*
X168205670Y-63970251D01*
X167488997Y-64952685D01*
X166499426Y-66058081D01*
X165420838Y-67004888D01*
X164253705Y-67792797D01*
X162998501Y-68421498D01*
X161655696Y-68890683D01*
X160225764Y-69200041D01*
X160209446Y-69202450D01*
X159934074Y-69226613D01*
X159518524Y-69244535D01*
X159001221Y-69255380D01*
X158420589Y-69258312D01*
X157815054Y-69252496D01*
X157390663Y-69243975D01*
X156760990Y-69224232D01*
X156256421Y-69195970D01*
X155840560Y-69156171D01*
X155477015Y-69101819D01*
X155129391Y-69029898D01*
X154738287Y-68936952D01*
X154330245Y-68831110D01*
X153961211Y-68720076D01*
X153597695Y-68590844D01*
X153206202Y-68430409D01*
X152753241Y-68225765D01*
X152205319Y-67963908D01*
X151528943Y-67631832D01*
X149658244Y-66707338D01*
X151156554Y-64246321D01*
X151352711Y-63924217D01*
X151705124Y-63346001D01*
X152020555Y-62829072D01*
X152287475Y-62392285D01*
X152494357Y-62054495D01*
X152629675Y-61834557D01*
X152681900Y-61751327D01*
X152696424Y-61753812D01*
X152813432Y-61835264D01*
X153018995Y-62004303D01*
X153280635Y-62234707D01*
X153746599Y-62632791D01*
X154578447Y-63221455D01*
X155385533Y-63631824D01*
X155968756Y-63836755D01*
X156955234Y-64046190D01*
X157924478Y-64083312D01*
X158862432Y-63950651D01*
X159755040Y-63650735D01*
X160588248Y-63186092D01*
X161348000Y-62559251D01*
X161770752Y-62097560D01*
X162366323Y-61243595D01*
X162855014Y-60252612D01*
X163239164Y-59119535D01*
X163521108Y-57839288D01*
X163533900Y-57759809D01*
X163592995Y-57244675D01*
X163636987Y-56604629D01*
X163665521Y-55883406D01*
X163678241Y-55124740D01*
X163674790Y-54372365D01*
X163654812Y-53670014D01*
X163617951Y-53061422D01*
X163563850Y-52590322D01*
X163356485Y-51523183D01*
X163007568Y-50276625D01*
X162568748Y-49185281D01*
X162040612Y-48249997D01*
X161423747Y-47471617D01*
X160718739Y-46850986D01*
X159926176Y-46388949D01*
X159046643Y-46086351D01*
X158851504Y-46048794D01*
X158362480Y-45999755D01*
X157790977Y-45983747D01*
X157201022Y-45999892D01*
X156656642Y-46047311D01*
X156221864Y-46125124D01*
X155497578Y-46372893D01*
X154657058Y-46825226D01*
X153908647Y-47420491D01*
X153776554Y-47545885D01*
X153537202Y-47767735D01*
X153368037Y-47917057D01*
X153299315Y-47966728D01*
X153282395Y-47942971D01*
X153178249Y-47792966D01*
X152990103Y-47520595D01*
X152730389Y-47143894D01*
X152411537Y-46680900D01*
X152045979Y-46149650D01*
X151646147Y-45568179D01*
X150010753Y-43189046D01*
X150376090Y-43079588D01*
X150414212Y-43067184D01*
X150662374Y-42968664D01*
X151020162Y-42809799D01*
X151445587Y-42609700D01*
X151896661Y-42387478D01*
X152093220Y-42289225D01*
X153184680Y-41781978D01*
X154190666Y-41389724D01*
X155149868Y-41102432D01*
X156100979Y-40910065D01*
X157082690Y-40802591D01*
X158133692Y-40769975D01*
X158865116Y-40786534D01*
G37*
%TD.AperFunction*%
X129125257Y-59756816D02*
X129105938Y-60599302D01*
X129050702Y-61342301D01*
X128955272Y-62026224D01*
X128815370Y-62691484D01*
X128626720Y-63378495D01*
X128340647Y-64199679D01*
X127815234Y-65308241D01*
X127170740Y-66301171D01*
X126417026Y-67169086D01*
X125563951Y-67902602D01*
X124621374Y-68492334D01*
X123599156Y-68928898D01*
X122507156Y-69202910D01*
X122494016Y-69205109D01*
X121695964Y-69281896D01*
X120819111Y-69271648D01*
X119925977Y-69180681D01*
X119079085Y-69015316D01*
X118340955Y-68781870D01*
X118025894Y-68639810D01*
X117615561Y-68423889D01*
X117193915Y-68176933D01*
X116804955Y-67926123D01*
X116492677Y-67698639D01*
X116301076Y-67521661D01*
X116257091Y-67473075D01*
X116204655Y-67456089D01*
X116169609Y-67540408D01*
X116143781Y-67752911D01*
X116118997Y-68120475D01*
X116073477Y-68886380D01*
X109100013Y-68934072D01*
X109341269Y-68522399D01*
X109355649Y-68498062D01*
X109425805Y-68383802D01*
X109489449Y-68282014D01*
X109546924Y-68183852D01*
X109598572Y-68080476D01*
X109644736Y-67963041D01*
X109685758Y-67822704D01*
X109721981Y-67650623D01*
X109753748Y-67437954D01*
X109781400Y-67175855D01*
X109805280Y-66855482D01*
X109825731Y-66467992D01*
X109843095Y-66004543D01*
X109857715Y-65456291D01*
X109869933Y-64814393D01*
X109880091Y-64070007D01*
X109888533Y-63214289D01*
X109895600Y-62238396D01*
X109901635Y-61133485D01*
X109906980Y-59890713D01*
X109911979Y-58501238D01*
X109916972Y-56956215D01*
X109922304Y-55246803D01*
X109927002Y-53775687D01*
X116528674Y-53775687D01*
X116528674Y-63239350D01*
X116983871Y-63537921D01*
X117158924Y-63645476D01*
X117559750Y-63860340D01*
X117939785Y-64031445D01*
X118106217Y-64089378D01*
X118635795Y-64205034D01*
X119305377Y-64264094D01*
X119645858Y-64276384D01*
X119961908Y-64273589D01*
X120197176Y-64242025D01*
X120408199Y-64173031D01*
X120651514Y-64057951D01*
X121119112Y-63749687D01*
X121524207Y-63313622D01*
X121848471Y-62751673D01*
X122094988Y-62055032D01*
X122266844Y-61214891D01*
X122367125Y-60222441D01*
X122398914Y-59068873D01*
X122397369Y-58806614D01*
X122351667Y-57591470D01*
X122240690Y-56534129D01*
X122061741Y-55623437D01*
X121812120Y-54848236D01*
X121489126Y-54197372D01*
X121090062Y-53659687D01*
X120924503Y-53495586D01*
X120411409Y-53153710D01*
X119809089Y-52945672D01*
X119143634Y-52872653D01*
X118441138Y-52935838D01*
X117727693Y-53136409D01*
X117029391Y-53475550D01*
X116528674Y-53775687D01*
X109927002Y-53775687D01*
X109928316Y-53364158D01*
X109973836Y-39480645D01*
X113592653Y-39456841D01*
X113855819Y-39455237D01*
X114630109Y-39452060D01*
X115338313Y-39451415D01*
X115961101Y-39453171D01*
X116479141Y-39457194D01*
X116873103Y-39463353D01*
X117123657Y-39471517D01*
X117211470Y-39481552D01*
X117200234Y-39513359D01*
X117116429Y-39664150D01*
X116977621Y-39883439D01*
X116963775Y-39904402D01*
X116856153Y-40073717D01*
X116765916Y-40238453D01*
X116691536Y-40415581D01*
X116631481Y-40622068D01*
X116584221Y-40874884D01*
X116548227Y-41190996D01*
X116521969Y-41587374D01*
X116503915Y-42080987D01*
X116492537Y-42688803D01*
X116486305Y-43427791D01*
X116483687Y-44314919D01*
X116483155Y-45367157D01*
X116484108Y-46188689D01*
X116487029Y-46995247D01*
X116491706Y-47726578D01*
X116497928Y-48364875D01*
X116505482Y-48892328D01*
X116514156Y-49291130D01*
X116523737Y-49543470D01*
X116534013Y-49631541D01*
X116567155Y-49617871D01*
X116712853Y-49521613D01*
X116920930Y-49363527D01*
X117222584Y-49150933D01*
X117789350Y-48837690D01*
X118437141Y-48558273D01*
X119105493Y-48340985D01*
X119667026Y-48230183D01*
X120366384Y-48159554D01*
X121123285Y-48135084D01*
X121879317Y-48156803D01*
X122576071Y-48224741D01*
X123155135Y-48338928D01*
X123744753Y-48531274D01*
X124728374Y-48997561D01*
X125639135Y-49617459D01*
X126460232Y-50376692D01*
X127174864Y-51260988D01*
X127766228Y-52256072D01*
X127913042Y-52561210D01*
X128324462Y-53590459D01*
X128646118Y-54707523D01*
X128882073Y-55932093D01*
X129036392Y-57283862D01*
X129113137Y-58782520D01*
X129116700Y-59068873D01*
X129125257Y-59756816D01*
%TA.AperFunction,EtchedComponent*%
G36*
X129125257Y-59756816D02*
G01*
X129105938Y-60599302D01*
X129050702Y-61342301D01*
X128955272Y-62026224D01*
X128815370Y-62691484D01*
X128626720Y-63378495D01*
X128340647Y-64199679D01*
X127815234Y-65308241D01*
X127170740Y-66301171D01*
X126417026Y-67169086D01*
X125563951Y-67902602D01*
X124621374Y-68492334D01*
X123599156Y-68928898D01*
X122507156Y-69202910D01*
X122494016Y-69205109D01*
X121695964Y-69281896D01*
X120819111Y-69271648D01*
X119925977Y-69180681D01*
X119079085Y-69015316D01*
X118340955Y-68781870D01*
X118025894Y-68639810D01*
X117615561Y-68423889D01*
X117193915Y-68176933D01*
X116804955Y-67926123D01*
X116492677Y-67698639D01*
X116301076Y-67521661D01*
X116257091Y-67473075D01*
X116204655Y-67456089D01*
X116169609Y-67540408D01*
X116143781Y-67752911D01*
X116118997Y-68120475D01*
X116073477Y-68886380D01*
X109100013Y-68934072D01*
X109341269Y-68522399D01*
X109355649Y-68498062D01*
X109425805Y-68383802D01*
X109489449Y-68282014D01*
X109546924Y-68183852D01*
X109598572Y-68080476D01*
X109644736Y-67963041D01*
X109685758Y-67822704D01*
X109721981Y-67650623D01*
X109753748Y-67437954D01*
X109781400Y-67175855D01*
X109805280Y-66855482D01*
X109825731Y-66467992D01*
X109843095Y-66004543D01*
X109857715Y-65456291D01*
X109869933Y-64814393D01*
X109880091Y-64070007D01*
X109888533Y-63214289D01*
X109895600Y-62238396D01*
X109901635Y-61133485D01*
X109906980Y-59890713D01*
X109911979Y-58501238D01*
X109916972Y-56956215D01*
X109922304Y-55246803D01*
X109927002Y-53775687D01*
X116528674Y-53775687D01*
X116528674Y-63239350D01*
X116983871Y-63537921D01*
X117158924Y-63645476D01*
X117559750Y-63860340D01*
X117939785Y-64031445D01*
X118106217Y-64089378D01*
X118635795Y-64205034D01*
X119305377Y-64264094D01*
X119645858Y-64276384D01*
X119961908Y-64273589D01*
X120197176Y-64242025D01*
X120408199Y-64173031D01*
X120651514Y-64057951D01*
X121119112Y-63749687D01*
X121524207Y-63313622D01*
X121848471Y-62751673D01*
X122094988Y-62055032D01*
X122266844Y-61214891D01*
X122367125Y-60222441D01*
X122398914Y-59068873D01*
X122397369Y-58806614D01*
X122351667Y-57591470D01*
X122240690Y-56534129D01*
X122061741Y-55623437D01*
X121812120Y-54848236D01*
X121489126Y-54197372D01*
X121090062Y-53659687D01*
X120924503Y-53495586D01*
X120411409Y-53153710D01*
X119809089Y-52945672D01*
X119143634Y-52872653D01*
X118441138Y-52935838D01*
X117727693Y-53136409D01*
X117029391Y-53475550D01*
X116528674Y-53775687D01*
X109927002Y-53775687D01*
X109928316Y-53364158D01*
X109973836Y-39480645D01*
X113592653Y-39456841D01*
X113855819Y-39455237D01*
X114630109Y-39452060D01*
X115338313Y-39451415D01*
X115961101Y-39453171D01*
X116479141Y-39457194D01*
X116873103Y-39463353D01*
X117123657Y-39471517D01*
X117211470Y-39481552D01*
X117200234Y-39513359D01*
X117116429Y-39664150D01*
X116977621Y-39883439D01*
X116963775Y-39904402D01*
X116856153Y-40073717D01*
X116765916Y-40238453D01*
X116691536Y-40415581D01*
X116631481Y-40622068D01*
X116584221Y-40874884D01*
X116548227Y-41190996D01*
X116521969Y-41587374D01*
X116503915Y-42080987D01*
X116492537Y-42688803D01*
X116486305Y-43427791D01*
X116483687Y-44314919D01*
X116483155Y-45367157D01*
X116484108Y-46188689D01*
X116487029Y-46995247D01*
X116491706Y-47726578D01*
X116497928Y-48364875D01*
X116505482Y-48892328D01*
X116514156Y-49291130D01*
X116523737Y-49543470D01*
X116534013Y-49631541D01*
X116567155Y-49617871D01*
X116712853Y-49521613D01*
X116920930Y-49363527D01*
X117222584Y-49150933D01*
X117789350Y-48837690D01*
X118437141Y-48558273D01*
X119105493Y-48340985D01*
X119667026Y-48230183D01*
X120366384Y-48159554D01*
X121123285Y-48135084D01*
X121879317Y-48156803D01*
X122576071Y-48224741D01*
X123155135Y-48338928D01*
X123744753Y-48531274D01*
X124728374Y-48997561D01*
X125639135Y-49617459D01*
X126460232Y-50376692D01*
X127174864Y-51260988D01*
X127766228Y-52256072D01*
X127913042Y-52561210D01*
X128324462Y-53590459D01*
X128646118Y-54707523D01*
X128882073Y-55932093D01*
X129036392Y-57283862D01*
X129113137Y-58782520D01*
X129116700Y-59068873D01*
X129125257Y-59756816D01*
G37*
%TD.AperFunction*%
X149703176Y-62621547D02*
X149662289Y-63355595D01*
X149573923Y-64038589D01*
X149440584Y-64607527D01*
X149227823Y-65192880D01*
X148734646Y-66157538D01*
X148104263Y-67006255D01*
X147343201Y-67733247D01*
X146457989Y-68332730D01*
X145455152Y-68798921D01*
X144341219Y-69126036D01*
X143886986Y-69199817D01*
X143237893Y-69251091D01*
X142530987Y-69262623D01*
X141825341Y-69235340D01*
X141180029Y-69170172D01*
X140654122Y-69068048D01*
X140389857Y-68987643D01*
X139789666Y-68752354D01*
X139179556Y-68453630D01*
X138622474Y-68123867D01*
X138181368Y-67795460D01*
X138175948Y-67790719D01*
X137934229Y-67585770D01*
X137748255Y-67439834D01*
X137657892Y-67384229D01*
X137648011Y-67397504D01*
X137625658Y-67540903D01*
X137610123Y-67808356D01*
X137604302Y-68158064D01*
X137604302Y-68931900D01*
X134190323Y-68931900D01*
X134099441Y-68931885D01*
X133337224Y-68930551D01*
X132637665Y-68927233D01*
X132020666Y-68922176D01*
X131506130Y-68915629D01*
X131113963Y-68907838D01*
X130864066Y-68899051D01*
X130776345Y-68889514D01*
X130778388Y-68881180D01*
X130835780Y-68758161D01*
X130956082Y-68527037D01*
X131117742Y-68229478D01*
X131459140Y-67611828D01*
X131509199Y-61513850D01*
X137968459Y-61513850D01*
X137970999Y-61995640D01*
X137983303Y-62501867D01*
X138007406Y-62867776D01*
X138045064Y-63117191D01*
X138098029Y-63273938D01*
X138166164Y-63385867D01*
X138422749Y-63690985D01*
X138766542Y-64008631D01*
X139143349Y-64291652D01*
X139498979Y-64492896D01*
X139696292Y-64566736D01*
X140150619Y-64665047D01*
X140744004Y-64715309D01*
X141369621Y-64707699D01*
X141963717Y-64604313D01*
X142459599Y-64390736D01*
X142888629Y-64057344D01*
X143009317Y-63934026D01*
X143323550Y-63513474D01*
X143493566Y-63060177D01*
X143544624Y-62514735D01*
X143530791Y-62226574D01*
X143393996Y-61633366D01*
X143106617Y-61124207D01*
X142663422Y-60693368D01*
X142059180Y-60335118D01*
X141288658Y-60043727D01*
X140978029Y-59967257D01*
X140601975Y-59914898D01*
X140128713Y-59885821D01*
X139516130Y-59876045D01*
X139416619Y-59876050D01*
X138958331Y-59881645D01*
X138564664Y-59895167D01*
X138274764Y-59914842D01*
X138127778Y-59938899D01*
X138110864Y-59946709D01*
X138056178Y-59995752D01*
X138017448Y-60094308D01*
X137991993Y-60268886D01*
X137977131Y-60545996D01*
X137970180Y-60952147D01*
X137968459Y-61513850D01*
X131509199Y-61513850D01*
X131511828Y-61193548D01*
X131519660Y-60258726D01*
X131530615Y-59066491D01*
X131542114Y-58031459D01*
X131555087Y-57138993D01*
X131570463Y-56374454D01*
X131589171Y-55723206D01*
X131612139Y-55170611D01*
X131640297Y-54702030D01*
X131674574Y-54302825D01*
X131715899Y-53958361D01*
X131765201Y-53653997D01*
X131823410Y-53375097D01*
X131891453Y-53107024D01*
X131970261Y-52835138D01*
X132060762Y-52544803D01*
X132417295Y-51634614D01*
X132905553Y-50793408D01*
X133513611Y-50073207D01*
X134247038Y-49470241D01*
X135111399Y-48980742D01*
X136112261Y-48600943D01*
X137255193Y-48327075D01*
X138545760Y-48155370D01*
X138996829Y-48121226D01*
X139756503Y-48096261D01*
X140509460Y-48118743D01*
X141290950Y-48192462D01*
X142136226Y-48321208D01*
X143080539Y-48508771D01*
X144159140Y-48758943D01*
X144408455Y-48819474D01*
X145034555Y-48968428D01*
X145627974Y-49105578D01*
X146152723Y-49222824D01*
X146572817Y-49312063D01*
X146852268Y-49365196D01*
X147497009Y-49471094D01*
X146590586Y-51667984D01*
X146363859Y-52216498D01*
X146140810Y-52753967D01*
X145949433Y-53212851D01*
X145799126Y-53570700D01*
X145699282Y-53805059D01*
X145659297Y-53893477D01*
X145653008Y-53894743D01*
X145537137Y-53855269D01*
X145309296Y-53754105D01*
X145010585Y-53609260D01*
X144389726Y-53327185D01*
X143535382Y-53018764D01*
X142660964Y-52782573D01*
X141800667Y-52624544D01*
X140988686Y-52550609D01*
X140259216Y-52566699D01*
X139646453Y-52678747D01*
X139218787Y-52856533D01*
X138733089Y-53220872D01*
X138359196Y-53715144D01*
X138107810Y-54324142D01*
X137989634Y-55032660D01*
X137948019Y-55685663D01*
X140120425Y-55691610D01*
X140853042Y-55697754D01*
X141663368Y-55719572D01*
X142355608Y-55760748D01*
X142965569Y-55825285D01*
X143529059Y-55917185D01*
X144081886Y-56040453D01*
X144659857Y-56199090D01*
X145524642Y-56501049D01*
X146541810Y-56998307D01*
X147434505Y-57607404D01*
X148193921Y-58319773D01*
X148811254Y-59126847D01*
X149277699Y-60020058D01*
X149584452Y-60990840D01*
X149632491Y-61252296D01*
X149694079Y-61899447D01*
X149701831Y-62514735D01*
X149703176Y-62621547D01*
%TA.AperFunction,EtchedComponent*%
G36*
X149703176Y-62621547D02*
G01*
X149662289Y-63355595D01*
X149573923Y-64038589D01*
X149440584Y-64607527D01*
X149227823Y-65192880D01*
X148734646Y-66157538D01*
X148104263Y-67006255D01*
X147343201Y-67733247D01*
X146457989Y-68332730D01*
X145455152Y-68798921D01*
X144341219Y-69126036D01*
X143886986Y-69199817D01*
X143237893Y-69251091D01*
X142530987Y-69262623D01*
X141825341Y-69235340D01*
X141180029Y-69170172D01*
X140654122Y-69068048D01*
X140389857Y-68987643D01*
X139789666Y-68752354D01*
X139179556Y-68453630D01*
X138622474Y-68123867D01*
X138181368Y-67795460D01*
X138175948Y-67790719D01*
X137934229Y-67585770D01*
X137748255Y-67439834D01*
X137657892Y-67384229D01*
X137648011Y-67397504D01*
X137625658Y-67540903D01*
X137610123Y-67808356D01*
X137604302Y-68158064D01*
X137604302Y-68931900D01*
X134190323Y-68931900D01*
X134099441Y-68931885D01*
X133337224Y-68930551D01*
X132637665Y-68927233D01*
X132020666Y-68922176D01*
X131506130Y-68915629D01*
X131113963Y-68907838D01*
X130864066Y-68899051D01*
X130776345Y-68889514D01*
X130778388Y-68881180D01*
X130835780Y-68758161D01*
X130956082Y-68527037D01*
X131117742Y-68229478D01*
X131459140Y-67611828D01*
X131509199Y-61513850D01*
X137968459Y-61513850D01*
X137970999Y-61995640D01*
X137983303Y-62501867D01*
X138007406Y-62867776D01*
X138045064Y-63117191D01*
X138098029Y-63273938D01*
X138166164Y-63385867D01*
X138422749Y-63690985D01*
X138766542Y-64008631D01*
X139143349Y-64291652D01*
X139498979Y-64492896D01*
X139696292Y-64566736D01*
X140150619Y-64665047D01*
X140744004Y-64715309D01*
X141369621Y-64707699D01*
X141963717Y-64604313D01*
X142459599Y-64390736D01*
X142888629Y-64057344D01*
X143009317Y-63934026D01*
X143323550Y-63513474D01*
X143493566Y-63060177D01*
X143544624Y-62514735D01*
X143530791Y-62226574D01*
X143393996Y-61633366D01*
X143106617Y-61124207D01*
X142663422Y-60693368D01*
X142059180Y-60335118D01*
X141288658Y-60043727D01*
X140978029Y-59967257D01*
X140601975Y-59914898D01*
X140128713Y-59885821D01*
X139516130Y-59876045D01*
X139416619Y-59876050D01*
X138958331Y-59881645D01*
X138564664Y-59895167D01*
X138274764Y-59914842D01*
X138127778Y-59938899D01*
X138110864Y-59946709D01*
X138056178Y-59995752D01*
X138017448Y-60094308D01*
X137991993Y-60268886D01*
X137977131Y-60545996D01*
X137970180Y-60952147D01*
X137968459Y-61513850D01*
X131509199Y-61513850D01*
X131511828Y-61193548D01*
X131519660Y-60258726D01*
X131530615Y-59066491D01*
X131542114Y-58031459D01*
X131555087Y-57138993D01*
X131570463Y-56374454D01*
X131589171Y-55723206D01*
X131612139Y-55170611D01*
X131640297Y-54702030D01*
X131674574Y-54302825D01*
X131715899Y-53958361D01*
X131765201Y-53653997D01*
X131823410Y-53375097D01*
X131891453Y-53107024D01*
X131970261Y-52835138D01*
X132060762Y-52544803D01*
X132417295Y-51634614D01*
X132905553Y-50793408D01*
X133513611Y-50073207D01*
X134247038Y-49470241D01*
X135111399Y-48980742D01*
X136112261Y-48600943D01*
X137255193Y-48327075D01*
X138545760Y-48155370D01*
X138996829Y-48121226D01*
X139756503Y-48096261D01*
X140509460Y-48118743D01*
X141290950Y-48192462D01*
X142136226Y-48321208D01*
X143080539Y-48508771D01*
X144159140Y-48758943D01*
X144408455Y-48819474D01*
X145034555Y-48968428D01*
X145627974Y-49105578D01*
X146152723Y-49222824D01*
X146572817Y-49312063D01*
X146852268Y-49365196D01*
X147497009Y-49471094D01*
X146590586Y-51667984D01*
X146363859Y-52216498D01*
X146140810Y-52753967D01*
X145949433Y-53212851D01*
X145799126Y-53570700D01*
X145699282Y-53805059D01*
X145659297Y-53893477D01*
X145653008Y-53894743D01*
X145537137Y-53855269D01*
X145309296Y-53754105D01*
X145010585Y-53609260D01*
X144389726Y-53327185D01*
X143535382Y-53018764D01*
X142660964Y-52782573D01*
X141800667Y-52624544D01*
X140988686Y-52550609D01*
X140259216Y-52566699D01*
X139646453Y-52678747D01*
X139218787Y-52856533D01*
X138733089Y-53220872D01*
X138359196Y-53715144D01*
X138107810Y-54324142D01*
X137989634Y-55032660D01*
X137948019Y-55685663D01*
X140120425Y-55691610D01*
X140853042Y-55697754D01*
X141663368Y-55719572D01*
X142355608Y-55760748D01*
X142965569Y-55825285D01*
X143529059Y-55917185D01*
X144081886Y-56040453D01*
X144659857Y-56199090D01*
X145524642Y-56501049D01*
X146541810Y-56998307D01*
X147434505Y-57607404D01*
X148193921Y-58319773D01*
X148811254Y-59126847D01*
X149277699Y-60020058D01*
X149584452Y-60990840D01*
X149632491Y-61252296D01*
X149694079Y-61899447D01*
X149701831Y-62514735D01*
X149703176Y-62621547D01*
G37*
%TD.AperFunction*%
X210778490Y-69111842D02*
X210769116Y-69817826D01*
X210757482Y-70425964D01*
X210743350Y-70943784D01*
X210726484Y-71378814D01*
X210706646Y-71738581D01*
X210683599Y-72030616D01*
X210657107Y-72262444D01*
X210626933Y-72441596D01*
X210592840Y-72575598D01*
X210554590Y-72671979D01*
X210511947Y-72738267D01*
X210464674Y-72781991D01*
X210412534Y-72810678D01*
X210355289Y-72831856D01*
X210292704Y-72853054D01*
X210224542Y-72881800D01*
X210186189Y-72896206D01*
X210115837Y-72911938D01*
X210011304Y-72926352D01*
X209865193Y-72939505D01*
X209670112Y-72951455D01*
X209418664Y-72962261D01*
X209103455Y-72971980D01*
X208717090Y-72980669D01*
X208252174Y-72988387D01*
X207701312Y-72995191D01*
X207057110Y-73001139D01*
X206312172Y-73006289D01*
X205459104Y-73010698D01*
X204490511Y-73014425D01*
X203398998Y-73017527D01*
X202177170Y-73020062D01*
X200817632Y-73022088D01*
X199312990Y-73023662D01*
X197655849Y-73024843D01*
X195838813Y-73025688D01*
X193854488Y-73026254D01*
X191695480Y-73026601D01*
X191011294Y-73026668D01*
X188899142Y-73026711D01*
X186959519Y-73026446D01*
X185185115Y-73025818D01*
X183568625Y-73024775D01*
X182102740Y-73023264D01*
X180780154Y-73021232D01*
X179593559Y-73018625D01*
X178535647Y-73015392D01*
X177599111Y-73011478D01*
X176776643Y-73006830D01*
X176060937Y-73001396D01*
X175444685Y-72995123D01*
X174920579Y-72987958D01*
X174481312Y-72979847D01*
X174119576Y-72970737D01*
X173828065Y-72960576D01*
X173599471Y-72949310D01*
X173426485Y-72936887D01*
X173301802Y-72923253D01*
X173218114Y-72908355D01*
X173168112Y-72892141D01*
X173152202Y-72884925D01*
X173087076Y-72861221D01*
X173027352Y-72843910D01*
X172972788Y-72825453D01*
X172923144Y-72798312D01*
X172878175Y-72754948D01*
X172837641Y-72687821D01*
X172801300Y-72589393D01*
X172768908Y-72452126D01*
X172740224Y-72268480D01*
X172715006Y-72030916D01*
X172693012Y-71731896D01*
X172673999Y-71363881D01*
X172657725Y-70919332D01*
X172643949Y-70390710D01*
X172632428Y-69770477D01*
X172622920Y-69051093D01*
X172619800Y-68717971D01*
X175020508Y-68717971D01*
X175023142Y-68749871D01*
X175071432Y-68775724D01*
X175180538Y-68796163D01*
X175365617Y-68811822D01*
X175641827Y-68823334D01*
X176024325Y-68831332D01*
X176528271Y-68836451D01*
X177168822Y-68839323D01*
X177961135Y-68840581D01*
X178920369Y-68840860D01*
X182938491Y-68840860D01*
X182598816Y-68226344D01*
X182259140Y-67611828D01*
X182259140Y-49768100D01*
X182598816Y-49153584D01*
X182938491Y-48539068D01*
X175756236Y-48539068D01*
X175730269Y-57984409D01*
X175704302Y-67429749D01*
X175449691Y-67973516D01*
X175315455Y-68243035D01*
X175163452Y-68513024D01*
X175048663Y-68679072D01*
X175048375Y-68679391D01*
X175020508Y-68717971D01*
X172619800Y-68717971D01*
X172615183Y-68225019D01*
X172608975Y-67284718D01*
X172604053Y-66222649D01*
X172600176Y-65031275D01*
X172597101Y-63703056D01*
X172594587Y-62230453D01*
X172592390Y-60605928D01*
X172590270Y-58821942D01*
X172587983Y-56870956D01*
X172585289Y-54745431D01*
X172584940Y-54488112D01*
X172581935Y-52376056D01*
X172579061Y-50437659D01*
X172576531Y-48665379D01*
X172574558Y-47051674D01*
X172573355Y-45589002D01*
X172573133Y-44269819D01*
X172574107Y-43086585D01*
X172576487Y-42031756D01*
X172580488Y-41097791D01*
X172586321Y-40277147D01*
X172594200Y-39562282D01*
X172604337Y-38945654D01*
X172616945Y-38419720D01*
X172632236Y-37976939D01*
X172650423Y-37609768D01*
X172671718Y-37310664D01*
X172696335Y-37072086D01*
X172724486Y-36886491D01*
X172756384Y-36746338D01*
X172792240Y-36644083D01*
X172832269Y-36572185D01*
X172876683Y-36523101D01*
X172925693Y-36489289D01*
X172979514Y-36463207D01*
X173038357Y-36437313D01*
X173102436Y-36404064D01*
X173121185Y-36393469D01*
X173404900Y-36290911D01*
X173715481Y-36248760D01*
X174065592Y-36248775D01*
X174071427Y-37045355D01*
X174072906Y-37137020D01*
X174184187Y-38068809D01*
X174467612Y-38945538D01*
X174919243Y-39757920D01*
X175535143Y-40496671D01*
X175865651Y-40797977D01*
X176601561Y-41297392D01*
X177404509Y-41645657D01*
X178251109Y-41842588D01*
X179117975Y-41887998D01*
X179981722Y-41781700D01*
X180818964Y-41523508D01*
X181507220Y-41164874D01*
X184553327Y-41164874D01*
X184953904Y-41453071D01*
X185292682Y-41723933D01*
X185770051Y-42165733D01*
X186311506Y-42719434D01*
X186896543Y-43363935D01*
X187504658Y-44078136D01*
X187661261Y-44269127D01*
X187927886Y-44596700D01*
X188276401Y-45026463D01*
X188695262Y-45544070D01*
X189172921Y-46135179D01*
X189697832Y-46785445D01*
X190258451Y-47480523D01*
X190843229Y-48206071D01*
X191111448Y-48539068D01*
X191440622Y-48947744D01*
X192039084Y-49691199D01*
X192627068Y-50422090D01*
X193193028Y-51126075D01*
X193725418Y-51788809D01*
X194212692Y-52395949D01*
X194643305Y-52933150D01*
X195005709Y-53386068D01*
X195288359Y-53740360D01*
X195479709Y-53981681D01*
X195568213Y-54095688D01*
X195575517Y-54138529D01*
X195551219Y-54220014D01*
X195488256Y-54348210D01*
X195380341Y-54532208D01*
X195221189Y-54781103D01*
X195004517Y-55103987D01*
X194724038Y-55509955D01*
X194373468Y-56008099D01*
X193946522Y-56607513D01*
X193436914Y-57317290D01*
X192838360Y-58146524D01*
X192144574Y-59104306D01*
X191349271Y-60199732D01*
X190715582Y-61071682D01*
X189942464Y-62134657D01*
X189262407Y-63068154D01*
X188667501Y-63882533D01*
X188149839Y-64588155D01*
X187701511Y-65195379D01*
X187314608Y-65714566D01*
X186981223Y-66156076D01*
X186693446Y-66530269D01*
X186443369Y-66847505D01*
X186223084Y-67118145D01*
X186024680Y-67352548D01*
X185840251Y-67561075D01*
X185661886Y-67754085D01*
X185481679Y-67941940D01*
X185291719Y-68134999D01*
X184591681Y-68840860D01*
X189297454Y-68841051D01*
X194003226Y-68841242D01*
X193973655Y-68270914D01*
X193972223Y-68242256D01*
X193966610Y-68014258D01*
X193977250Y-67795806D01*
X194011260Y-67574934D01*
X194075758Y-67339676D01*
X194177862Y-67078066D01*
X194324688Y-66778139D01*
X194523355Y-66427928D01*
X194780981Y-66015467D01*
X195104682Y-65528791D01*
X195501577Y-64955934D01*
X195978782Y-64284929D01*
X196543417Y-63503810D01*
X197202597Y-62600612D01*
X197963441Y-61563369D01*
X200649104Y-57907078D01*
X200672766Y-62146440D01*
X200674863Y-62541886D01*
X200678561Y-63607039D01*
X200676879Y-64513024D01*
X200667837Y-65276985D01*
X200649455Y-65916067D01*
X200619752Y-66447416D01*
X200576749Y-66888176D01*
X200518466Y-67255492D01*
X200442921Y-67566510D01*
X200348136Y-67838375D01*
X200232131Y-68088232D01*
X200092924Y-68333226D01*
X199928536Y-68590502D01*
X199763289Y-68840860D01*
X208351202Y-68840860D01*
X208129369Y-68544982D01*
X208094627Y-68498174D01*
X207816878Y-68069169D01*
X207625411Y-67635489D01*
X207499682Y-67138560D01*
X207419149Y-66519804D01*
X207416938Y-66492832D01*
X207405251Y-66237609D01*
X207394699Y-65811785D01*
X207385329Y-65225091D01*
X207377185Y-64487257D01*
X207370314Y-63608013D01*
X207364761Y-62597089D01*
X207360572Y-61464217D01*
X207357792Y-60219126D01*
X207356469Y-58871546D01*
X207356647Y-57431208D01*
X207358372Y-55907843D01*
X207361691Y-54311181D01*
X207365206Y-52878972D01*
X207368966Y-51319979D01*
X207372669Y-49925145D01*
X207376777Y-48684696D01*
X207381757Y-47588860D01*
X207388072Y-46627865D01*
X207396188Y-45791939D01*
X207406569Y-45071309D01*
X207419680Y-44456204D01*
X207435986Y-43936851D01*
X207455952Y-43503479D01*
X207480041Y-43146314D01*
X207508720Y-42855584D01*
X207542452Y-42621518D01*
X207581702Y-42434344D01*
X207626936Y-42284288D01*
X207678617Y-42161579D01*
X207737211Y-42056445D01*
X207803183Y-41959114D01*
X207876996Y-41859812D01*
X207959117Y-41748769D01*
X208038546Y-41637495D01*
X208192067Y-41417478D01*
X208284025Y-41278674D01*
X208286246Y-41272860D01*
X208254137Y-41246611D01*
X208140825Y-41224709D01*
X207933702Y-41206818D01*
X207620159Y-41192602D01*
X207187587Y-41181724D01*
X206623378Y-41173848D01*
X205914924Y-41168639D01*
X205049615Y-41165759D01*
X204014843Y-41164874D01*
X199677005Y-41164874D01*
X199905624Y-41436573D01*
X200038121Y-41623180D01*
X200258671Y-42063168D01*
X200451946Y-42610390D01*
X200599460Y-43217400D01*
X200608862Y-43275027D01*
X200636836Y-43578813D01*
X200658021Y-44048309D01*
X200672472Y-44686766D01*
X200680245Y-45497435D01*
X200681397Y-46483565D01*
X200675985Y-47648407D01*
X200649104Y-51537316D01*
X197872402Y-48025944D01*
X197792871Y-47925363D01*
X197088727Y-47033949D01*
X196487575Y-46270535D01*
X195979850Y-45622141D01*
X195555984Y-45075785D01*
X195206410Y-44618489D01*
X194921561Y-44237272D01*
X194691870Y-43919153D01*
X194507770Y-43651152D01*
X194359694Y-43420288D01*
X194238075Y-43213582D01*
X194133346Y-43018053D01*
X194035939Y-42820721D01*
X193886094Y-42471422D01*
X193789293Y-42102943D01*
X193763545Y-41705488D01*
X193766131Y-41164874D01*
X184553327Y-41164874D01*
X181507220Y-41164874D01*
X181606317Y-41113237D01*
X182320394Y-40550699D01*
X182518900Y-40352379D01*
X183105620Y-39618081D01*
X183521945Y-38821197D01*
X183770106Y-37956587D01*
X183852330Y-37019112D01*
X183852330Y-36248745D01*
X196921009Y-36248745D01*
X197737477Y-36248709D01*
X199491485Y-36248472D01*
X201075980Y-36248299D01*
X202499724Y-36248538D01*
X203771481Y-36249535D01*
X204900012Y-36251636D01*
X205894078Y-36255188D01*
X206762443Y-36260538D01*
X207513868Y-36268031D01*
X208157115Y-36278013D01*
X208700946Y-36290833D01*
X209154124Y-36306835D01*
X209525411Y-36326366D01*
X209823568Y-36349773D01*
X210057357Y-36377403D01*
X210235542Y-36409600D01*
X210366883Y-36446713D01*
X210460143Y-36489087D01*
X210524084Y-36537069D01*
X210567469Y-36591005D01*
X210599058Y-36651241D01*
X210627614Y-36718125D01*
X210661900Y-36792002D01*
X210662515Y-36793209D01*
X210679161Y-36841569D01*
X210694431Y-36922547D01*
X210708381Y-37043615D01*
X210721070Y-37212248D01*
X210732555Y-37435918D01*
X210742896Y-37722098D01*
X210752150Y-38078261D01*
X210760374Y-38511880D01*
X210767627Y-39030428D01*
X210773967Y-39641379D01*
X210779451Y-40352204D01*
X210784138Y-41170378D01*
X210788085Y-42103374D01*
X210791351Y-43158664D01*
X210793994Y-44343721D01*
X210796071Y-45666018D01*
X210797640Y-47133030D01*
X210798760Y-48752227D01*
X210799488Y-50531084D01*
X210799882Y-52477074D01*
X210800000Y-54597670D01*
X210800006Y-55014264D01*
X210800209Y-57112759D01*
X210800520Y-59038126D01*
X210800703Y-60797894D01*
X210800521Y-62399590D01*
X210799738Y-63850743D01*
X210798114Y-65158881D01*
X210795414Y-66331531D01*
X210791402Y-67376223D01*
X210785839Y-68300484D01*
X210780944Y-68840860D01*
X210778490Y-69111842D01*
%TA.AperFunction,EtchedComponent*%
G36*
X210778490Y-69111842D02*
G01*
X210769116Y-69817826D01*
X210757482Y-70425964D01*
X210743350Y-70943784D01*
X210726484Y-71378814D01*
X210706646Y-71738581D01*
X210683599Y-72030616D01*
X210657107Y-72262444D01*
X210626933Y-72441596D01*
X210592840Y-72575598D01*
X210554590Y-72671979D01*
X210511947Y-72738267D01*
X210464674Y-72781991D01*
X210412534Y-72810678D01*
X210355289Y-72831856D01*
X210292704Y-72853054D01*
X210224542Y-72881800D01*
X210186189Y-72896206D01*
X210115837Y-72911938D01*
X210011304Y-72926352D01*
X209865193Y-72939505D01*
X209670112Y-72951455D01*
X209418664Y-72962261D01*
X209103455Y-72971980D01*
X208717090Y-72980669D01*
X208252174Y-72988387D01*
X207701312Y-72995191D01*
X207057110Y-73001139D01*
X206312172Y-73006289D01*
X205459104Y-73010698D01*
X204490511Y-73014425D01*
X203398998Y-73017527D01*
X202177170Y-73020062D01*
X200817632Y-73022088D01*
X199312990Y-73023662D01*
X197655849Y-73024843D01*
X195838813Y-73025688D01*
X193854488Y-73026254D01*
X191695480Y-73026601D01*
X191011294Y-73026668D01*
X188899142Y-73026711D01*
X186959519Y-73026446D01*
X185185115Y-73025818D01*
X183568625Y-73024775D01*
X182102740Y-73023264D01*
X180780154Y-73021232D01*
X179593559Y-73018625D01*
X178535647Y-73015392D01*
X177599111Y-73011478D01*
X176776643Y-73006830D01*
X176060937Y-73001396D01*
X175444685Y-72995123D01*
X174920579Y-72987958D01*
X174481312Y-72979847D01*
X174119576Y-72970737D01*
X173828065Y-72960576D01*
X173599471Y-72949310D01*
X173426485Y-72936887D01*
X173301802Y-72923253D01*
X173218114Y-72908355D01*
X173168112Y-72892141D01*
X173152202Y-72884925D01*
X173087076Y-72861221D01*
X173027352Y-72843910D01*
X172972788Y-72825453D01*
X172923144Y-72798312D01*
X172878175Y-72754948D01*
X172837641Y-72687821D01*
X172801300Y-72589393D01*
X172768908Y-72452126D01*
X172740224Y-72268480D01*
X172715006Y-72030916D01*
X172693012Y-71731896D01*
X172673999Y-71363881D01*
X172657725Y-70919332D01*
X172643949Y-70390710D01*
X172632428Y-69770477D01*
X172622920Y-69051093D01*
X172619800Y-68717971D01*
X175020508Y-68717971D01*
X175023142Y-68749871D01*
X175071432Y-68775724D01*
X175180538Y-68796163D01*
X175365617Y-68811822D01*
X175641827Y-68823334D01*
X176024325Y-68831332D01*
X176528271Y-68836451D01*
X177168822Y-68839323D01*
X177961135Y-68840581D01*
X178920369Y-68840860D01*
X182938491Y-68840860D01*
X182598816Y-68226344D01*
X182259140Y-67611828D01*
X182259140Y-49768100D01*
X182598816Y-49153584D01*
X182938491Y-48539068D01*
X175756236Y-48539068D01*
X175730269Y-57984409D01*
X175704302Y-67429749D01*
X175449691Y-67973516D01*
X175315455Y-68243035D01*
X175163452Y-68513024D01*
X175048663Y-68679072D01*
X175048375Y-68679391D01*
X175020508Y-68717971D01*
X172619800Y-68717971D01*
X172615183Y-68225019D01*
X172608975Y-67284718D01*
X172604053Y-66222649D01*
X172600176Y-65031275D01*
X172597101Y-63703056D01*
X172594587Y-62230453D01*
X172592390Y-60605928D01*
X172590270Y-58821942D01*
X172587983Y-56870956D01*
X172585289Y-54745431D01*
X172584940Y-54488112D01*
X172581935Y-52376056D01*
X172579061Y-50437659D01*
X172576531Y-48665379D01*
X172574558Y-47051674D01*
X172573355Y-45589002D01*
X172573133Y-44269819D01*
X172574107Y-43086585D01*
X172576487Y-42031756D01*
X172580488Y-41097791D01*
X172586321Y-40277147D01*
X172594200Y-39562282D01*
X172604337Y-38945654D01*
X172616945Y-38419720D01*
X172632236Y-37976939D01*
X172650423Y-37609768D01*
X172671718Y-37310664D01*
X172696335Y-37072086D01*
X172724486Y-36886491D01*
X172756384Y-36746338D01*
X172792240Y-36644083D01*
X172832269Y-36572185D01*
X172876683Y-36523101D01*
X172925693Y-36489289D01*
X172979514Y-36463207D01*
X173038357Y-36437313D01*
X173102436Y-36404064D01*
X173121185Y-36393469D01*
X173404900Y-36290911D01*
X173715481Y-36248760D01*
X174065592Y-36248775D01*
X174071427Y-37045355D01*
X174072906Y-37137020D01*
X174184187Y-38068809D01*
X174467612Y-38945538D01*
X174919243Y-39757920D01*
X175535143Y-40496671D01*
X175865651Y-40797977D01*
X176601561Y-41297392D01*
X177404509Y-41645657D01*
X178251109Y-41842588D01*
X179117975Y-41887998D01*
X179981722Y-41781700D01*
X180818964Y-41523508D01*
X181507220Y-41164874D01*
X184553327Y-41164874D01*
X184953904Y-41453071D01*
X185292682Y-41723933D01*
X185770051Y-42165733D01*
X186311506Y-42719434D01*
X186896543Y-43363935D01*
X187504658Y-44078136D01*
X187661261Y-44269127D01*
X187927886Y-44596700D01*
X188276401Y-45026463D01*
X188695262Y-45544070D01*
X189172921Y-46135179D01*
X189697832Y-46785445D01*
X190258451Y-47480523D01*
X190843229Y-48206071D01*
X191111448Y-48539068D01*
X191440622Y-48947744D01*
X192039084Y-49691199D01*
X192627068Y-50422090D01*
X193193028Y-51126075D01*
X193725418Y-51788809D01*
X194212692Y-52395949D01*
X194643305Y-52933150D01*
X195005709Y-53386068D01*
X195288359Y-53740360D01*
X195479709Y-53981681D01*
X195568213Y-54095688D01*
X195575517Y-54138529D01*
X195551219Y-54220014D01*
X195488256Y-54348210D01*
X195380341Y-54532208D01*
X195221189Y-54781103D01*
X195004517Y-55103987D01*
X194724038Y-55509955D01*
X194373468Y-56008099D01*
X193946522Y-56607513D01*
X193436914Y-57317290D01*
X192838360Y-58146524D01*
X192144574Y-59104306D01*
X191349271Y-60199732D01*
X190715582Y-61071682D01*
X189942464Y-62134657D01*
X189262407Y-63068154D01*
X188667501Y-63882533D01*
X188149839Y-64588155D01*
X187701511Y-65195379D01*
X187314608Y-65714566D01*
X186981223Y-66156076D01*
X186693446Y-66530269D01*
X186443369Y-66847505D01*
X186223084Y-67118145D01*
X186024680Y-67352548D01*
X185840251Y-67561075D01*
X185661886Y-67754085D01*
X185481679Y-67941940D01*
X185291719Y-68134999D01*
X184591681Y-68840860D01*
X189297454Y-68841051D01*
X194003226Y-68841242D01*
X193973655Y-68270914D01*
X193972223Y-68242256D01*
X193966610Y-68014258D01*
X193977250Y-67795806D01*
X194011260Y-67574934D01*
X194075758Y-67339676D01*
X194177862Y-67078066D01*
X194324688Y-66778139D01*
X194523355Y-66427928D01*
X194780981Y-66015467D01*
X195104682Y-65528791D01*
X195501577Y-64955934D01*
X195978782Y-64284929D01*
X196543417Y-63503810D01*
X197202597Y-62600612D01*
X197963441Y-61563369D01*
X200649104Y-57907078D01*
X200672766Y-62146440D01*
X200674863Y-62541886D01*
X200678561Y-63607039D01*
X200676879Y-64513024D01*
X200667837Y-65276985D01*
X200649455Y-65916067D01*
X200619752Y-66447416D01*
X200576749Y-66888176D01*
X200518466Y-67255492D01*
X200442921Y-67566510D01*
X200348136Y-67838375D01*
X200232131Y-68088232D01*
X200092924Y-68333226D01*
X199928536Y-68590502D01*
X199763289Y-68840860D01*
X208351202Y-68840860D01*
X208129369Y-68544982D01*
X208094627Y-68498174D01*
X207816878Y-68069169D01*
X207625411Y-67635489D01*
X207499682Y-67138560D01*
X207419149Y-66519804D01*
X207416938Y-66492832D01*
X207405251Y-66237609D01*
X207394699Y-65811785D01*
X207385329Y-65225091D01*
X207377185Y-64487257D01*
X207370314Y-63608013D01*
X207364761Y-62597089D01*
X207360572Y-61464217D01*
X207357792Y-60219126D01*
X207356469Y-58871546D01*
X207356647Y-57431208D01*
X207358372Y-55907843D01*
X207361691Y-54311181D01*
X207365206Y-52878972D01*
X207368966Y-51319979D01*
X207372669Y-49925145D01*
X207376777Y-48684696D01*
X207381757Y-47588860D01*
X207388072Y-46627865D01*
X207396188Y-45791939D01*
X207406569Y-45071309D01*
X207419680Y-44456204D01*
X207435986Y-43936851D01*
X207455952Y-43503479D01*
X207480041Y-43146314D01*
X207508720Y-42855584D01*
X207542452Y-42621518D01*
X207581702Y-42434344D01*
X207626936Y-42284288D01*
X207678617Y-42161579D01*
X207737211Y-42056445D01*
X207803183Y-41959114D01*
X207876996Y-41859812D01*
X207959117Y-41748769D01*
X208038546Y-41637495D01*
X208192067Y-41417478D01*
X208284025Y-41278674D01*
X208286246Y-41272860D01*
X208254137Y-41246611D01*
X208140825Y-41224709D01*
X207933702Y-41206818D01*
X207620159Y-41192602D01*
X207187587Y-41181724D01*
X206623378Y-41173848D01*
X205914924Y-41168639D01*
X205049615Y-41165759D01*
X204014843Y-41164874D01*
X199677005Y-41164874D01*
X199905624Y-41436573D01*
X200038121Y-41623180D01*
X200258671Y-42063168D01*
X200451946Y-42610390D01*
X200599460Y-43217400D01*
X200608862Y-43275027D01*
X200636836Y-43578813D01*
X200658021Y-44048309D01*
X200672472Y-44686766D01*
X200680245Y-45497435D01*
X200681397Y-46483565D01*
X200675985Y-47648407D01*
X200649104Y-51537316D01*
X197872402Y-48025944D01*
X197792871Y-47925363D01*
X197088727Y-47033949D01*
X196487575Y-46270535D01*
X195979850Y-45622141D01*
X195555984Y-45075785D01*
X195206410Y-44618489D01*
X194921561Y-44237272D01*
X194691870Y-43919153D01*
X194507770Y-43651152D01*
X194359694Y-43420288D01*
X194238075Y-43213582D01*
X194133346Y-43018053D01*
X194035939Y-42820721D01*
X193886094Y-42471422D01*
X193789293Y-42102943D01*
X193763545Y-41705488D01*
X193766131Y-41164874D01*
X184553327Y-41164874D01*
X181507220Y-41164874D01*
X181606317Y-41113237D01*
X182320394Y-40550699D01*
X182518900Y-40352379D01*
X183105620Y-39618081D01*
X183521945Y-38821197D01*
X183770106Y-37956587D01*
X183852330Y-37019112D01*
X183852330Y-36248745D01*
X196921009Y-36248745D01*
X197737477Y-36248709D01*
X199491485Y-36248472D01*
X201075980Y-36248299D01*
X202499724Y-36248538D01*
X203771481Y-36249535D01*
X204900012Y-36251636D01*
X205894078Y-36255188D01*
X206762443Y-36260538D01*
X207513868Y-36268031D01*
X208157115Y-36278013D01*
X208700946Y-36290833D01*
X209154124Y-36306835D01*
X209525411Y-36326366D01*
X209823568Y-36349773D01*
X210057357Y-36377403D01*
X210235542Y-36409600D01*
X210366883Y-36446713D01*
X210460143Y-36489087D01*
X210524084Y-36537069D01*
X210567469Y-36591005D01*
X210599058Y-36651241D01*
X210627614Y-36718125D01*
X210661900Y-36792002D01*
X210662515Y-36793209D01*
X210679161Y-36841569D01*
X210694431Y-36922547D01*
X210708381Y-37043615D01*
X210721070Y-37212248D01*
X210732555Y-37435918D01*
X210742896Y-37722098D01*
X210752150Y-38078261D01*
X210760374Y-38511880D01*
X210767627Y-39030428D01*
X210773967Y-39641379D01*
X210779451Y-40352204D01*
X210784138Y-41170378D01*
X210788085Y-42103374D01*
X210791351Y-43158664D01*
X210793994Y-44343721D01*
X210796071Y-45666018D01*
X210797640Y-47133030D01*
X210798760Y-48752227D01*
X210799488Y-50531084D01*
X210799882Y-52477074D01*
X210800000Y-54597670D01*
X210800006Y-55014264D01*
X210800209Y-57112759D01*
X210800520Y-59038126D01*
X210800703Y-60797894D01*
X210800521Y-62399590D01*
X210799738Y-63850743D01*
X210798114Y-65158881D01*
X210795414Y-66331531D01*
X210791402Y-67376223D01*
X210785839Y-68300484D01*
X210780944Y-68840860D01*
X210778490Y-69111842D01*
G37*
%TD.AperFunction*%
%TD*%
M02*
