%TF.GenerationSoftware,KiCad,Pcbnew,8.0.2*%
%TF.CreationDate,2024-05-28T22:03:59+02:00*%
%TF.ProjectId,template,74656d70-6c61-4746-952e-6b696361645f,0.1.0*%
%TF.SameCoordinates,Original*%
%TF.FileFunction,Legend,Top*%
%TF.FilePolarity,Positive*%
%FSLAX46Y46*%
G04 Gerber Fmt 4.6, Leading zero omitted, Abs format (unit mm)*
G04 Created by KiCad (PCBNEW 8.0.2) date 2024-05-28 22:03:59*
%MOMM*%
%LPD*%
G01*
G04 APERTURE LIST*
%ADD10C,0.010000*%
%ADD11C,3.000000*%
G04 APERTURE END LIST*
D10*
%TO.C,REF\u002A\u002A*%
X141923853Y-33349481D02*
X142607527Y-33586525D01*
X143244052Y-33959631D01*
X143812525Y-34468751D01*
X144292043Y-35113836D01*
X144507442Y-35520430D01*
X144693861Y-36089144D01*
X144784217Y-36745703D01*
X144774209Y-37420684D01*
X144663112Y-38032332D01*
X144359462Y-38779746D01*
X143919141Y-39428074D01*
X143364529Y-39964558D01*
X142718008Y-40376444D01*
X142001955Y-40650974D01*
X141238751Y-40775391D01*
X140450777Y-40736940D01*
X140062365Y-40654767D01*
X139305384Y-40360303D01*
X138633063Y-39910967D01*
X138061618Y-39320611D01*
X137607268Y-38603089D01*
X137568828Y-38524731D01*
X137435943Y-38230684D01*
X137352505Y-37983035D01*
X137307204Y-37721784D01*
X137288729Y-37386932D01*
X137285663Y-37022581D01*
X137290733Y-36584829D01*
X137313620Y-36268365D01*
X137365835Y-36012509D01*
X137458892Y-35756579D01*
X137573759Y-35504078D01*
X138002209Y-34787301D01*
X138529828Y-34206932D01*
X139135712Y-33762922D01*
X139798959Y-33455221D01*
X140498667Y-33283780D01*
X141213932Y-33248550D01*
X141923853Y-33349481D01*
G36*
X141923853Y-33349481D02*
G01*
X142607527Y-33586525D01*
X143244052Y-33959631D01*
X143812525Y-34468751D01*
X144292043Y-35113836D01*
X144507442Y-35520430D01*
X144693861Y-36089144D01*
X144784217Y-36745703D01*
X144774209Y-37420684D01*
X144663112Y-38032332D01*
X144359462Y-38779746D01*
X143919141Y-39428074D01*
X143364529Y-39964558D01*
X142718008Y-40376444D01*
X142001955Y-40650974D01*
X141238751Y-40775391D01*
X140450777Y-40736940D01*
X140062365Y-40654767D01*
X139305384Y-40360303D01*
X138633063Y-39910967D01*
X138061618Y-39320611D01*
X137607268Y-38603089D01*
X137568828Y-38524731D01*
X137435943Y-38230684D01*
X137352505Y-37983035D01*
X137307204Y-37721784D01*
X137288729Y-37386932D01*
X137285663Y-37022581D01*
X137290733Y-36584829D01*
X137313620Y-36268365D01*
X137365835Y-36012509D01*
X137458892Y-35756579D01*
X137573759Y-35504078D01*
X138002209Y-34787301D01*
X138529828Y-34206932D01*
X139135712Y-33762922D01*
X139798959Y-33455221D01*
X140498667Y-33283780D01*
X141213932Y-33248550D01*
X141923853Y-33349481D01*
G37*
X162917310Y-40802591D02*
X163899021Y-40910065D01*
X164850132Y-41102432D01*
X165809334Y-41389724D01*
X166815320Y-41781978D01*
X167906780Y-42289225D01*
X168103339Y-42387478D01*
X168554413Y-42609700D01*
X168979838Y-42809799D01*
X169337626Y-42968664D01*
X169585788Y-43067184D01*
X169623910Y-43079588D01*
X169989247Y-43189046D01*
X168353853Y-45568179D01*
X167954021Y-46149650D01*
X167588463Y-46680900D01*
X167269611Y-47143894D01*
X167009897Y-47520595D01*
X166821751Y-47792966D01*
X166717605Y-47942971D01*
X166700685Y-47966728D01*
X166631963Y-47917057D01*
X166462798Y-47767735D01*
X166223446Y-47545885D01*
X166091353Y-47420491D01*
X165342942Y-46825226D01*
X164502422Y-46372893D01*
X163778136Y-46125124D01*
X163343358Y-46047311D01*
X162798978Y-45999892D01*
X162209023Y-45983747D01*
X161637520Y-45999755D01*
X161148496Y-46048794D01*
X160953357Y-46086351D01*
X160073824Y-46388949D01*
X159281261Y-46850986D01*
X158576253Y-47471617D01*
X157959388Y-48249997D01*
X157431252Y-49185281D01*
X156992432Y-50276625D01*
X156643515Y-51523183D01*
X156436150Y-52590322D01*
X156382049Y-53061422D01*
X156345188Y-53670014D01*
X156325210Y-54372365D01*
X156321759Y-55124740D01*
X156334479Y-55883406D01*
X156363013Y-56604629D01*
X156407005Y-57244675D01*
X156466100Y-57759809D01*
X156478892Y-57839288D01*
X156760836Y-59119535D01*
X157144986Y-60252612D01*
X157633677Y-61243595D01*
X158229248Y-62097560D01*
X158652000Y-62559251D01*
X159411752Y-63186092D01*
X160244960Y-63650735D01*
X161137568Y-63950651D01*
X162075522Y-64083312D01*
X163044766Y-64046190D01*
X164031244Y-63836755D01*
X164614467Y-63631824D01*
X165421553Y-63221455D01*
X166253401Y-62632791D01*
X166719365Y-62234707D01*
X166981005Y-62004303D01*
X167186568Y-61835264D01*
X167303576Y-61753812D01*
X167318100Y-61751327D01*
X167370325Y-61834557D01*
X167505643Y-62054495D01*
X167712525Y-62392285D01*
X167979445Y-62829072D01*
X168294876Y-63346001D01*
X168647289Y-63924217D01*
X168843446Y-64246321D01*
X170341756Y-66707338D01*
X168471057Y-67631832D01*
X167794681Y-67963908D01*
X167246759Y-68225765D01*
X166793798Y-68430409D01*
X166402305Y-68590844D01*
X166038789Y-68720076D01*
X165669755Y-68831110D01*
X165261713Y-68936952D01*
X164870609Y-69029898D01*
X164522985Y-69101819D01*
X164159440Y-69156171D01*
X163743579Y-69195970D01*
X163239010Y-69224232D01*
X162609337Y-69243975D01*
X162184946Y-69252496D01*
X161579411Y-69258312D01*
X160998779Y-69255380D01*
X160481476Y-69244535D01*
X160065926Y-69226613D01*
X159790554Y-69202450D01*
X159774236Y-69200041D01*
X158344304Y-68890683D01*
X157001499Y-68421498D01*
X155746295Y-67792797D01*
X154579162Y-67004888D01*
X153500574Y-66058081D01*
X152511003Y-64952685D01*
X151794330Y-63970251D01*
X151031371Y-62684328D01*
X150414631Y-61326319D01*
X149941128Y-59885334D01*
X149607881Y-58350487D01*
X149411906Y-56710890D01*
X149350164Y-55045999D01*
X149400944Y-53435447D01*
X149560520Y-51949475D01*
X149833963Y-50563019D01*
X150226344Y-49251013D01*
X150742733Y-47988393D01*
X150804392Y-47857583D01*
X151483687Y-46634799D01*
X152318008Y-45471199D01*
X153283718Y-44390867D01*
X154357180Y-43417889D01*
X155514755Y-42576348D01*
X156593379Y-41959048D01*
X157683015Y-41475567D01*
X158774964Y-41125344D01*
X159911496Y-40898843D01*
X161134884Y-40786534D01*
X161866308Y-40769975D01*
X162917310Y-40802591D01*
G36*
X162917310Y-40802591D02*
G01*
X163899021Y-40910065D01*
X164850132Y-41102432D01*
X165809334Y-41389724D01*
X166815320Y-41781978D01*
X167906780Y-42289225D01*
X168103339Y-42387478D01*
X168554413Y-42609700D01*
X168979838Y-42809799D01*
X169337626Y-42968664D01*
X169585788Y-43067184D01*
X169623910Y-43079588D01*
X169989247Y-43189046D01*
X168353853Y-45568179D01*
X167954021Y-46149650D01*
X167588463Y-46680900D01*
X167269611Y-47143894D01*
X167009897Y-47520595D01*
X166821751Y-47792966D01*
X166717605Y-47942971D01*
X166700685Y-47966728D01*
X166631963Y-47917057D01*
X166462798Y-47767735D01*
X166223446Y-47545885D01*
X166091353Y-47420491D01*
X165342942Y-46825226D01*
X164502422Y-46372893D01*
X163778136Y-46125124D01*
X163343358Y-46047311D01*
X162798978Y-45999892D01*
X162209023Y-45983747D01*
X161637520Y-45999755D01*
X161148496Y-46048794D01*
X160953357Y-46086351D01*
X160073824Y-46388949D01*
X159281261Y-46850986D01*
X158576253Y-47471617D01*
X157959388Y-48249997D01*
X157431252Y-49185281D01*
X156992432Y-50276625D01*
X156643515Y-51523183D01*
X156436150Y-52590322D01*
X156382049Y-53061422D01*
X156345188Y-53670014D01*
X156325210Y-54372365D01*
X156321759Y-55124740D01*
X156334479Y-55883406D01*
X156363013Y-56604629D01*
X156407005Y-57244675D01*
X156466100Y-57759809D01*
X156478892Y-57839288D01*
X156760836Y-59119535D01*
X157144986Y-60252612D01*
X157633677Y-61243595D01*
X158229248Y-62097560D01*
X158652000Y-62559251D01*
X159411752Y-63186092D01*
X160244960Y-63650735D01*
X161137568Y-63950651D01*
X162075522Y-64083312D01*
X163044766Y-64046190D01*
X164031244Y-63836755D01*
X164614467Y-63631824D01*
X165421553Y-63221455D01*
X166253401Y-62632791D01*
X166719365Y-62234707D01*
X166981005Y-62004303D01*
X167186568Y-61835264D01*
X167303576Y-61753812D01*
X167318100Y-61751327D01*
X167370325Y-61834557D01*
X167505643Y-62054495D01*
X167712525Y-62392285D01*
X167979445Y-62829072D01*
X168294876Y-63346001D01*
X168647289Y-63924217D01*
X168843446Y-64246321D01*
X170341756Y-66707338D01*
X168471057Y-67631832D01*
X167794681Y-67963908D01*
X167246759Y-68225765D01*
X166793798Y-68430409D01*
X166402305Y-68590844D01*
X166038789Y-68720076D01*
X165669755Y-68831110D01*
X165261713Y-68936952D01*
X164870609Y-69029898D01*
X164522985Y-69101819D01*
X164159440Y-69156171D01*
X163743579Y-69195970D01*
X163239010Y-69224232D01*
X162609337Y-69243975D01*
X162184946Y-69252496D01*
X161579411Y-69258312D01*
X160998779Y-69255380D01*
X160481476Y-69244535D01*
X160065926Y-69226613D01*
X159790554Y-69202450D01*
X159774236Y-69200041D01*
X158344304Y-68890683D01*
X157001499Y-68421498D01*
X155746295Y-67792797D01*
X154579162Y-67004888D01*
X153500574Y-66058081D01*
X152511003Y-64952685D01*
X151794330Y-63970251D01*
X151031371Y-62684328D01*
X150414631Y-61326319D01*
X149941128Y-59885334D01*
X149607881Y-58350487D01*
X149411906Y-56710890D01*
X149350164Y-55045999D01*
X149400944Y-53435447D01*
X149560520Y-51949475D01*
X149833963Y-50563019D01*
X150226344Y-49251013D01*
X150742733Y-47988393D01*
X150804392Y-47857583D01*
X151483687Y-46634799D01*
X152318008Y-45471199D01*
X153283718Y-44390867D01*
X154357180Y-43417889D01*
X155514755Y-42576348D01*
X156593379Y-41959048D01*
X157683015Y-41475567D01*
X158774964Y-41125344D01*
X159911496Y-40898843D01*
X161134884Y-40786534D01*
X161866308Y-40769975D01*
X162917310Y-40802591D01*
G37*
X205369891Y-39452060D02*
X206144181Y-39455237D01*
X206407347Y-39456841D01*
X210026164Y-39480645D01*
X210071684Y-53364158D01*
X210077696Y-55246803D01*
X210083028Y-56956215D01*
X210088021Y-58501238D01*
X210093020Y-59890713D01*
X210098365Y-61133485D01*
X210104400Y-62238396D01*
X210111467Y-63214289D01*
X210119909Y-64070007D01*
X210130067Y-64814393D01*
X210142285Y-65456291D01*
X210156905Y-66004543D01*
X210174269Y-66467992D01*
X210194720Y-66855482D01*
X210218600Y-67175855D01*
X210246252Y-67437954D01*
X210278019Y-67650623D01*
X210314242Y-67822704D01*
X210355264Y-67963041D01*
X210401428Y-68080476D01*
X210453076Y-68183852D01*
X210510551Y-68282014D01*
X210574195Y-68383802D01*
X210644351Y-68498062D01*
X210658731Y-68522399D01*
X210899987Y-68934072D01*
X203926523Y-68886380D01*
X203881003Y-68120475D01*
X203856219Y-67752911D01*
X203830391Y-67540408D01*
X203795345Y-67456089D01*
X203742909Y-67473075D01*
X203698924Y-67521661D01*
X203507323Y-67698639D01*
X203195045Y-67926123D01*
X202806085Y-68176933D01*
X202384439Y-68423889D01*
X201974106Y-68639810D01*
X201659045Y-68781870D01*
X200920915Y-69015316D01*
X200074023Y-69180681D01*
X199180889Y-69271648D01*
X198304036Y-69281896D01*
X197505984Y-69205109D01*
X197492844Y-69202910D01*
X196400844Y-68928898D01*
X195378626Y-68492334D01*
X194436049Y-67902602D01*
X193582974Y-67169086D01*
X192829260Y-66301171D01*
X192184766Y-65308241D01*
X191659353Y-64199679D01*
X191373280Y-63378495D01*
X191184630Y-62691484D01*
X191044728Y-62026224D01*
X190949298Y-61342301D01*
X190894062Y-60599302D01*
X190874743Y-59756816D01*
X190883300Y-59068873D01*
X197601086Y-59068873D01*
X197632875Y-60222441D01*
X197733156Y-61214891D01*
X197905012Y-62055032D01*
X198151529Y-62751673D01*
X198475793Y-63313622D01*
X198880888Y-63749687D01*
X199348486Y-64057951D01*
X199591801Y-64173031D01*
X199802824Y-64242025D01*
X200038092Y-64273589D01*
X200354142Y-64276384D01*
X200694623Y-64264094D01*
X201364205Y-64205034D01*
X201893783Y-64089378D01*
X202060215Y-64031445D01*
X202440250Y-63860340D01*
X202841076Y-63645476D01*
X203016129Y-63537921D01*
X203471326Y-63239350D01*
X203471326Y-53775687D01*
X202970609Y-53475550D01*
X202272307Y-53136409D01*
X201558862Y-52935838D01*
X200856366Y-52872653D01*
X200190911Y-52945672D01*
X199588591Y-53153710D01*
X199075497Y-53495586D01*
X198909938Y-53659687D01*
X198510874Y-54197372D01*
X198187880Y-54848236D01*
X197938259Y-55623437D01*
X197759310Y-56534129D01*
X197648333Y-57591470D01*
X197602631Y-58806614D01*
X197601086Y-59068873D01*
X190883300Y-59068873D01*
X190886863Y-58782520D01*
X190963608Y-57283862D01*
X191117927Y-55932093D01*
X191353882Y-54707523D01*
X191675538Y-53590459D01*
X192086958Y-52561210D01*
X192233772Y-52256072D01*
X192825136Y-51260988D01*
X193539768Y-50376692D01*
X194360865Y-49617459D01*
X195271626Y-48997561D01*
X196255247Y-48531274D01*
X196844865Y-48338928D01*
X197423929Y-48224741D01*
X198120683Y-48156803D01*
X198876715Y-48135084D01*
X199633616Y-48159554D01*
X200332974Y-48230183D01*
X200894507Y-48340985D01*
X201562859Y-48558273D01*
X202210650Y-48837690D01*
X202777416Y-49150933D01*
X203079070Y-49363527D01*
X203287147Y-49521613D01*
X203432845Y-49617871D01*
X203465987Y-49631541D01*
X203476263Y-49543470D01*
X203485844Y-49291130D01*
X203494518Y-48892328D01*
X203502072Y-48364875D01*
X203508294Y-47726578D01*
X203512971Y-46995247D01*
X203515892Y-46188689D01*
X203516845Y-45367157D01*
X203516313Y-44314919D01*
X203513695Y-43427791D01*
X203507463Y-42688803D01*
X203496085Y-42080987D01*
X203478031Y-41587374D01*
X203451773Y-41190996D01*
X203415779Y-40874884D01*
X203368519Y-40622068D01*
X203308464Y-40415581D01*
X203234084Y-40238453D01*
X203143847Y-40073717D01*
X203036225Y-39904402D01*
X203022379Y-39883439D01*
X202883571Y-39664150D01*
X202799766Y-39513359D01*
X202788530Y-39481552D01*
X202876343Y-39471517D01*
X203126897Y-39463353D01*
X203520859Y-39457194D01*
X204038899Y-39453171D01*
X204661687Y-39451415D01*
X205369891Y-39452060D01*
G36*
X205369891Y-39452060D02*
G01*
X206144181Y-39455237D01*
X206407347Y-39456841D01*
X210026164Y-39480645D01*
X210071684Y-53364158D01*
X210077696Y-55246803D01*
X210083028Y-56956215D01*
X210088021Y-58501238D01*
X210093020Y-59890713D01*
X210098365Y-61133485D01*
X210104400Y-62238396D01*
X210111467Y-63214289D01*
X210119909Y-64070007D01*
X210130067Y-64814393D01*
X210142285Y-65456291D01*
X210156905Y-66004543D01*
X210174269Y-66467992D01*
X210194720Y-66855482D01*
X210218600Y-67175855D01*
X210246252Y-67437954D01*
X210278019Y-67650623D01*
X210314242Y-67822704D01*
X210355264Y-67963041D01*
X210401428Y-68080476D01*
X210453076Y-68183852D01*
X210510551Y-68282014D01*
X210574195Y-68383802D01*
X210644351Y-68498062D01*
X210658731Y-68522399D01*
X210899987Y-68934072D01*
X203926523Y-68886380D01*
X203881003Y-68120475D01*
X203856219Y-67752911D01*
X203830391Y-67540408D01*
X203795345Y-67456089D01*
X203742909Y-67473075D01*
X203698924Y-67521661D01*
X203507323Y-67698639D01*
X203195045Y-67926123D01*
X202806085Y-68176933D01*
X202384439Y-68423889D01*
X201974106Y-68639810D01*
X201659045Y-68781870D01*
X200920915Y-69015316D01*
X200074023Y-69180681D01*
X199180889Y-69271648D01*
X198304036Y-69281896D01*
X197505984Y-69205109D01*
X197492844Y-69202910D01*
X196400844Y-68928898D01*
X195378626Y-68492334D01*
X194436049Y-67902602D01*
X193582974Y-67169086D01*
X192829260Y-66301171D01*
X192184766Y-65308241D01*
X191659353Y-64199679D01*
X191373280Y-63378495D01*
X191184630Y-62691484D01*
X191044728Y-62026224D01*
X190949298Y-61342301D01*
X190894062Y-60599302D01*
X190874743Y-59756816D01*
X190883300Y-59068873D01*
X197601086Y-59068873D01*
X197632875Y-60222441D01*
X197733156Y-61214891D01*
X197905012Y-62055032D01*
X198151529Y-62751673D01*
X198475793Y-63313622D01*
X198880888Y-63749687D01*
X199348486Y-64057951D01*
X199591801Y-64173031D01*
X199802824Y-64242025D01*
X200038092Y-64273589D01*
X200354142Y-64276384D01*
X200694623Y-64264094D01*
X201364205Y-64205034D01*
X201893783Y-64089378D01*
X202060215Y-64031445D01*
X202440250Y-63860340D01*
X202841076Y-63645476D01*
X203016129Y-63537921D01*
X203471326Y-63239350D01*
X203471326Y-53775687D01*
X202970609Y-53475550D01*
X202272307Y-53136409D01*
X201558862Y-52935838D01*
X200856366Y-52872653D01*
X200190911Y-52945672D01*
X199588591Y-53153710D01*
X199075497Y-53495586D01*
X198909938Y-53659687D01*
X198510874Y-54197372D01*
X198187880Y-54848236D01*
X197938259Y-55623437D01*
X197759310Y-56534129D01*
X197648333Y-57591470D01*
X197602631Y-58806614D01*
X197601086Y-59068873D01*
X190883300Y-59068873D01*
X190886863Y-58782520D01*
X190963608Y-57283862D01*
X191117927Y-55932093D01*
X191353882Y-54707523D01*
X191675538Y-53590459D01*
X192086958Y-52561210D01*
X192233772Y-52256072D01*
X192825136Y-51260988D01*
X193539768Y-50376692D01*
X194360865Y-49617459D01*
X195271626Y-48997561D01*
X196255247Y-48531274D01*
X196844865Y-48338928D01*
X197423929Y-48224741D01*
X198120683Y-48156803D01*
X198876715Y-48135084D01*
X199633616Y-48159554D01*
X200332974Y-48230183D01*
X200894507Y-48340985D01*
X201562859Y-48558273D01*
X202210650Y-48837690D01*
X202777416Y-49150933D01*
X203079070Y-49363527D01*
X203287147Y-49521613D01*
X203432845Y-49617871D01*
X203465987Y-49631541D01*
X203476263Y-49543470D01*
X203485844Y-49291130D01*
X203494518Y-48892328D01*
X203502072Y-48364875D01*
X203508294Y-47726578D01*
X203512971Y-46995247D01*
X203515892Y-46188689D01*
X203516845Y-45367157D01*
X203516313Y-44314919D01*
X203513695Y-43427791D01*
X203507463Y-42688803D01*
X203496085Y-42080987D01*
X203478031Y-41587374D01*
X203451773Y-41190996D01*
X203415779Y-40874884D01*
X203368519Y-40622068D01*
X203308464Y-40415581D01*
X203234084Y-40238453D01*
X203143847Y-40073717D01*
X203036225Y-39904402D01*
X203022379Y-39883439D01*
X202883571Y-39664150D01*
X202799766Y-39513359D01*
X202788530Y-39481552D01*
X202876343Y-39471517D01*
X203126897Y-39463353D01*
X203520859Y-39457194D01*
X204038899Y-39453171D01*
X204661687Y-39451415D01*
X205369891Y-39452060D01*
G37*
X181003171Y-48121226D02*
X181454240Y-48155370D01*
X182744807Y-48327075D01*
X183887739Y-48600943D01*
X184888601Y-48980742D01*
X185752962Y-49470241D01*
X186486389Y-50073207D01*
X187094447Y-50793408D01*
X187582705Y-51634614D01*
X187939238Y-52544803D01*
X188029739Y-52835138D01*
X188108547Y-53107024D01*
X188176590Y-53375097D01*
X188234799Y-53653997D01*
X188284101Y-53958361D01*
X188325426Y-54302825D01*
X188359703Y-54702030D01*
X188387861Y-55170611D01*
X188410829Y-55723206D01*
X188429537Y-56374454D01*
X188444913Y-57138993D01*
X188457886Y-58031459D01*
X188469385Y-59066491D01*
X188480340Y-60258726D01*
X188488172Y-61193548D01*
X188540860Y-67611828D01*
X188882258Y-68229478D01*
X189043918Y-68527037D01*
X189164220Y-68758161D01*
X189221612Y-68881180D01*
X189223655Y-68889514D01*
X189135934Y-68899051D01*
X188886037Y-68907838D01*
X188493870Y-68915629D01*
X187979334Y-68922176D01*
X187362335Y-68927233D01*
X186662776Y-68930551D01*
X185900559Y-68931885D01*
X185809677Y-68931900D01*
X182395698Y-68931900D01*
X182395698Y-68158064D01*
X182389877Y-67808356D01*
X182374342Y-67540903D01*
X182351989Y-67397504D01*
X182342108Y-67384229D01*
X182251745Y-67439834D01*
X182065771Y-67585770D01*
X181824052Y-67790719D01*
X181818632Y-67795460D01*
X181377526Y-68123867D01*
X180820444Y-68453630D01*
X180210334Y-68752354D01*
X179610143Y-68987643D01*
X179345878Y-69068048D01*
X178819971Y-69170172D01*
X178174659Y-69235340D01*
X177469013Y-69262623D01*
X176762107Y-69251091D01*
X176113014Y-69199817D01*
X175658781Y-69126036D01*
X174544848Y-68798921D01*
X173542011Y-68332730D01*
X172656799Y-67733247D01*
X171895737Y-67006255D01*
X171265354Y-66157538D01*
X170772177Y-65192880D01*
X170559416Y-64607527D01*
X170426077Y-64038589D01*
X170337711Y-63355595D01*
X170296824Y-62621547D01*
X170298169Y-62514735D01*
X176455376Y-62514735D01*
X176506434Y-63060177D01*
X176676450Y-63513474D01*
X176990683Y-63934026D01*
X177111371Y-64057344D01*
X177540401Y-64390736D01*
X178036283Y-64604313D01*
X178630379Y-64707699D01*
X179255996Y-64715309D01*
X179849381Y-64665047D01*
X180303708Y-64566736D01*
X180501021Y-64492896D01*
X180856651Y-64291652D01*
X181233458Y-64008631D01*
X181577251Y-63690985D01*
X181833836Y-63385867D01*
X181901971Y-63273938D01*
X181954936Y-63117191D01*
X181992594Y-62867776D01*
X182016697Y-62501867D01*
X182029001Y-61995640D01*
X182031541Y-61513850D01*
X182029820Y-60952147D01*
X182022869Y-60545996D01*
X182008007Y-60268886D01*
X181982552Y-60094308D01*
X181943822Y-59995752D01*
X181889136Y-59946709D01*
X181872222Y-59938899D01*
X181725236Y-59914842D01*
X181435336Y-59895167D01*
X181041669Y-59881645D01*
X180583381Y-59876050D01*
X180483870Y-59876045D01*
X179871287Y-59885821D01*
X179398025Y-59914898D01*
X179021971Y-59967257D01*
X178711342Y-60043727D01*
X177940820Y-60335118D01*
X177336578Y-60693368D01*
X176893383Y-61124207D01*
X176606004Y-61633366D01*
X176469209Y-62226574D01*
X176455376Y-62514735D01*
X170298169Y-62514735D01*
X170305921Y-61899447D01*
X170367509Y-61252296D01*
X170415548Y-60990840D01*
X170722301Y-60020058D01*
X171188746Y-59126847D01*
X171806079Y-58319773D01*
X172565495Y-57607404D01*
X173458190Y-56998307D01*
X174475358Y-56501049D01*
X175340143Y-56199090D01*
X175918114Y-56040453D01*
X176470941Y-55917185D01*
X177034431Y-55825285D01*
X177644392Y-55760748D01*
X178336632Y-55719572D01*
X179146958Y-55697754D01*
X179879575Y-55691610D01*
X182051981Y-55685663D01*
X182010366Y-55032660D01*
X181892190Y-54324142D01*
X181640804Y-53715144D01*
X181266911Y-53220872D01*
X180781213Y-52856533D01*
X180353547Y-52678747D01*
X179740784Y-52566699D01*
X179011314Y-52550609D01*
X178199333Y-52624544D01*
X177339036Y-52782573D01*
X176464618Y-53018764D01*
X175610274Y-53327185D01*
X174989415Y-53609260D01*
X174690704Y-53754105D01*
X174462863Y-53855269D01*
X174346992Y-53894743D01*
X174340703Y-53893477D01*
X174300718Y-53805059D01*
X174200874Y-53570700D01*
X174050567Y-53212851D01*
X173859190Y-52753967D01*
X173636141Y-52216498D01*
X173409414Y-51667984D01*
X172502991Y-49471094D01*
X173147732Y-49365196D01*
X173427183Y-49312063D01*
X173847277Y-49222824D01*
X174372026Y-49105578D01*
X174965445Y-48968428D01*
X175591545Y-48819474D01*
X175840860Y-48758943D01*
X176919461Y-48508771D01*
X177863774Y-48321208D01*
X178709050Y-48192462D01*
X179490540Y-48118743D01*
X180243497Y-48096261D01*
X181003171Y-48121226D01*
G36*
X181003171Y-48121226D02*
G01*
X181454240Y-48155370D01*
X182744807Y-48327075D01*
X183887739Y-48600943D01*
X184888601Y-48980742D01*
X185752962Y-49470241D01*
X186486389Y-50073207D01*
X187094447Y-50793408D01*
X187582705Y-51634614D01*
X187939238Y-52544803D01*
X188029739Y-52835138D01*
X188108547Y-53107024D01*
X188176590Y-53375097D01*
X188234799Y-53653997D01*
X188284101Y-53958361D01*
X188325426Y-54302825D01*
X188359703Y-54702030D01*
X188387861Y-55170611D01*
X188410829Y-55723206D01*
X188429537Y-56374454D01*
X188444913Y-57138993D01*
X188457886Y-58031459D01*
X188469385Y-59066491D01*
X188480340Y-60258726D01*
X188488172Y-61193548D01*
X188540860Y-67611828D01*
X188882258Y-68229478D01*
X189043918Y-68527037D01*
X189164220Y-68758161D01*
X189221612Y-68881180D01*
X189223655Y-68889514D01*
X189135934Y-68899051D01*
X188886037Y-68907838D01*
X188493870Y-68915629D01*
X187979334Y-68922176D01*
X187362335Y-68927233D01*
X186662776Y-68930551D01*
X185900559Y-68931885D01*
X185809677Y-68931900D01*
X182395698Y-68931900D01*
X182395698Y-68158064D01*
X182389877Y-67808356D01*
X182374342Y-67540903D01*
X182351989Y-67397504D01*
X182342108Y-67384229D01*
X182251745Y-67439834D01*
X182065771Y-67585770D01*
X181824052Y-67790719D01*
X181818632Y-67795460D01*
X181377526Y-68123867D01*
X180820444Y-68453630D01*
X180210334Y-68752354D01*
X179610143Y-68987643D01*
X179345878Y-69068048D01*
X178819971Y-69170172D01*
X178174659Y-69235340D01*
X177469013Y-69262623D01*
X176762107Y-69251091D01*
X176113014Y-69199817D01*
X175658781Y-69126036D01*
X174544848Y-68798921D01*
X173542011Y-68332730D01*
X172656799Y-67733247D01*
X171895737Y-67006255D01*
X171265354Y-66157538D01*
X170772177Y-65192880D01*
X170559416Y-64607527D01*
X170426077Y-64038589D01*
X170337711Y-63355595D01*
X170296824Y-62621547D01*
X170298169Y-62514735D01*
X176455376Y-62514735D01*
X176506434Y-63060177D01*
X176676450Y-63513474D01*
X176990683Y-63934026D01*
X177111371Y-64057344D01*
X177540401Y-64390736D01*
X178036283Y-64604313D01*
X178630379Y-64707699D01*
X179255996Y-64715309D01*
X179849381Y-64665047D01*
X180303708Y-64566736D01*
X180501021Y-64492896D01*
X180856651Y-64291652D01*
X181233458Y-64008631D01*
X181577251Y-63690985D01*
X181833836Y-63385867D01*
X181901971Y-63273938D01*
X181954936Y-63117191D01*
X181992594Y-62867776D01*
X182016697Y-62501867D01*
X182029001Y-61995640D01*
X182031541Y-61513850D01*
X182029820Y-60952147D01*
X182022869Y-60545996D01*
X182008007Y-60268886D01*
X181982552Y-60094308D01*
X181943822Y-59995752D01*
X181889136Y-59946709D01*
X181872222Y-59938899D01*
X181725236Y-59914842D01*
X181435336Y-59895167D01*
X181041669Y-59881645D01*
X180583381Y-59876050D01*
X180483870Y-59876045D01*
X179871287Y-59885821D01*
X179398025Y-59914898D01*
X179021971Y-59967257D01*
X178711342Y-60043727D01*
X177940820Y-60335118D01*
X177336578Y-60693368D01*
X176893383Y-61124207D01*
X176606004Y-61633366D01*
X176469209Y-62226574D01*
X176455376Y-62514735D01*
X170298169Y-62514735D01*
X170305921Y-61899447D01*
X170367509Y-61252296D01*
X170415548Y-60990840D01*
X170722301Y-60020058D01*
X171188746Y-59126847D01*
X171806079Y-58319773D01*
X172565495Y-57607404D01*
X173458190Y-56998307D01*
X174475358Y-56501049D01*
X175340143Y-56199090D01*
X175918114Y-56040453D01*
X176470941Y-55917185D01*
X177034431Y-55825285D01*
X177644392Y-55760748D01*
X178336632Y-55719572D01*
X179146958Y-55697754D01*
X179879575Y-55691610D01*
X182051981Y-55685663D01*
X182010366Y-55032660D01*
X181892190Y-54324142D01*
X181640804Y-53715144D01*
X181266911Y-53220872D01*
X180781213Y-52856533D01*
X180353547Y-52678747D01*
X179740784Y-52566699D01*
X179011314Y-52550609D01*
X178199333Y-52624544D01*
X177339036Y-52782573D01*
X176464618Y-53018764D01*
X175610274Y-53327185D01*
X174989415Y-53609260D01*
X174690704Y-53754105D01*
X174462863Y-53855269D01*
X174346992Y-53894743D01*
X174340703Y-53893477D01*
X174300718Y-53805059D01*
X174200874Y-53570700D01*
X174050567Y-53212851D01*
X173859190Y-52753967D01*
X173636141Y-52216498D01*
X173409414Y-51667984D01*
X172502991Y-49471094D01*
X173147732Y-49365196D01*
X173427183Y-49312063D01*
X173847277Y-49222824D01*
X174372026Y-49105578D01*
X174965445Y-48968428D01*
X175591545Y-48819474D01*
X175840860Y-48758943D01*
X176919461Y-48508771D01*
X177863774Y-48321208D01*
X178709050Y-48192462D01*
X179490540Y-48118743D01*
X180243497Y-48096261D01*
X181003171Y-48121226D01*
G37*
X120508515Y-36248472D02*
X122262523Y-36248709D01*
X123078991Y-36248745D01*
X136147670Y-36248745D01*
X136147670Y-37019112D01*
X136229894Y-37956587D01*
X136478055Y-38821197D01*
X136894380Y-39618081D01*
X137481100Y-40352379D01*
X137679606Y-40550699D01*
X138393683Y-41113237D01*
X139181036Y-41523508D01*
X140018278Y-41781700D01*
X140882025Y-41887998D01*
X141748891Y-41842588D01*
X142595491Y-41645657D01*
X143398439Y-41297392D01*
X144134349Y-40797977D01*
X144464857Y-40496671D01*
X145080757Y-39757920D01*
X145532388Y-38945538D01*
X145815813Y-38068809D01*
X145927094Y-37137020D01*
X145928573Y-37045355D01*
X145934408Y-36248775D01*
X146284519Y-36248760D01*
X146595100Y-36290911D01*
X146878815Y-36393469D01*
X146897564Y-36404064D01*
X146961643Y-36437313D01*
X147020486Y-36463207D01*
X147074307Y-36489289D01*
X147123317Y-36523101D01*
X147167731Y-36572185D01*
X147207760Y-36644083D01*
X147243616Y-36746338D01*
X147275514Y-36886491D01*
X147303665Y-37072086D01*
X147328282Y-37310664D01*
X147349577Y-37609768D01*
X147367764Y-37976939D01*
X147383055Y-38419720D01*
X147395663Y-38945654D01*
X147405800Y-39562282D01*
X147413679Y-40277147D01*
X147419512Y-41097791D01*
X147423513Y-42031756D01*
X147425893Y-43086585D01*
X147426867Y-44269819D01*
X147426645Y-45589002D01*
X147425442Y-47051674D01*
X147423469Y-48665379D01*
X147420939Y-50437659D01*
X147418065Y-52376056D01*
X147415060Y-54488112D01*
X147414711Y-54745431D01*
X147412017Y-56870956D01*
X147409730Y-58821942D01*
X147407610Y-60605928D01*
X147405413Y-62230453D01*
X147402899Y-63703056D01*
X147399824Y-65031275D01*
X147395947Y-66222649D01*
X147391025Y-67284718D01*
X147384817Y-68225019D01*
X147377080Y-69051093D01*
X147367572Y-69770477D01*
X147356051Y-70390710D01*
X147342275Y-70919332D01*
X147326001Y-71363881D01*
X147306988Y-71731896D01*
X147284994Y-72030916D01*
X147259776Y-72268480D01*
X147231092Y-72452126D01*
X147198700Y-72589393D01*
X147162359Y-72687821D01*
X147121825Y-72754948D01*
X147076856Y-72798312D01*
X147027212Y-72825453D01*
X146972648Y-72843910D01*
X146912924Y-72861221D01*
X146847798Y-72884925D01*
X146831888Y-72892141D01*
X146781886Y-72908355D01*
X146698198Y-72923253D01*
X146573515Y-72936887D01*
X146400529Y-72949310D01*
X146171935Y-72960576D01*
X145880424Y-72970737D01*
X145518688Y-72979847D01*
X145079421Y-72987958D01*
X144555315Y-72995123D01*
X143939063Y-73001396D01*
X143223357Y-73006830D01*
X142400889Y-73011478D01*
X141464353Y-73015392D01*
X140406441Y-73018625D01*
X139219846Y-73021232D01*
X137897260Y-73023264D01*
X136431375Y-73024775D01*
X134814885Y-73025818D01*
X133040481Y-73026446D01*
X131100858Y-73026711D01*
X128988706Y-73026668D01*
X128304520Y-73026601D01*
X126145512Y-73026254D01*
X124161187Y-73025688D01*
X122344151Y-73024843D01*
X120687010Y-73023662D01*
X119182368Y-73022088D01*
X117822830Y-73020062D01*
X116601002Y-73017527D01*
X115509489Y-73014425D01*
X114540896Y-73010698D01*
X113687828Y-73006289D01*
X112942890Y-73001139D01*
X112298688Y-72995191D01*
X111747826Y-72988387D01*
X111282910Y-72980669D01*
X110896545Y-72971980D01*
X110581336Y-72962261D01*
X110329888Y-72951455D01*
X110134807Y-72939505D01*
X109988696Y-72926352D01*
X109884163Y-72911938D01*
X109813811Y-72896206D01*
X109775458Y-72881800D01*
X109707296Y-72853054D01*
X109644711Y-72831856D01*
X109587466Y-72810678D01*
X109535326Y-72781991D01*
X109488053Y-72738267D01*
X109445410Y-72671979D01*
X109407160Y-72575598D01*
X109373067Y-72441596D01*
X109342893Y-72262444D01*
X109316401Y-72030616D01*
X109293354Y-71738581D01*
X109273516Y-71378814D01*
X109256650Y-70943784D01*
X109242518Y-70425964D01*
X109230884Y-69817826D01*
X109221510Y-69111842D01*
X109219056Y-68840860D01*
X111648798Y-68840860D01*
X120236711Y-68840860D01*
X120071464Y-68590502D01*
X119907076Y-68333226D01*
X119767869Y-68088232D01*
X119651864Y-67838375D01*
X119557079Y-67566510D01*
X119481534Y-67255492D01*
X119423251Y-66888176D01*
X119380248Y-66447416D01*
X119350545Y-65916067D01*
X119332163Y-65276985D01*
X119323121Y-64513024D01*
X119321439Y-63607039D01*
X119325137Y-62541886D01*
X119327234Y-62146440D01*
X119350896Y-57907078D01*
X122036559Y-61563369D01*
X122797403Y-62600612D01*
X123456583Y-63503810D01*
X124021218Y-64284929D01*
X124498423Y-64955934D01*
X124895318Y-65528791D01*
X125219019Y-66015467D01*
X125476645Y-66427928D01*
X125675312Y-66778139D01*
X125822138Y-67078066D01*
X125924242Y-67339676D01*
X125988740Y-67574934D01*
X126022750Y-67795806D01*
X126033390Y-68014258D01*
X126027777Y-68242256D01*
X126026345Y-68270914D01*
X125996774Y-68841242D01*
X130702546Y-68841051D01*
X135408319Y-68840860D01*
X137061509Y-68840860D01*
X141079631Y-68840860D01*
X142038865Y-68840581D01*
X142831178Y-68839323D01*
X143471729Y-68836451D01*
X143975675Y-68831332D01*
X144358173Y-68823334D01*
X144634383Y-68811822D01*
X144819462Y-68796163D01*
X144928568Y-68775724D01*
X144976858Y-68749871D01*
X144979492Y-68717971D01*
X144951625Y-68679391D01*
X144951337Y-68679072D01*
X144836548Y-68513024D01*
X144684545Y-68243035D01*
X144550309Y-67973516D01*
X144295698Y-67429749D01*
X144269731Y-57984409D01*
X144243764Y-48539068D01*
X137061509Y-48539068D01*
X137401184Y-49153584D01*
X137740860Y-49768100D01*
X137740860Y-67611828D01*
X137401184Y-68226344D01*
X137061509Y-68840860D01*
X135408319Y-68840860D01*
X134708281Y-68134999D01*
X134518321Y-67941940D01*
X134338114Y-67754085D01*
X134159749Y-67561075D01*
X133975320Y-67352548D01*
X133776916Y-67118145D01*
X133556631Y-66847505D01*
X133306554Y-66530269D01*
X133018777Y-66156076D01*
X132685392Y-65714566D01*
X132298489Y-65195379D01*
X131850161Y-64588155D01*
X131332499Y-63882533D01*
X130737593Y-63068154D01*
X130057536Y-62134657D01*
X129284418Y-61071682D01*
X128650729Y-60199732D01*
X127855426Y-59104306D01*
X127161640Y-58146524D01*
X126563086Y-57317290D01*
X126053478Y-56607513D01*
X125626532Y-56008099D01*
X125275962Y-55509955D01*
X124995483Y-55103987D01*
X124778811Y-54781103D01*
X124619659Y-54532208D01*
X124511744Y-54348210D01*
X124448781Y-54220014D01*
X124424483Y-54138529D01*
X124431787Y-54095688D01*
X124520291Y-53981681D01*
X124711641Y-53740360D01*
X124994291Y-53386068D01*
X125356695Y-52933150D01*
X125787308Y-52395949D01*
X126274582Y-51788809D01*
X126806972Y-51126075D01*
X127372932Y-50422090D01*
X127960916Y-49691199D01*
X128559378Y-48947744D01*
X128888552Y-48539068D01*
X129156771Y-48206071D01*
X129741549Y-47480523D01*
X130302168Y-46785445D01*
X130827079Y-46135179D01*
X131304738Y-45544070D01*
X131723599Y-45026463D01*
X132072114Y-44596700D01*
X132338739Y-44269127D01*
X132495342Y-44078136D01*
X133103457Y-43363935D01*
X133688494Y-42719434D01*
X134229949Y-42165733D01*
X134707318Y-41723933D01*
X135046096Y-41453071D01*
X135446673Y-41164874D01*
X126233869Y-41164874D01*
X126236455Y-41705488D01*
X126210707Y-42102943D01*
X126113906Y-42471422D01*
X125964061Y-42820721D01*
X125866654Y-43018053D01*
X125761925Y-43213582D01*
X125640306Y-43420288D01*
X125492230Y-43651152D01*
X125308130Y-43919153D01*
X125078439Y-44237272D01*
X124793590Y-44618489D01*
X124444016Y-45075785D01*
X124020150Y-45622141D01*
X123512425Y-46270535D01*
X122911273Y-47033949D01*
X122207129Y-47925363D01*
X122127598Y-48025944D01*
X119350896Y-51537316D01*
X119324015Y-47648407D01*
X119318603Y-46483565D01*
X119319755Y-45497435D01*
X119327528Y-44686766D01*
X119341979Y-44048309D01*
X119363164Y-43578813D01*
X119391138Y-43275027D01*
X119400540Y-43217400D01*
X119548054Y-42610390D01*
X119741329Y-42063168D01*
X119961879Y-41623180D01*
X120094376Y-41436573D01*
X120322995Y-41164874D01*
X115985157Y-41164874D01*
X114950385Y-41165759D01*
X114085076Y-41168639D01*
X113376622Y-41173848D01*
X112812413Y-41181724D01*
X112379841Y-41192602D01*
X112066298Y-41206818D01*
X111859175Y-41224709D01*
X111745863Y-41246611D01*
X111713754Y-41272860D01*
X111715975Y-41278674D01*
X111807933Y-41417478D01*
X111961454Y-41637495D01*
X112040883Y-41748769D01*
X112123004Y-41859812D01*
X112196817Y-41959114D01*
X112262789Y-42056445D01*
X112321383Y-42161579D01*
X112373064Y-42284288D01*
X112418298Y-42434344D01*
X112457548Y-42621518D01*
X112491280Y-42855584D01*
X112519959Y-43146314D01*
X112544048Y-43503479D01*
X112564014Y-43936851D01*
X112580320Y-44456204D01*
X112593431Y-45071309D01*
X112603812Y-45791939D01*
X112611928Y-46627865D01*
X112618243Y-47588860D01*
X112623223Y-48684696D01*
X112627331Y-49925145D01*
X112631034Y-51319979D01*
X112634794Y-52878972D01*
X112638309Y-54311181D01*
X112641628Y-55907843D01*
X112643353Y-57431208D01*
X112643531Y-58871546D01*
X112642208Y-60219126D01*
X112639428Y-61464217D01*
X112635239Y-62597089D01*
X112629686Y-63608013D01*
X112622815Y-64487257D01*
X112614671Y-65225091D01*
X112605301Y-65811785D01*
X112594749Y-66237609D01*
X112583062Y-66492832D01*
X112580851Y-66519804D01*
X112500318Y-67138560D01*
X112374589Y-67635489D01*
X112183122Y-68069169D01*
X111905373Y-68498174D01*
X111870631Y-68544982D01*
X111648798Y-68840860D01*
X109219056Y-68840860D01*
X109214161Y-68300484D01*
X109208598Y-67376223D01*
X109204586Y-66331531D01*
X109201886Y-65158881D01*
X109200262Y-63850743D01*
X109199479Y-62399590D01*
X109199297Y-60797894D01*
X109199480Y-59038126D01*
X109199791Y-57112759D01*
X109199994Y-55014264D01*
X109200000Y-54597670D01*
X109200118Y-52477074D01*
X109200512Y-50531084D01*
X109201240Y-48752227D01*
X109202360Y-47133030D01*
X109203929Y-45666018D01*
X109206006Y-44343721D01*
X109208649Y-43158664D01*
X109211915Y-42103374D01*
X109215862Y-41170378D01*
X109220549Y-40352204D01*
X109226033Y-39641379D01*
X109232373Y-39030428D01*
X109239626Y-38511880D01*
X109247850Y-38078261D01*
X109257104Y-37722098D01*
X109267445Y-37435918D01*
X109278930Y-37212248D01*
X109291619Y-37043615D01*
X109305569Y-36922547D01*
X109320839Y-36841569D01*
X109337485Y-36793209D01*
X109338100Y-36792002D01*
X109372386Y-36718125D01*
X109400942Y-36651241D01*
X109432531Y-36591005D01*
X109475916Y-36537069D01*
X109539857Y-36489087D01*
X109633117Y-36446713D01*
X109764458Y-36409600D01*
X109942643Y-36377403D01*
X110176432Y-36349773D01*
X110474589Y-36326366D01*
X110845876Y-36306835D01*
X111299054Y-36290833D01*
X111842885Y-36278013D01*
X112486132Y-36268031D01*
X113237557Y-36260538D01*
X114105922Y-36255188D01*
X115099988Y-36251636D01*
X116228519Y-36249535D01*
X117500276Y-36248538D01*
X118924020Y-36248299D01*
X120508515Y-36248472D01*
G36*
X120508515Y-36248472D02*
G01*
X122262523Y-36248709D01*
X123078991Y-36248745D01*
X136147670Y-36248745D01*
X136147670Y-37019112D01*
X136229894Y-37956587D01*
X136478055Y-38821197D01*
X136894380Y-39618081D01*
X137481100Y-40352379D01*
X137679606Y-40550699D01*
X138393683Y-41113237D01*
X139181036Y-41523508D01*
X140018278Y-41781700D01*
X140882025Y-41887998D01*
X141748891Y-41842588D01*
X142595491Y-41645657D01*
X143398439Y-41297392D01*
X144134349Y-40797977D01*
X144464857Y-40496671D01*
X145080757Y-39757920D01*
X145532388Y-38945538D01*
X145815813Y-38068809D01*
X145927094Y-37137020D01*
X145928573Y-37045355D01*
X145934408Y-36248775D01*
X146284519Y-36248760D01*
X146595100Y-36290911D01*
X146878815Y-36393469D01*
X146897564Y-36404064D01*
X146961643Y-36437313D01*
X147020486Y-36463207D01*
X147074307Y-36489289D01*
X147123317Y-36523101D01*
X147167731Y-36572185D01*
X147207760Y-36644083D01*
X147243616Y-36746338D01*
X147275514Y-36886491D01*
X147303665Y-37072086D01*
X147328282Y-37310664D01*
X147349577Y-37609768D01*
X147367764Y-37976939D01*
X147383055Y-38419720D01*
X147395663Y-38945654D01*
X147405800Y-39562282D01*
X147413679Y-40277147D01*
X147419512Y-41097791D01*
X147423513Y-42031756D01*
X147425893Y-43086585D01*
X147426867Y-44269819D01*
X147426645Y-45589002D01*
X147425442Y-47051674D01*
X147423469Y-48665379D01*
X147420939Y-50437659D01*
X147418065Y-52376056D01*
X147415060Y-54488112D01*
X147414711Y-54745431D01*
X147412017Y-56870956D01*
X147409730Y-58821942D01*
X147407610Y-60605928D01*
X147405413Y-62230453D01*
X147402899Y-63703056D01*
X147399824Y-65031275D01*
X147395947Y-66222649D01*
X147391025Y-67284718D01*
X147384817Y-68225019D01*
X147377080Y-69051093D01*
X147367572Y-69770477D01*
X147356051Y-70390710D01*
X147342275Y-70919332D01*
X147326001Y-71363881D01*
X147306988Y-71731896D01*
X147284994Y-72030916D01*
X147259776Y-72268480D01*
X147231092Y-72452126D01*
X147198700Y-72589393D01*
X147162359Y-72687821D01*
X147121825Y-72754948D01*
X147076856Y-72798312D01*
X147027212Y-72825453D01*
X146972648Y-72843910D01*
X146912924Y-72861221D01*
X146847798Y-72884925D01*
X146831888Y-72892141D01*
X146781886Y-72908355D01*
X146698198Y-72923253D01*
X146573515Y-72936887D01*
X146400529Y-72949310D01*
X146171935Y-72960576D01*
X145880424Y-72970737D01*
X145518688Y-72979847D01*
X145079421Y-72987958D01*
X144555315Y-72995123D01*
X143939063Y-73001396D01*
X143223357Y-73006830D01*
X142400889Y-73011478D01*
X141464353Y-73015392D01*
X140406441Y-73018625D01*
X139219846Y-73021232D01*
X137897260Y-73023264D01*
X136431375Y-73024775D01*
X134814885Y-73025818D01*
X133040481Y-73026446D01*
X131100858Y-73026711D01*
X128988706Y-73026668D01*
X128304520Y-73026601D01*
X126145512Y-73026254D01*
X124161187Y-73025688D01*
X122344151Y-73024843D01*
X120687010Y-73023662D01*
X119182368Y-73022088D01*
X117822830Y-73020062D01*
X116601002Y-73017527D01*
X115509489Y-73014425D01*
X114540896Y-73010698D01*
X113687828Y-73006289D01*
X112942890Y-73001139D01*
X112298688Y-72995191D01*
X111747826Y-72988387D01*
X111282910Y-72980669D01*
X110896545Y-72971980D01*
X110581336Y-72962261D01*
X110329888Y-72951455D01*
X110134807Y-72939505D01*
X109988696Y-72926352D01*
X109884163Y-72911938D01*
X109813811Y-72896206D01*
X109775458Y-72881800D01*
X109707296Y-72853054D01*
X109644711Y-72831856D01*
X109587466Y-72810678D01*
X109535326Y-72781991D01*
X109488053Y-72738267D01*
X109445410Y-72671979D01*
X109407160Y-72575598D01*
X109373067Y-72441596D01*
X109342893Y-72262444D01*
X109316401Y-72030616D01*
X109293354Y-71738581D01*
X109273516Y-71378814D01*
X109256650Y-70943784D01*
X109242518Y-70425964D01*
X109230884Y-69817826D01*
X109221510Y-69111842D01*
X109219056Y-68840860D01*
X111648798Y-68840860D01*
X120236711Y-68840860D01*
X120071464Y-68590502D01*
X119907076Y-68333226D01*
X119767869Y-68088232D01*
X119651864Y-67838375D01*
X119557079Y-67566510D01*
X119481534Y-67255492D01*
X119423251Y-66888176D01*
X119380248Y-66447416D01*
X119350545Y-65916067D01*
X119332163Y-65276985D01*
X119323121Y-64513024D01*
X119321439Y-63607039D01*
X119325137Y-62541886D01*
X119327234Y-62146440D01*
X119350896Y-57907078D01*
X122036559Y-61563369D01*
X122797403Y-62600612D01*
X123456583Y-63503810D01*
X124021218Y-64284929D01*
X124498423Y-64955934D01*
X124895318Y-65528791D01*
X125219019Y-66015467D01*
X125476645Y-66427928D01*
X125675312Y-66778139D01*
X125822138Y-67078066D01*
X125924242Y-67339676D01*
X125988740Y-67574934D01*
X126022750Y-67795806D01*
X126033390Y-68014258D01*
X126027777Y-68242256D01*
X126026345Y-68270914D01*
X125996774Y-68841242D01*
X130702546Y-68841051D01*
X135408319Y-68840860D01*
X137061509Y-68840860D01*
X141079631Y-68840860D01*
X142038865Y-68840581D01*
X142831178Y-68839323D01*
X143471729Y-68836451D01*
X143975675Y-68831332D01*
X144358173Y-68823334D01*
X144634383Y-68811822D01*
X144819462Y-68796163D01*
X144928568Y-68775724D01*
X144976858Y-68749871D01*
X144979492Y-68717971D01*
X144951625Y-68679391D01*
X144951337Y-68679072D01*
X144836548Y-68513024D01*
X144684545Y-68243035D01*
X144550309Y-67973516D01*
X144295698Y-67429749D01*
X144269731Y-57984409D01*
X144243764Y-48539068D01*
X137061509Y-48539068D01*
X137401184Y-49153584D01*
X137740860Y-49768100D01*
X137740860Y-67611828D01*
X137401184Y-68226344D01*
X137061509Y-68840860D01*
X135408319Y-68840860D01*
X134708281Y-68134999D01*
X134518321Y-67941940D01*
X134338114Y-67754085D01*
X134159749Y-67561075D01*
X133975320Y-67352548D01*
X133776916Y-67118145D01*
X133556631Y-66847505D01*
X133306554Y-66530269D01*
X133018777Y-66156076D01*
X132685392Y-65714566D01*
X132298489Y-65195379D01*
X131850161Y-64588155D01*
X131332499Y-63882533D01*
X130737593Y-63068154D01*
X130057536Y-62134657D01*
X129284418Y-61071682D01*
X128650729Y-60199732D01*
X127855426Y-59104306D01*
X127161640Y-58146524D01*
X126563086Y-57317290D01*
X126053478Y-56607513D01*
X125626532Y-56008099D01*
X125275962Y-55509955D01*
X124995483Y-55103987D01*
X124778811Y-54781103D01*
X124619659Y-54532208D01*
X124511744Y-54348210D01*
X124448781Y-54220014D01*
X124424483Y-54138529D01*
X124431787Y-54095688D01*
X124520291Y-53981681D01*
X124711641Y-53740360D01*
X124994291Y-53386068D01*
X125356695Y-52933150D01*
X125787308Y-52395949D01*
X126274582Y-51788809D01*
X126806972Y-51126075D01*
X127372932Y-50422090D01*
X127960916Y-49691199D01*
X128559378Y-48947744D01*
X128888552Y-48539068D01*
X129156771Y-48206071D01*
X129741549Y-47480523D01*
X130302168Y-46785445D01*
X130827079Y-46135179D01*
X131304738Y-45544070D01*
X131723599Y-45026463D01*
X132072114Y-44596700D01*
X132338739Y-44269127D01*
X132495342Y-44078136D01*
X133103457Y-43363935D01*
X133688494Y-42719434D01*
X134229949Y-42165733D01*
X134707318Y-41723933D01*
X135046096Y-41453071D01*
X135446673Y-41164874D01*
X126233869Y-41164874D01*
X126236455Y-41705488D01*
X126210707Y-42102943D01*
X126113906Y-42471422D01*
X125964061Y-42820721D01*
X125866654Y-43018053D01*
X125761925Y-43213582D01*
X125640306Y-43420288D01*
X125492230Y-43651152D01*
X125308130Y-43919153D01*
X125078439Y-44237272D01*
X124793590Y-44618489D01*
X124444016Y-45075785D01*
X124020150Y-45622141D01*
X123512425Y-46270535D01*
X122911273Y-47033949D01*
X122207129Y-47925363D01*
X122127598Y-48025944D01*
X119350896Y-51537316D01*
X119324015Y-47648407D01*
X119318603Y-46483565D01*
X119319755Y-45497435D01*
X119327528Y-44686766D01*
X119341979Y-44048309D01*
X119363164Y-43578813D01*
X119391138Y-43275027D01*
X119400540Y-43217400D01*
X119548054Y-42610390D01*
X119741329Y-42063168D01*
X119961879Y-41623180D01*
X120094376Y-41436573D01*
X120322995Y-41164874D01*
X115985157Y-41164874D01*
X114950385Y-41165759D01*
X114085076Y-41168639D01*
X113376622Y-41173848D01*
X112812413Y-41181724D01*
X112379841Y-41192602D01*
X112066298Y-41206818D01*
X111859175Y-41224709D01*
X111745863Y-41246611D01*
X111713754Y-41272860D01*
X111715975Y-41278674D01*
X111807933Y-41417478D01*
X111961454Y-41637495D01*
X112040883Y-41748769D01*
X112123004Y-41859812D01*
X112196817Y-41959114D01*
X112262789Y-42056445D01*
X112321383Y-42161579D01*
X112373064Y-42284288D01*
X112418298Y-42434344D01*
X112457548Y-42621518D01*
X112491280Y-42855584D01*
X112519959Y-43146314D01*
X112544048Y-43503479D01*
X112564014Y-43936851D01*
X112580320Y-44456204D01*
X112593431Y-45071309D01*
X112603812Y-45791939D01*
X112611928Y-46627865D01*
X112618243Y-47588860D01*
X112623223Y-48684696D01*
X112627331Y-49925145D01*
X112631034Y-51319979D01*
X112634794Y-52878972D01*
X112638309Y-54311181D01*
X112641628Y-55907843D01*
X112643353Y-57431208D01*
X112643531Y-58871546D01*
X112642208Y-60219126D01*
X112639428Y-61464217D01*
X112635239Y-62597089D01*
X112629686Y-63608013D01*
X112622815Y-64487257D01*
X112614671Y-65225091D01*
X112605301Y-65811785D01*
X112594749Y-66237609D01*
X112583062Y-66492832D01*
X112580851Y-66519804D01*
X112500318Y-67138560D01*
X112374589Y-67635489D01*
X112183122Y-68069169D01*
X111905373Y-68498174D01*
X111870631Y-68544982D01*
X111648798Y-68840860D01*
X109219056Y-68840860D01*
X109214161Y-68300484D01*
X109208598Y-67376223D01*
X109204586Y-66331531D01*
X109201886Y-65158881D01*
X109200262Y-63850743D01*
X109199479Y-62399590D01*
X109199297Y-60797894D01*
X109199480Y-59038126D01*
X109199791Y-57112759D01*
X109199994Y-55014264D01*
X109200000Y-54597670D01*
X109200118Y-52477074D01*
X109200512Y-50531084D01*
X109201240Y-48752227D01*
X109202360Y-47133030D01*
X109203929Y-45666018D01*
X109206006Y-44343721D01*
X109208649Y-43158664D01*
X109211915Y-42103374D01*
X109215862Y-41170378D01*
X109220549Y-40352204D01*
X109226033Y-39641379D01*
X109232373Y-39030428D01*
X109239626Y-38511880D01*
X109247850Y-38078261D01*
X109257104Y-37722098D01*
X109267445Y-37435918D01*
X109278930Y-37212248D01*
X109291619Y-37043615D01*
X109305569Y-36922547D01*
X109320839Y-36841569D01*
X109337485Y-36793209D01*
X109338100Y-36792002D01*
X109372386Y-36718125D01*
X109400942Y-36651241D01*
X109432531Y-36591005D01*
X109475916Y-36537069D01*
X109539857Y-36489087D01*
X109633117Y-36446713D01*
X109764458Y-36409600D01*
X109942643Y-36377403D01*
X110176432Y-36349773D01*
X110474589Y-36326366D01*
X110845876Y-36306835D01*
X111299054Y-36290833D01*
X111842885Y-36278013D01*
X112486132Y-36268031D01*
X113237557Y-36260538D01*
X114105922Y-36255188D01*
X115099988Y-36251636D01*
X116228519Y-36249535D01*
X117500276Y-36248538D01*
X118924020Y-36248299D01*
X120508515Y-36248472D01*
G37*
%TD*%
%LPC*%
D11*
X111071428Y-76008285D02*
X119642857Y-76008285D01*
X115357142Y-91008285D02*
X115357142Y-76008285D01*
X130357142Y-90294000D02*
X128928570Y-91008285D01*
X128928570Y-91008285D02*
X126071428Y-91008285D01*
X126071428Y-91008285D02*
X124642856Y-90294000D01*
X124642856Y-90294000D02*
X123928570Y-88865428D01*
X123928570Y-88865428D02*
X123928570Y-83151142D01*
X123928570Y-83151142D02*
X124642856Y-81722571D01*
X124642856Y-81722571D02*
X126071428Y-81008285D01*
X126071428Y-81008285D02*
X128928570Y-81008285D01*
X128928570Y-81008285D02*
X130357142Y-81722571D01*
X130357142Y-81722571D02*
X131071428Y-83151142D01*
X131071428Y-83151142D02*
X131071428Y-84579714D01*
X131071428Y-84579714D02*
X123928570Y-86008285D01*
X137499999Y-91008285D02*
X137499999Y-81008285D01*
X137499999Y-82436857D02*
X138214285Y-81722571D01*
X138214285Y-81722571D02*
X139642856Y-81008285D01*
X139642856Y-81008285D02*
X141785713Y-81008285D01*
X141785713Y-81008285D02*
X143214285Y-81722571D01*
X143214285Y-81722571D02*
X143928571Y-83151142D01*
X143928571Y-83151142D02*
X143928571Y-91008285D01*
X143928571Y-83151142D02*
X144642856Y-81722571D01*
X144642856Y-81722571D02*
X146071428Y-81008285D01*
X146071428Y-81008285D02*
X148214285Y-81008285D01*
X148214285Y-81008285D02*
X149642856Y-81722571D01*
X149642856Y-81722571D02*
X150357142Y-83151142D01*
X150357142Y-83151142D02*
X150357142Y-91008285D01*
X157499999Y-81008285D02*
X157499999Y-96008285D01*
X157499999Y-81722571D02*
X158928571Y-81008285D01*
X158928571Y-81008285D02*
X161785713Y-81008285D01*
X161785713Y-81008285D02*
X163214285Y-81722571D01*
X163214285Y-81722571D02*
X163928571Y-82436857D01*
X163928571Y-82436857D02*
X164642856Y-83865428D01*
X164642856Y-83865428D02*
X164642856Y-88151142D01*
X164642856Y-88151142D02*
X163928571Y-89579714D01*
X163928571Y-89579714D02*
X163214285Y-90294000D01*
X163214285Y-90294000D02*
X161785713Y-91008285D01*
X161785713Y-91008285D02*
X158928571Y-91008285D01*
X158928571Y-91008285D02*
X157499999Y-90294000D01*
X173214285Y-91008285D02*
X171785714Y-90294000D01*
X171785714Y-90294000D02*
X171071428Y-88865428D01*
X171071428Y-88865428D02*
X171071428Y-76008285D01*
X185357143Y-91008285D02*
X185357143Y-83151142D01*
X185357143Y-83151142D02*
X184642857Y-81722571D01*
X184642857Y-81722571D02*
X183214285Y-81008285D01*
X183214285Y-81008285D02*
X180357143Y-81008285D01*
X180357143Y-81008285D02*
X178928571Y-81722571D01*
X185357143Y-90294000D02*
X183928571Y-91008285D01*
X183928571Y-91008285D02*
X180357143Y-91008285D01*
X180357143Y-91008285D02*
X178928571Y-90294000D01*
X178928571Y-90294000D02*
X178214285Y-88865428D01*
X178214285Y-88865428D02*
X178214285Y-87436857D01*
X178214285Y-87436857D02*
X178928571Y-86008285D01*
X178928571Y-86008285D02*
X180357143Y-85294000D01*
X180357143Y-85294000D02*
X183928571Y-85294000D01*
X183928571Y-85294000D02*
X185357143Y-84579714D01*
X190357143Y-81008285D02*
X196071429Y-81008285D01*
X192500000Y-76008285D02*
X192500000Y-88865428D01*
X192500000Y-88865428D02*
X193214286Y-90294000D01*
X193214286Y-90294000D02*
X194642857Y-91008285D01*
X194642857Y-91008285D02*
X196071429Y-91008285D01*
X206785715Y-90294000D02*
X205357143Y-91008285D01*
X205357143Y-91008285D02*
X202500001Y-91008285D01*
X202500001Y-91008285D02*
X201071429Y-90294000D01*
X201071429Y-90294000D02*
X200357143Y-88865428D01*
X200357143Y-88865428D02*
X200357143Y-83151142D01*
X200357143Y-83151142D02*
X201071429Y-81722571D01*
X201071429Y-81722571D02*
X202500001Y-81008285D01*
X202500001Y-81008285D02*
X205357143Y-81008285D01*
X205357143Y-81008285D02*
X206785715Y-81722571D01*
X206785715Y-81722571D02*
X207500001Y-83151142D01*
X207500001Y-83151142D02*
X207500001Y-84579714D01*
X207500001Y-84579714D02*
X200357143Y-86008285D01*
%LPD*%
M02*
